G04 MADE WITH FRITZING*
G04 WWW.FRITZING.ORG*
G04 DOUBLE SIDED*
G04 HOLES PLATED*
G04 CONTOUR ON CENTER OF CONTOUR VECTOR*
%ASAXBY*%
%FSLAX23Y23*%
%MOIN*%
%OFA0B0*%
%SFA1.0B1.0*%
%ADD10C,0.080925*%
%ADD11C,0.080866*%
%ADD12C,0.088000*%
%ADD13C,0.079444*%
%ADD14R,0.049370X0.053307*%
%ADD15R,0.057244X0.053307*%
%ADD16R,0.053307X0.057244*%
%ADD17R,0.061181X0.071024*%
%ADD18R,0.037559X0.057244*%
%LNMASK1*%
G90*
G70*
G54D10*
X1157Y1574D03*
G54D11*
X964Y1574D03*
G54D12*
X1011Y602D03*
X1111Y602D03*
X863Y818D03*
X963Y818D03*
X1063Y818D03*
X1163Y818D03*
X1263Y818D03*
X863Y818D03*
X963Y818D03*
X1063Y818D03*
X1163Y818D03*
X1263Y818D03*
X1263Y718D03*
X1163Y718D03*
X1063Y718D03*
X963Y718D03*
X863Y718D03*
X863Y818D03*
X963Y818D03*
X1063Y818D03*
X1163Y818D03*
X1263Y818D03*
X863Y818D03*
X963Y818D03*
X1063Y818D03*
X1163Y818D03*
X1263Y818D03*
X1263Y718D03*
X1163Y718D03*
X1063Y718D03*
X963Y718D03*
X863Y718D03*
G54D13*
X990Y1791D03*
X1090Y1791D03*
X1190Y1791D03*
G54D14*
X789Y1604D03*
X789Y1537D03*
X1303Y1641D03*
X1303Y1574D03*
G54D15*
X1015Y1921D03*
X1082Y1921D03*
G54D16*
X1846Y511D03*
X1846Y444D03*
X1850Y1610D03*
X1850Y1543D03*
X250Y502D03*
X250Y435D03*
X250Y1596D03*
X250Y1529D03*
G54D15*
X1468Y1330D03*
X1535Y1330D03*
G54D16*
X1783Y1311D03*
X1783Y1244D03*
G54D15*
X1468Y1271D03*
X1535Y1271D03*
X594Y1334D03*
X661Y1334D03*
X661Y1263D03*
X594Y1263D03*
G54D16*
X346Y1287D03*
X346Y1220D03*
G54D15*
X964Y1330D03*
X1031Y1330D03*
X1106Y1330D03*
X1173Y1330D03*
G54D17*
X1567Y627D03*
X1567Y314D03*
X1744Y627D03*
X1744Y314D03*
X1567Y1730D03*
X1567Y1417D03*
X1744Y1730D03*
X1744Y1417D03*
X385Y1730D03*
X385Y1417D03*
X563Y1730D03*
X563Y1417D03*
G54D18*
X441Y1334D03*
X496Y1334D03*
X441Y1216D03*
X496Y1216D03*
X1626Y1334D03*
X1682Y1334D03*
X1626Y1216D03*
X1682Y1216D03*
G54D17*
X385Y627D03*
X385Y314D03*
X563Y627D03*
X563Y314D03*
G04 End of Mask1*
M02*