G04 MADE WITH FRITZING*
G04 WWW.FRITZING.ORG*
G04 DOUBLE SIDED*
G04 HOLES PLATED*
G04 CONTOUR ON CENTER OF CONTOUR VECTOR*
%ASAXBY*%
%FSLAX23Y23*%
%MOIN*%
%OFA0B0*%
%SFA1.0B1.0*%
%ADD10C,0.034283X0.0222834*%
%ADD11C,0.011920X0.0039196*%
%ADD12C,0.010000*%
%ADD13R,0.001000X0.001000*%
%LNSILK0*%
G90*
G70*
G54D10*
X957Y1123D03*
G54D11*
X1131Y237D03*
G54D12*
X813Y868D02*
X1313Y868D01*
D02*
X1313Y868D02*
X1313Y668D01*
D02*
X1313Y668D02*
X813Y668D01*
D02*
X813Y668D02*
X813Y868D01*
G54D13*
X353Y1697D02*
X590Y1697D01*
X1534Y1697D02*
X1771Y1697D01*
X351Y1696D02*
X592Y1696D01*
X1532Y1696D02*
X1773Y1696D01*
X351Y1695D02*
X593Y1695D01*
X1531Y1695D02*
X1773Y1695D01*
X350Y1694D02*
X593Y1694D01*
X1531Y1694D02*
X1774Y1694D01*
X350Y1693D02*
X593Y1693D01*
X1531Y1693D02*
X1774Y1693D01*
X350Y1692D02*
X593Y1692D01*
X1531Y1692D02*
X1774Y1692D01*
X350Y1691D02*
X593Y1691D01*
X1531Y1691D02*
X1774Y1691D01*
X350Y1690D02*
X593Y1690D01*
X1531Y1690D02*
X1774Y1690D01*
X350Y1689D02*
X357Y1689D01*
X586Y1689D02*
X593Y1689D01*
X1531Y1689D02*
X1538Y1689D01*
X1767Y1689D02*
X1774Y1689D01*
X350Y1688D02*
X357Y1688D01*
X586Y1688D02*
X593Y1688D01*
X1531Y1688D02*
X1538Y1688D01*
X1767Y1688D02*
X1774Y1688D01*
X350Y1687D02*
X357Y1687D01*
X586Y1687D02*
X593Y1687D01*
X1531Y1687D02*
X1538Y1687D01*
X1767Y1687D02*
X1774Y1687D01*
X350Y1686D02*
X357Y1686D01*
X586Y1686D02*
X593Y1686D01*
X1531Y1686D02*
X1538Y1686D01*
X1767Y1686D02*
X1774Y1686D01*
X350Y1685D02*
X357Y1685D01*
X586Y1685D02*
X593Y1685D01*
X1531Y1685D02*
X1538Y1685D01*
X1767Y1685D02*
X1774Y1685D01*
X350Y1684D02*
X357Y1684D01*
X586Y1684D02*
X593Y1684D01*
X1531Y1684D02*
X1538Y1684D01*
X1767Y1684D02*
X1774Y1684D01*
X350Y1683D02*
X357Y1683D01*
X586Y1683D02*
X593Y1683D01*
X1531Y1683D02*
X1538Y1683D01*
X1767Y1683D02*
X1774Y1683D01*
X350Y1682D02*
X357Y1682D01*
X586Y1682D02*
X593Y1682D01*
X1531Y1682D02*
X1538Y1682D01*
X1767Y1682D02*
X1774Y1682D01*
X350Y1681D02*
X357Y1681D01*
X586Y1681D02*
X593Y1681D01*
X1531Y1681D02*
X1538Y1681D01*
X1767Y1681D02*
X1774Y1681D01*
X350Y1680D02*
X357Y1680D01*
X586Y1680D02*
X593Y1680D01*
X1531Y1680D02*
X1538Y1680D01*
X1767Y1680D02*
X1774Y1680D01*
X350Y1679D02*
X357Y1679D01*
X586Y1679D02*
X593Y1679D01*
X1531Y1679D02*
X1538Y1679D01*
X1767Y1679D02*
X1774Y1679D01*
X350Y1678D02*
X357Y1678D01*
X586Y1678D02*
X593Y1678D01*
X1531Y1678D02*
X1538Y1678D01*
X1767Y1678D02*
X1774Y1678D01*
X350Y1677D02*
X357Y1677D01*
X586Y1677D02*
X593Y1677D01*
X1531Y1677D02*
X1538Y1677D01*
X1767Y1677D02*
X1774Y1677D01*
X350Y1676D02*
X357Y1676D01*
X586Y1676D02*
X593Y1676D01*
X1531Y1676D02*
X1538Y1676D01*
X1767Y1676D02*
X1774Y1676D01*
X350Y1675D02*
X357Y1675D01*
X586Y1675D02*
X593Y1675D01*
X1531Y1675D02*
X1538Y1675D01*
X1767Y1675D02*
X1774Y1675D01*
X350Y1674D02*
X357Y1674D01*
X586Y1674D02*
X593Y1674D01*
X1531Y1674D02*
X1538Y1674D01*
X1767Y1674D02*
X1774Y1674D01*
X350Y1673D02*
X357Y1673D01*
X586Y1673D02*
X593Y1673D01*
X1531Y1673D02*
X1538Y1673D01*
X1767Y1673D02*
X1774Y1673D01*
X350Y1672D02*
X357Y1672D01*
X586Y1672D02*
X593Y1672D01*
X1531Y1672D02*
X1538Y1672D01*
X1767Y1672D02*
X1774Y1672D01*
X350Y1671D02*
X357Y1671D01*
X586Y1671D02*
X593Y1671D01*
X1531Y1671D02*
X1538Y1671D01*
X1767Y1671D02*
X1774Y1671D01*
X350Y1670D02*
X357Y1670D01*
X586Y1670D02*
X593Y1670D01*
X1531Y1670D02*
X1538Y1670D01*
X1767Y1670D02*
X1774Y1670D01*
X350Y1669D02*
X357Y1669D01*
X586Y1669D02*
X593Y1669D01*
X1531Y1669D02*
X1538Y1669D01*
X1767Y1669D02*
X1774Y1669D01*
X350Y1668D02*
X357Y1668D01*
X586Y1668D02*
X593Y1668D01*
X1531Y1668D02*
X1538Y1668D01*
X1767Y1668D02*
X1774Y1668D01*
X350Y1667D02*
X357Y1667D01*
X586Y1667D02*
X593Y1667D01*
X1531Y1667D02*
X1538Y1667D01*
X1767Y1667D02*
X1774Y1667D01*
X350Y1666D02*
X357Y1666D01*
X586Y1666D02*
X593Y1666D01*
X1531Y1666D02*
X1538Y1666D01*
X1767Y1666D02*
X1774Y1666D01*
X350Y1665D02*
X357Y1665D01*
X586Y1665D02*
X593Y1665D01*
X1531Y1665D02*
X1538Y1665D01*
X1767Y1665D02*
X1774Y1665D01*
X350Y1664D02*
X357Y1664D01*
X586Y1664D02*
X593Y1664D01*
X1531Y1664D02*
X1538Y1664D01*
X1767Y1664D02*
X1774Y1664D01*
X350Y1663D02*
X357Y1663D01*
X586Y1663D02*
X593Y1663D01*
X1531Y1663D02*
X1538Y1663D01*
X1767Y1663D02*
X1774Y1663D01*
X350Y1662D02*
X357Y1662D01*
X586Y1662D02*
X593Y1662D01*
X1531Y1662D02*
X1538Y1662D01*
X1767Y1662D02*
X1774Y1662D01*
X350Y1661D02*
X357Y1661D01*
X586Y1661D02*
X593Y1661D01*
X1531Y1661D02*
X1538Y1661D01*
X1767Y1661D02*
X1774Y1661D01*
X350Y1660D02*
X357Y1660D01*
X586Y1660D02*
X593Y1660D01*
X1531Y1660D02*
X1538Y1660D01*
X1767Y1660D02*
X1774Y1660D01*
X350Y1659D02*
X357Y1659D01*
X586Y1659D02*
X593Y1659D01*
X1531Y1659D02*
X1538Y1659D01*
X1767Y1659D02*
X1774Y1659D01*
X350Y1658D02*
X357Y1658D01*
X586Y1658D02*
X593Y1658D01*
X1531Y1658D02*
X1538Y1658D01*
X1767Y1658D02*
X1774Y1658D01*
X350Y1657D02*
X357Y1657D01*
X586Y1657D02*
X593Y1657D01*
X1531Y1657D02*
X1538Y1657D01*
X1767Y1657D02*
X1774Y1657D01*
X350Y1656D02*
X357Y1656D01*
X586Y1656D02*
X593Y1656D01*
X1531Y1656D02*
X1538Y1656D01*
X1767Y1656D02*
X1774Y1656D01*
X350Y1655D02*
X357Y1655D01*
X586Y1655D02*
X593Y1655D01*
X1531Y1655D02*
X1538Y1655D01*
X1767Y1655D02*
X1774Y1655D01*
X350Y1654D02*
X357Y1654D01*
X586Y1654D02*
X593Y1654D01*
X1531Y1654D02*
X1538Y1654D01*
X1767Y1654D02*
X1774Y1654D01*
X350Y1653D02*
X357Y1653D01*
X586Y1653D02*
X593Y1653D01*
X1531Y1653D02*
X1538Y1653D01*
X1767Y1653D02*
X1774Y1653D01*
X350Y1652D02*
X357Y1652D01*
X586Y1652D02*
X593Y1652D01*
X1531Y1652D02*
X1538Y1652D01*
X1767Y1652D02*
X1774Y1652D01*
X350Y1651D02*
X357Y1651D01*
X586Y1651D02*
X593Y1651D01*
X1531Y1651D02*
X1538Y1651D01*
X1767Y1651D02*
X1774Y1651D01*
X350Y1650D02*
X357Y1650D01*
X586Y1650D02*
X593Y1650D01*
X1531Y1650D02*
X1538Y1650D01*
X1767Y1650D02*
X1774Y1650D01*
X350Y1649D02*
X357Y1649D01*
X586Y1649D02*
X593Y1649D01*
X1531Y1649D02*
X1538Y1649D01*
X1767Y1649D02*
X1774Y1649D01*
X350Y1648D02*
X357Y1648D01*
X586Y1648D02*
X593Y1648D01*
X1531Y1648D02*
X1538Y1648D01*
X1767Y1648D02*
X1774Y1648D01*
X350Y1647D02*
X357Y1647D01*
X586Y1647D02*
X593Y1647D01*
X1531Y1647D02*
X1538Y1647D01*
X1767Y1647D02*
X1774Y1647D01*
X350Y1646D02*
X357Y1646D01*
X586Y1646D02*
X593Y1646D01*
X1531Y1646D02*
X1538Y1646D01*
X1767Y1646D02*
X1774Y1646D01*
X350Y1645D02*
X357Y1645D01*
X586Y1645D02*
X593Y1645D01*
X1531Y1645D02*
X1538Y1645D01*
X1767Y1645D02*
X1774Y1645D01*
X350Y1644D02*
X357Y1644D01*
X586Y1644D02*
X593Y1644D01*
X1531Y1644D02*
X1538Y1644D01*
X1767Y1644D02*
X1774Y1644D01*
X350Y1643D02*
X357Y1643D01*
X586Y1643D02*
X593Y1643D01*
X1531Y1643D02*
X1538Y1643D01*
X1767Y1643D02*
X1774Y1643D01*
X350Y1642D02*
X357Y1642D01*
X586Y1642D02*
X593Y1642D01*
X1531Y1642D02*
X1538Y1642D01*
X1767Y1642D02*
X1774Y1642D01*
X350Y1641D02*
X357Y1641D01*
X586Y1641D02*
X593Y1641D01*
X1531Y1641D02*
X1538Y1641D01*
X1767Y1641D02*
X1774Y1641D01*
X350Y1640D02*
X357Y1640D01*
X586Y1640D02*
X593Y1640D01*
X1531Y1640D02*
X1538Y1640D01*
X1767Y1640D02*
X1774Y1640D01*
X350Y1639D02*
X357Y1639D01*
X586Y1639D02*
X593Y1639D01*
X1531Y1639D02*
X1538Y1639D01*
X1767Y1639D02*
X1774Y1639D01*
X350Y1638D02*
X357Y1638D01*
X586Y1638D02*
X593Y1638D01*
X1531Y1638D02*
X1538Y1638D01*
X1767Y1638D02*
X1774Y1638D01*
X350Y1637D02*
X357Y1637D01*
X586Y1637D02*
X593Y1637D01*
X1531Y1637D02*
X1538Y1637D01*
X1767Y1637D02*
X1774Y1637D01*
X350Y1636D02*
X357Y1636D01*
X586Y1636D02*
X593Y1636D01*
X1531Y1636D02*
X1538Y1636D01*
X1767Y1636D02*
X1774Y1636D01*
X350Y1635D02*
X357Y1635D01*
X586Y1635D02*
X593Y1635D01*
X1531Y1635D02*
X1538Y1635D01*
X1767Y1635D02*
X1774Y1635D01*
X350Y1634D02*
X357Y1634D01*
X586Y1634D02*
X593Y1634D01*
X1531Y1634D02*
X1538Y1634D01*
X1767Y1634D02*
X1774Y1634D01*
X350Y1633D02*
X357Y1633D01*
X586Y1633D02*
X593Y1633D01*
X1531Y1633D02*
X1538Y1633D01*
X1767Y1633D02*
X1774Y1633D01*
X350Y1632D02*
X357Y1632D01*
X586Y1632D02*
X593Y1632D01*
X1531Y1632D02*
X1538Y1632D01*
X1767Y1632D02*
X1774Y1632D01*
X350Y1631D02*
X357Y1631D01*
X586Y1631D02*
X593Y1631D01*
X1531Y1631D02*
X1538Y1631D01*
X1767Y1631D02*
X1774Y1631D01*
X350Y1630D02*
X357Y1630D01*
X586Y1630D02*
X593Y1630D01*
X1531Y1630D02*
X1538Y1630D01*
X1767Y1630D02*
X1774Y1630D01*
X350Y1629D02*
X357Y1629D01*
X586Y1629D02*
X593Y1629D01*
X1531Y1629D02*
X1538Y1629D01*
X1767Y1629D02*
X1774Y1629D01*
X350Y1628D02*
X357Y1628D01*
X586Y1628D02*
X593Y1628D01*
X1531Y1628D02*
X1538Y1628D01*
X1767Y1628D02*
X1774Y1628D01*
X350Y1627D02*
X357Y1627D01*
X586Y1627D02*
X593Y1627D01*
X1531Y1627D02*
X1538Y1627D01*
X1767Y1627D02*
X1774Y1627D01*
X350Y1626D02*
X357Y1626D01*
X586Y1626D02*
X593Y1626D01*
X1531Y1626D02*
X1538Y1626D01*
X1767Y1626D02*
X1774Y1626D01*
X350Y1625D02*
X357Y1625D01*
X586Y1625D02*
X593Y1625D01*
X1531Y1625D02*
X1538Y1625D01*
X1767Y1625D02*
X1774Y1625D01*
X350Y1624D02*
X357Y1624D01*
X586Y1624D02*
X593Y1624D01*
X1531Y1624D02*
X1538Y1624D01*
X1767Y1624D02*
X1774Y1624D01*
X350Y1623D02*
X357Y1623D01*
X586Y1623D02*
X593Y1623D01*
X1531Y1623D02*
X1538Y1623D01*
X1767Y1623D02*
X1774Y1623D01*
X350Y1622D02*
X357Y1622D01*
X586Y1622D02*
X593Y1622D01*
X1531Y1622D02*
X1538Y1622D01*
X1767Y1622D02*
X1774Y1622D01*
X350Y1621D02*
X357Y1621D01*
X586Y1621D02*
X593Y1621D01*
X1531Y1621D02*
X1538Y1621D01*
X1767Y1621D02*
X1774Y1621D01*
X350Y1620D02*
X357Y1620D01*
X586Y1620D02*
X593Y1620D01*
X1531Y1620D02*
X1538Y1620D01*
X1767Y1620D02*
X1774Y1620D01*
X350Y1619D02*
X357Y1619D01*
X586Y1619D02*
X593Y1619D01*
X1531Y1619D02*
X1538Y1619D01*
X1767Y1619D02*
X1774Y1619D01*
X350Y1618D02*
X357Y1618D01*
X586Y1618D02*
X593Y1618D01*
X1531Y1618D02*
X1538Y1618D01*
X1767Y1618D02*
X1774Y1618D01*
X350Y1617D02*
X357Y1617D01*
X586Y1617D02*
X593Y1617D01*
X1531Y1617D02*
X1538Y1617D01*
X1767Y1617D02*
X1774Y1617D01*
X350Y1616D02*
X357Y1616D01*
X586Y1616D02*
X593Y1616D01*
X1531Y1616D02*
X1538Y1616D01*
X1767Y1616D02*
X1774Y1616D01*
X350Y1615D02*
X357Y1615D01*
X586Y1615D02*
X593Y1615D01*
X1531Y1615D02*
X1538Y1615D01*
X1767Y1615D02*
X1774Y1615D01*
X350Y1614D02*
X357Y1614D01*
X586Y1614D02*
X593Y1614D01*
X1531Y1614D02*
X1538Y1614D01*
X1767Y1614D02*
X1774Y1614D01*
X350Y1613D02*
X357Y1613D01*
X586Y1613D02*
X593Y1613D01*
X1531Y1613D02*
X1538Y1613D01*
X1767Y1613D02*
X1774Y1613D01*
X350Y1612D02*
X357Y1612D01*
X586Y1612D02*
X593Y1612D01*
X1531Y1612D02*
X1538Y1612D01*
X1767Y1612D02*
X1774Y1612D01*
X350Y1611D02*
X357Y1611D01*
X586Y1611D02*
X593Y1611D01*
X1531Y1611D02*
X1538Y1611D01*
X1767Y1611D02*
X1774Y1611D01*
X350Y1610D02*
X357Y1610D01*
X586Y1610D02*
X593Y1610D01*
X1531Y1610D02*
X1538Y1610D01*
X1767Y1610D02*
X1774Y1610D01*
X350Y1609D02*
X357Y1609D01*
X586Y1609D02*
X593Y1609D01*
X1531Y1609D02*
X1538Y1609D01*
X1767Y1609D02*
X1774Y1609D01*
X350Y1608D02*
X357Y1608D01*
X586Y1608D02*
X593Y1608D01*
X1531Y1608D02*
X1538Y1608D01*
X1767Y1608D02*
X1774Y1608D01*
X350Y1607D02*
X357Y1607D01*
X586Y1607D02*
X593Y1607D01*
X1531Y1607D02*
X1538Y1607D01*
X1767Y1607D02*
X1774Y1607D01*
X350Y1606D02*
X357Y1606D01*
X586Y1606D02*
X593Y1606D01*
X1531Y1606D02*
X1538Y1606D01*
X1767Y1606D02*
X1774Y1606D01*
X350Y1605D02*
X357Y1605D01*
X586Y1605D02*
X593Y1605D01*
X1531Y1605D02*
X1538Y1605D01*
X1767Y1605D02*
X1774Y1605D01*
X350Y1604D02*
X357Y1604D01*
X586Y1604D02*
X593Y1604D01*
X1531Y1604D02*
X1538Y1604D01*
X1767Y1604D02*
X1774Y1604D01*
X350Y1603D02*
X357Y1603D01*
X586Y1603D02*
X593Y1603D01*
X1531Y1603D02*
X1538Y1603D01*
X1767Y1603D02*
X1774Y1603D01*
X350Y1602D02*
X357Y1602D01*
X586Y1602D02*
X593Y1602D01*
X1531Y1602D02*
X1538Y1602D01*
X1767Y1602D02*
X1774Y1602D01*
X350Y1601D02*
X357Y1601D01*
X586Y1601D02*
X593Y1601D01*
X1531Y1601D02*
X1538Y1601D01*
X1767Y1601D02*
X1774Y1601D01*
X350Y1600D02*
X357Y1600D01*
X586Y1600D02*
X593Y1600D01*
X1531Y1600D02*
X1538Y1600D01*
X1767Y1600D02*
X1774Y1600D01*
X350Y1599D02*
X357Y1599D01*
X586Y1599D02*
X593Y1599D01*
X1531Y1599D02*
X1538Y1599D01*
X1767Y1599D02*
X1774Y1599D01*
X350Y1598D02*
X357Y1598D01*
X586Y1598D02*
X593Y1598D01*
X1531Y1598D02*
X1538Y1598D01*
X1767Y1598D02*
X1774Y1598D01*
X350Y1597D02*
X357Y1597D01*
X586Y1597D02*
X593Y1597D01*
X1531Y1597D02*
X1538Y1597D01*
X1767Y1597D02*
X1774Y1597D01*
X350Y1596D02*
X357Y1596D01*
X586Y1596D02*
X593Y1596D01*
X1531Y1596D02*
X1538Y1596D01*
X1767Y1596D02*
X1774Y1596D01*
X350Y1595D02*
X357Y1595D01*
X586Y1595D02*
X593Y1595D01*
X1531Y1595D02*
X1538Y1595D01*
X1767Y1595D02*
X1774Y1595D01*
X350Y1594D02*
X357Y1594D01*
X586Y1594D02*
X593Y1594D01*
X1531Y1594D02*
X1538Y1594D01*
X1767Y1594D02*
X1774Y1594D01*
X350Y1593D02*
X357Y1593D01*
X586Y1593D02*
X593Y1593D01*
X1531Y1593D02*
X1538Y1593D01*
X1767Y1593D02*
X1774Y1593D01*
X350Y1592D02*
X357Y1592D01*
X586Y1592D02*
X593Y1592D01*
X1531Y1592D02*
X1538Y1592D01*
X1767Y1592D02*
X1774Y1592D01*
X350Y1591D02*
X357Y1591D01*
X586Y1591D02*
X593Y1591D01*
X1531Y1591D02*
X1538Y1591D01*
X1767Y1591D02*
X1774Y1591D01*
X350Y1590D02*
X357Y1590D01*
X586Y1590D02*
X593Y1590D01*
X1531Y1590D02*
X1538Y1590D01*
X1767Y1590D02*
X1774Y1590D01*
X350Y1589D02*
X357Y1589D01*
X586Y1589D02*
X593Y1589D01*
X1531Y1589D02*
X1538Y1589D01*
X1767Y1589D02*
X1774Y1589D01*
X350Y1588D02*
X357Y1588D01*
X586Y1588D02*
X593Y1588D01*
X1531Y1588D02*
X1538Y1588D01*
X1767Y1588D02*
X1774Y1588D01*
X350Y1587D02*
X357Y1587D01*
X586Y1587D02*
X593Y1587D01*
X1531Y1587D02*
X1538Y1587D01*
X1767Y1587D02*
X1774Y1587D01*
X350Y1586D02*
X357Y1586D01*
X586Y1586D02*
X593Y1586D01*
X1531Y1586D02*
X1538Y1586D01*
X1767Y1586D02*
X1774Y1586D01*
X350Y1585D02*
X357Y1585D01*
X586Y1585D02*
X593Y1585D01*
X1531Y1585D02*
X1538Y1585D01*
X1767Y1585D02*
X1774Y1585D01*
X350Y1584D02*
X357Y1584D01*
X586Y1584D02*
X593Y1584D01*
X1531Y1584D02*
X1538Y1584D01*
X1767Y1584D02*
X1774Y1584D01*
X350Y1583D02*
X357Y1583D01*
X586Y1583D02*
X593Y1583D01*
X1531Y1583D02*
X1538Y1583D01*
X1767Y1583D02*
X1774Y1583D01*
X350Y1582D02*
X357Y1582D01*
X586Y1582D02*
X593Y1582D01*
X1531Y1582D02*
X1538Y1582D01*
X1767Y1582D02*
X1774Y1582D01*
X350Y1581D02*
X357Y1581D01*
X586Y1581D02*
X593Y1581D01*
X1531Y1581D02*
X1538Y1581D01*
X1767Y1581D02*
X1774Y1581D01*
X350Y1580D02*
X357Y1580D01*
X586Y1580D02*
X593Y1580D01*
X1531Y1580D02*
X1538Y1580D01*
X1767Y1580D02*
X1774Y1580D01*
X350Y1579D02*
X357Y1579D01*
X586Y1579D02*
X593Y1579D01*
X1531Y1579D02*
X1538Y1579D01*
X1767Y1579D02*
X1774Y1579D01*
X350Y1578D02*
X357Y1578D01*
X586Y1578D02*
X593Y1578D01*
X1531Y1578D02*
X1538Y1578D01*
X1767Y1578D02*
X1774Y1578D01*
X350Y1577D02*
X357Y1577D01*
X586Y1577D02*
X593Y1577D01*
X1531Y1577D02*
X1538Y1577D01*
X1767Y1577D02*
X1774Y1577D01*
X350Y1576D02*
X357Y1576D01*
X586Y1576D02*
X593Y1576D01*
X1531Y1576D02*
X1538Y1576D01*
X1767Y1576D02*
X1774Y1576D01*
X350Y1575D02*
X357Y1575D01*
X586Y1575D02*
X593Y1575D01*
X1531Y1575D02*
X1538Y1575D01*
X1767Y1575D02*
X1774Y1575D01*
X350Y1574D02*
X357Y1574D01*
X586Y1574D02*
X593Y1574D01*
X1531Y1574D02*
X1538Y1574D01*
X1767Y1574D02*
X1774Y1574D01*
X350Y1573D02*
X357Y1573D01*
X586Y1573D02*
X593Y1573D01*
X1531Y1573D02*
X1538Y1573D01*
X1767Y1573D02*
X1774Y1573D01*
X350Y1572D02*
X357Y1572D01*
X586Y1572D02*
X593Y1572D01*
X1531Y1572D02*
X1538Y1572D01*
X1767Y1572D02*
X1774Y1572D01*
X350Y1571D02*
X357Y1571D01*
X586Y1571D02*
X593Y1571D01*
X1531Y1571D02*
X1538Y1571D01*
X1767Y1571D02*
X1774Y1571D01*
X350Y1570D02*
X357Y1570D01*
X586Y1570D02*
X593Y1570D01*
X1531Y1570D02*
X1538Y1570D01*
X1767Y1570D02*
X1774Y1570D01*
X350Y1569D02*
X357Y1569D01*
X586Y1569D02*
X593Y1569D01*
X1531Y1569D02*
X1538Y1569D01*
X1767Y1569D02*
X1774Y1569D01*
X350Y1568D02*
X357Y1568D01*
X586Y1568D02*
X593Y1568D01*
X1531Y1568D02*
X1538Y1568D01*
X1767Y1568D02*
X1774Y1568D01*
X350Y1567D02*
X357Y1567D01*
X586Y1567D02*
X593Y1567D01*
X1531Y1567D02*
X1538Y1567D01*
X1767Y1567D02*
X1774Y1567D01*
X350Y1566D02*
X357Y1566D01*
X586Y1566D02*
X593Y1566D01*
X1531Y1566D02*
X1538Y1566D01*
X1767Y1566D02*
X1774Y1566D01*
X350Y1565D02*
X357Y1565D01*
X586Y1565D02*
X593Y1565D01*
X1531Y1565D02*
X1538Y1565D01*
X1767Y1565D02*
X1774Y1565D01*
X350Y1564D02*
X357Y1564D01*
X586Y1564D02*
X593Y1564D01*
X1531Y1564D02*
X1538Y1564D01*
X1767Y1564D02*
X1774Y1564D01*
X350Y1563D02*
X357Y1563D01*
X586Y1563D02*
X593Y1563D01*
X1531Y1563D02*
X1538Y1563D01*
X1767Y1563D02*
X1774Y1563D01*
X350Y1562D02*
X357Y1562D01*
X586Y1562D02*
X593Y1562D01*
X1531Y1562D02*
X1538Y1562D01*
X1767Y1562D02*
X1774Y1562D01*
X350Y1561D02*
X357Y1561D01*
X586Y1561D02*
X593Y1561D01*
X1531Y1561D02*
X1538Y1561D01*
X1767Y1561D02*
X1774Y1561D01*
X350Y1560D02*
X357Y1560D01*
X586Y1560D02*
X593Y1560D01*
X1531Y1560D02*
X1538Y1560D01*
X1767Y1560D02*
X1774Y1560D01*
X350Y1559D02*
X357Y1559D01*
X586Y1559D02*
X593Y1559D01*
X1531Y1559D02*
X1538Y1559D01*
X1767Y1559D02*
X1774Y1559D01*
X350Y1558D02*
X357Y1558D01*
X586Y1558D02*
X593Y1558D01*
X1531Y1558D02*
X1538Y1558D01*
X1767Y1558D02*
X1774Y1558D01*
X350Y1557D02*
X357Y1557D01*
X586Y1557D02*
X593Y1557D01*
X1531Y1557D02*
X1538Y1557D01*
X1767Y1557D02*
X1774Y1557D01*
X350Y1556D02*
X357Y1556D01*
X586Y1556D02*
X593Y1556D01*
X1531Y1556D02*
X1538Y1556D01*
X1767Y1556D02*
X1774Y1556D01*
X350Y1555D02*
X357Y1555D01*
X586Y1555D02*
X593Y1555D01*
X1531Y1555D02*
X1538Y1555D01*
X1767Y1555D02*
X1774Y1555D01*
X350Y1554D02*
X357Y1554D01*
X586Y1554D02*
X593Y1554D01*
X1531Y1554D02*
X1538Y1554D01*
X1767Y1554D02*
X1774Y1554D01*
X350Y1553D02*
X357Y1553D01*
X586Y1553D02*
X593Y1553D01*
X1531Y1553D02*
X1538Y1553D01*
X1767Y1553D02*
X1774Y1553D01*
X350Y1552D02*
X357Y1552D01*
X586Y1552D02*
X593Y1552D01*
X1531Y1552D02*
X1538Y1552D01*
X1767Y1552D02*
X1774Y1552D01*
X350Y1551D02*
X357Y1551D01*
X586Y1551D02*
X593Y1551D01*
X1531Y1551D02*
X1538Y1551D01*
X1767Y1551D02*
X1774Y1551D01*
X350Y1550D02*
X357Y1550D01*
X586Y1550D02*
X593Y1550D01*
X1531Y1550D02*
X1538Y1550D01*
X1767Y1550D02*
X1774Y1550D01*
X350Y1549D02*
X357Y1549D01*
X586Y1549D02*
X593Y1549D01*
X1531Y1549D02*
X1538Y1549D01*
X1767Y1549D02*
X1774Y1549D01*
X350Y1548D02*
X357Y1548D01*
X586Y1548D02*
X593Y1548D01*
X1531Y1548D02*
X1538Y1548D01*
X1767Y1548D02*
X1774Y1548D01*
X350Y1547D02*
X357Y1547D01*
X586Y1547D02*
X593Y1547D01*
X1531Y1547D02*
X1538Y1547D01*
X1767Y1547D02*
X1774Y1547D01*
X350Y1546D02*
X357Y1546D01*
X586Y1546D02*
X593Y1546D01*
X1531Y1546D02*
X1538Y1546D01*
X1767Y1546D02*
X1774Y1546D01*
X350Y1545D02*
X357Y1545D01*
X586Y1545D02*
X593Y1545D01*
X1531Y1545D02*
X1538Y1545D01*
X1767Y1545D02*
X1774Y1545D01*
X350Y1544D02*
X357Y1544D01*
X586Y1544D02*
X593Y1544D01*
X1531Y1544D02*
X1538Y1544D01*
X1767Y1544D02*
X1774Y1544D01*
X350Y1543D02*
X357Y1543D01*
X586Y1543D02*
X593Y1543D01*
X1531Y1543D02*
X1538Y1543D01*
X1767Y1543D02*
X1774Y1543D01*
X350Y1542D02*
X357Y1542D01*
X586Y1542D02*
X593Y1542D01*
X1531Y1542D02*
X1538Y1542D01*
X1767Y1542D02*
X1774Y1542D01*
X350Y1541D02*
X357Y1541D01*
X586Y1541D02*
X593Y1541D01*
X1531Y1541D02*
X1538Y1541D01*
X1767Y1541D02*
X1774Y1541D01*
X350Y1540D02*
X357Y1540D01*
X586Y1540D02*
X593Y1540D01*
X1531Y1540D02*
X1538Y1540D01*
X1767Y1540D02*
X1774Y1540D01*
X350Y1539D02*
X357Y1539D01*
X586Y1539D02*
X593Y1539D01*
X1531Y1539D02*
X1538Y1539D01*
X1767Y1539D02*
X1774Y1539D01*
X350Y1538D02*
X357Y1538D01*
X586Y1538D02*
X593Y1538D01*
X1531Y1538D02*
X1538Y1538D01*
X1767Y1538D02*
X1774Y1538D01*
X350Y1537D02*
X357Y1537D01*
X586Y1537D02*
X593Y1537D01*
X1531Y1537D02*
X1538Y1537D01*
X1767Y1537D02*
X1774Y1537D01*
X350Y1536D02*
X357Y1536D01*
X586Y1536D02*
X593Y1536D01*
X1531Y1536D02*
X1538Y1536D01*
X1767Y1536D02*
X1774Y1536D01*
X350Y1535D02*
X357Y1535D01*
X586Y1535D02*
X593Y1535D01*
X1531Y1535D02*
X1538Y1535D01*
X1767Y1535D02*
X1774Y1535D01*
X350Y1534D02*
X357Y1534D01*
X586Y1534D02*
X593Y1534D01*
X1531Y1534D02*
X1538Y1534D01*
X1767Y1534D02*
X1774Y1534D01*
X350Y1533D02*
X357Y1533D01*
X586Y1533D02*
X593Y1533D01*
X1531Y1533D02*
X1538Y1533D01*
X1767Y1533D02*
X1774Y1533D01*
X350Y1532D02*
X357Y1532D01*
X586Y1532D02*
X593Y1532D01*
X1531Y1532D02*
X1538Y1532D01*
X1767Y1532D02*
X1774Y1532D01*
X350Y1531D02*
X357Y1531D01*
X586Y1531D02*
X593Y1531D01*
X1531Y1531D02*
X1538Y1531D01*
X1767Y1531D02*
X1774Y1531D01*
X350Y1530D02*
X357Y1530D01*
X586Y1530D02*
X593Y1530D01*
X1531Y1530D02*
X1538Y1530D01*
X1767Y1530D02*
X1774Y1530D01*
X350Y1529D02*
X357Y1529D01*
X586Y1529D02*
X593Y1529D01*
X1531Y1529D02*
X1538Y1529D01*
X1767Y1529D02*
X1774Y1529D01*
X350Y1528D02*
X357Y1528D01*
X586Y1528D02*
X593Y1528D01*
X1531Y1528D02*
X1538Y1528D01*
X1767Y1528D02*
X1774Y1528D01*
X350Y1527D02*
X357Y1527D01*
X586Y1527D02*
X593Y1527D01*
X1531Y1527D02*
X1538Y1527D01*
X1767Y1527D02*
X1774Y1527D01*
X350Y1526D02*
X357Y1526D01*
X586Y1526D02*
X593Y1526D01*
X1531Y1526D02*
X1538Y1526D01*
X1767Y1526D02*
X1774Y1526D01*
X350Y1525D02*
X357Y1525D01*
X586Y1525D02*
X593Y1525D01*
X1531Y1525D02*
X1538Y1525D01*
X1767Y1525D02*
X1774Y1525D01*
X350Y1524D02*
X357Y1524D01*
X586Y1524D02*
X593Y1524D01*
X1531Y1524D02*
X1538Y1524D01*
X1767Y1524D02*
X1774Y1524D01*
X350Y1523D02*
X357Y1523D01*
X586Y1523D02*
X593Y1523D01*
X1531Y1523D02*
X1538Y1523D01*
X1767Y1523D02*
X1774Y1523D01*
X350Y1522D02*
X357Y1522D01*
X586Y1522D02*
X593Y1522D01*
X1531Y1522D02*
X1538Y1522D01*
X1767Y1522D02*
X1774Y1522D01*
X350Y1521D02*
X357Y1521D01*
X586Y1521D02*
X593Y1521D01*
X1531Y1521D02*
X1538Y1521D01*
X1767Y1521D02*
X1774Y1521D01*
X350Y1520D02*
X357Y1520D01*
X586Y1520D02*
X593Y1520D01*
X1531Y1520D02*
X1538Y1520D01*
X1767Y1520D02*
X1774Y1520D01*
X350Y1519D02*
X357Y1519D01*
X586Y1519D02*
X593Y1519D01*
X1531Y1519D02*
X1538Y1519D01*
X1767Y1519D02*
X1774Y1519D01*
X350Y1518D02*
X357Y1518D01*
X586Y1518D02*
X593Y1518D01*
X1531Y1518D02*
X1538Y1518D01*
X1767Y1518D02*
X1774Y1518D01*
X350Y1517D02*
X357Y1517D01*
X586Y1517D02*
X593Y1517D01*
X1531Y1517D02*
X1538Y1517D01*
X1767Y1517D02*
X1774Y1517D01*
X350Y1516D02*
X357Y1516D01*
X586Y1516D02*
X593Y1516D01*
X1531Y1516D02*
X1538Y1516D01*
X1767Y1516D02*
X1774Y1516D01*
X350Y1515D02*
X357Y1515D01*
X586Y1515D02*
X593Y1515D01*
X1531Y1515D02*
X1538Y1515D01*
X1767Y1515D02*
X1774Y1515D01*
X350Y1514D02*
X357Y1514D01*
X586Y1514D02*
X593Y1514D01*
X1531Y1514D02*
X1538Y1514D01*
X1767Y1514D02*
X1774Y1514D01*
X350Y1513D02*
X357Y1513D01*
X586Y1513D02*
X593Y1513D01*
X1531Y1513D02*
X1538Y1513D01*
X1767Y1513D02*
X1774Y1513D01*
X350Y1512D02*
X357Y1512D01*
X586Y1512D02*
X593Y1512D01*
X1531Y1512D02*
X1538Y1512D01*
X1767Y1512D02*
X1774Y1512D01*
X350Y1511D02*
X357Y1511D01*
X586Y1511D02*
X593Y1511D01*
X1531Y1511D02*
X1538Y1511D01*
X1767Y1511D02*
X1774Y1511D01*
X350Y1510D02*
X357Y1510D01*
X586Y1510D02*
X593Y1510D01*
X1531Y1510D02*
X1538Y1510D01*
X1767Y1510D02*
X1774Y1510D01*
X350Y1509D02*
X357Y1509D01*
X586Y1509D02*
X593Y1509D01*
X1531Y1509D02*
X1538Y1509D01*
X1767Y1509D02*
X1774Y1509D01*
X350Y1508D02*
X357Y1508D01*
X586Y1508D02*
X593Y1508D01*
X1531Y1508D02*
X1538Y1508D01*
X1767Y1508D02*
X1774Y1508D01*
X350Y1507D02*
X357Y1507D01*
X586Y1507D02*
X593Y1507D01*
X1531Y1507D02*
X1538Y1507D01*
X1767Y1507D02*
X1774Y1507D01*
X350Y1506D02*
X357Y1506D01*
X586Y1506D02*
X593Y1506D01*
X1531Y1506D02*
X1538Y1506D01*
X1767Y1506D02*
X1774Y1506D01*
X350Y1505D02*
X357Y1505D01*
X586Y1505D02*
X593Y1505D01*
X1531Y1505D02*
X1538Y1505D01*
X1767Y1505D02*
X1774Y1505D01*
X350Y1504D02*
X357Y1504D01*
X586Y1504D02*
X593Y1504D01*
X1531Y1504D02*
X1538Y1504D01*
X1767Y1504D02*
X1774Y1504D01*
X350Y1503D02*
X357Y1503D01*
X586Y1503D02*
X593Y1503D01*
X1531Y1503D02*
X1538Y1503D01*
X1767Y1503D02*
X1774Y1503D01*
X350Y1502D02*
X357Y1502D01*
X586Y1502D02*
X593Y1502D01*
X1531Y1502D02*
X1538Y1502D01*
X1767Y1502D02*
X1774Y1502D01*
X350Y1501D02*
X357Y1501D01*
X586Y1501D02*
X593Y1501D01*
X1531Y1501D02*
X1538Y1501D01*
X1767Y1501D02*
X1774Y1501D01*
X350Y1500D02*
X357Y1500D01*
X586Y1500D02*
X593Y1500D01*
X1531Y1500D02*
X1538Y1500D01*
X1767Y1500D02*
X1774Y1500D01*
X350Y1499D02*
X357Y1499D01*
X586Y1499D02*
X593Y1499D01*
X1531Y1499D02*
X1538Y1499D01*
X1767Y1499D02*
X1774Y1499D01*
X350Y1498D02*
X357Y1498D01*
X586Y1498D02*
X593Y1498D01*
X1531Y1498D02*
X1538Y1498D01*
X1767Y1498D02*
X1774Y1498D01*
X350Y1497D02*
X357Y1497D01*
X586Y1497D02*
X593Y1497D01*
X1531Y1497D02*
X1538Y1497D01*
X1767Y1497D02*
X1774Y1497D01*
X350Y1496D02*
X357Y1496D01*
X586Y1496D02*
X593Y1496D01*
X1531Y1496D02*
X1538Y1496D01*
X1767Y1496D02*
X1774Y1496D01*
X350Y1495D02*
X357Y1495D01*
X586Y1495D02*
X593Y1495D01*
X1531Y1495D02*
X1538Y1495D01*
X1767Y1495D02*
X1774Y1495D01*
X350Y1494D02*
X357Y1494D01*
X586Y1494D02*
X593Y1494D01*
X1531Y1494D02*
X1538Y1494D01*
X1767Y1494D02*
X1774Y1494D01*
X350Y1493D02*
X357Y1493D01*
X586Y1493D02*
X593Y1493D01*
X1531Y1493D02*
X1538Y1493D01*
X1767Y1493D02*
X1774Y1493D01*
X350Y1492D02*
X357Y1492D01*
X586Y1492D02*
X593Y1492D01*
X1531Y1492D02*
X1538Y1492D01*
X1767Y1492D02*
X1774Y1492D01*
X350Y1491D02*
X357Y1491D01*
X586Y1491D02*
X593Y1491D01*
X1531Y1491D02*
X1538Y1491D01*
X1767Y1491D02*
X1774Y1491D01*
X350Y1490D02*
X357Y1490D01*
X586Y1490D02*
X593Y1490D01*
X1531Y1490D02*
X1538Y1490D01*
X1767Y1490D02*
X1774Y1490D01*
X350Y1489D02*
X357Y1489D01*
X586Y1489D02*
X593Y1489D01*
X1531Y1489D02*
X1538Y1489D01*
X1767Y1489D02*
X1774Y1489D01*
X350Y1488D02*
X357Y1488D01*
X586Y1488D02*
X593Y1488D01*
X1531Y1488D02*
X1538Y1488D01*
X1767Y1488D02*
X1774Y1488D01*
X350Y1487D02*
X357Y1487D01*
X586Y1487D02*
X593Y1487D01*
X1531Y1487D02*
X1538Y1487D01*
X1767Y1487D02*
X1774Y1487D01*
X350Y1486D02*
X357Y1486D01*
X586Y1486D02*
X593Y1486D01*
X1531Y1486D02*
X1538Y1486D01*
X1767Y1486D02*
X1774Y1486D01*
X350Y1485D02*
X357Y1485D01*
X586Y1485D02*
X593Y1485D01*
X1531Y1485D02*
X1538Y1485D01*
X1767Y1485D02*
X1774Y1485D01*
X350Y1484D02*
X357Y1484D01*
X586Y1484D02*
X593Y1484D01*
X1531Y1484D02*
X1538Y1484D01*
X1767Y1484D02*
X1774Y1484D01*
X350Y1483D02*
X357Y1483D01*
X586Y1483D02*
X593Y1483D01*
X1531Y1483D02*
X1538Y1483D01*
X1767Y1483D02*
X1774Y1483D01*
X350Y1482D02*
X357Y1482D01*
X586Y1482D02*
X593Y1482D01*
X1531Y1482D02*
X1538Y1482D01*
X1767Y1482D02*
X1774Y1482D01*
X350Y1481D02*
X357Y1481D01*
X586Y1481D02*
X593Y1481D01*
X1531Y1481D02*
X1538Y1481D01*
X1767Y1481D02*
X1774Y1481D01*
X350Y1480D02*
X357Y1480D01*
X586Y1480D02*
X593Y1480D01*
X1531Y1480D02*
X1538Y1480D01*
X1767Y1480D02*
X1774Y1480D01*
X350Y1479D02*
X357Y1479D01*
X586Y1479D02*
X593Y1479D01*
X1531Y1479D02*
X1538Y1479D01*
X1767Y1479D02*
X1774Y1479D01*
X350Y1478D02*
X357Y1478D01*
X586Y1478D02*
X593Y1478D01*
X1531Y1478D02*
X1538Y1478D01*
X1767Y1478D02*
X1774Y1478D01*
X350Y1477D02*
X357Y1477D01*
X586Y1477D02*
X593Y1477D01*
X1531Y1477D02*
X1538Y1477D01*
X1767Y1477D02*
X1774Y1477D01*
X350Y1476D02*
X357Y1476D01*
X586Y1476D02*
X593Y1476D01*
X1531Y1476D02*
X1538Y1476D01*
X1767Y1476D02*
X1774Y1476D01*
X350Y1475D02*
X357Y1475D01*
X586Y1475D02*
X593Y1475D01*
X1531Y1475D02*
X1538Y1475D01*
X1767Y1475D02*
X1774Y1475D01*
X350Y1474D02*
X357Y1474D01*
X586Y1474D02*
X593Y1474D01*
X1531Y1474D02*
X1538Y1474D01*
X1767Y1474D02*
X1774Y1474D01*
X350Y1473D02*
X357Y1473D01*
X586Y1473D02*
X593Y1473D01*
X1531Y1473D02*
X1538Y1473D01*
X1767Y1473D02*
X1774Y1473D01*
X350Y1472D02*
X357Y1472D01*
X586Y1472D02*
X593Y1472D01*
X1531Y1472D02*
X1538Y1472D01*
X1767Y1472D02*
X1774Y1472D01*
X350Y1471D02*
X357Y1471D01*
X586Y1471D02*
X593Y1471D01*
X1531Y1471D02*
X1538Y1471D01*
X1767Y1471D02*
X1774Y1471D01*
X350Y1470D02*
X357Y1470D01*
X586Y1470D02*
X593Y1470D01*
X1531Y1470D02*
X1538Y1470D01*
X1767Y1470D02*
X1774Y1470D01*
X350Y1469D02*
X357Y1469D01*
X586Y1469D02*
X593Y1469D01*
X1531Y1469D02*
X1538Y1469D01*
X1767Y1469D02*
X1774Y1469D01*
X350Y1468D02*
X357Y1468D01*
X586Y1468D02*
X593Y1468D01*
X1531Y1468D02*
X1538Y1468D01*
X1767Y1468D02*
X1774Y1468D01*
X350Y1467D02*
X357Y1467D01*
X586Y1467D02*
X593Y1467D01*
X1531Y1467D02*
X1538Y1467D01*
X1767Y1467D02*
X1774Y1467D01*
X350Y1466D02*
X357Y1466D01*
X586Y1466D02*
X593Y1466D01*
X1531Y1466D02*
X1538Y1466D01*
X1767Y1466D02*
X1774Y1466D01*
X350Y1465D02*
X357Y1465D01*
X586Y1465D02*
X593Y1465D01*
X1531Y1465D02*
X1538Y1465D01*
X1767Y1465D02*
X1774Y1465D01*
X350Y1464D02*
X357Y1464D01*
X586Y1464D02*
X593Y1464D01*
X1531Y1464D02*
X1538Y1464D01*
X1767Y1464D02*
X1774Y1464D01*
X350Y1463D02*
X357Y1463D01*
X586Y1463D02*
X593Y1463D01*
X1531Y1463D02*
X1538Y1463D01*
X1767Y1463D02*
X1774Y1463D01*
X350Y1462D02*
X357Y1462D01*
X586Y1462D02*
X593Y1462D01*
X1531Y1462D02*
X1538Y1462D01*
X1767Y1462D02*
X1774Y1462D01*
X350Y1461D02*
X593Y1461D01*
X1531Y1461D02*
X1774Y1461D01*
X350Y1460D02*
X593Y1460D01*
X1531Y1460D02*
X1774Y1460D01*
X350Y1459D02*
X593Y1459D01*
X1531Y1459D02*
X1774Y1459D01*
X350Y1458D02*
X593Y1458D01*
X1531Y1458D02*
X1774Y1458D01*
X350Y1457D02*
X593Y1457D01*
X1531Y1457D02*
X1774Y1457D01*
X350Y1456D02*
X593Y1456D01*
X1531Y1456D02*
X1774Y1456D01*
X351Y1455D02*
X593Y1455D01*
X1531Y1455D02*
X1773Y1455D01*
X352Y1454D02*
X592Y1454D01*
X1532Y1454D02*
X1772Y1454D01*
X864Y1431D02*
X1260Y1431D01*
X863Y1430D02*
X938Y1430D01*
X1191Y1430D02*
X1261Y1430D01*
X862Y1429D02*
X937Y1429D01*
X1191Y1429D02*
X1262Y1429D01*
X862Y1428D02*
X937Y1428D01*
X1191Y1428D02*
X1262Y1428D01*
X862Y1427D02*
X937Y1427D01*
X1191Y1427D02*
X1262Y1427D01*
X862Y1426D02*
X937Y1426D01*
X1191Y1426D02*
X1262Y1426D01*
X862Y1425D02*
X937Y1425D01*
X1191Y1425D02*
X1262Y1425D01*
X862Y1424D02*
X937Y1424D01*
X1191Y1424D02*
X1262Y1424D01*
X862Y1423D02*
X869Y1423D01*
X1255Y1423D02*
X1262Y1423D01*
X862Y1422D02*
X869Y1422D01*
X1255Y1422D02*
X1262Y1422D01*
X862Y1421D02*
X869Y1421D01*
X1255Y1421D02*
X1262Y1421D01*
X862Y1420D02*
X869Y1420D01*
X1255Y1420D02*
X1262Y1420D01*
X862Y1419D02*
X869Y1419D01*
X1255Y1419D02*
X1262Y1419D01*
X862Y1418D02*
X869Y1418D01*
X1255Y1418D02*
X1262Y1418D01*
X862Y1417D02*
X869Y1417D01*
X1255Y1417D02*
X1262Y1417D01*
X862Y1416D02*
X869Y1416D01*
X1255Y1416D02*
X1262Y1416D01*
X862Y1415D02*
X869Y1415D01*
X1255Y1415D02*
X1262Y1415D01*
X862Y1414D02*
X869Y1414D01*
X1255Y1414D02*
X1262Y1414D01*
X862Y1413D02*
X869Y1413D01*
X1255Y1413D02*
X1262Y1413D01*
X862Y1412D02*
X869Y1412D01*
X1255Y1412D02*
X1262Y1412D01*
X862Y1411D02*
X869Y1411D01*
X1255Y1411D02*
X1262Y1411D01*
X862Y1410D02*
X869Y1410D01*
X1255Y1410D02*
X1262Y1410D01*
X862Y1409D02*
X869Y1409D01*
X1255Y1409D02*
X1262Y1409D01*
X862Y1408D02*
X869Y1408D01*
X1255Y1408D02*
X1262Y1408D01*
X862Y1407D02*
X869Y1407D01*
X1255Y1407D02*
X1262Y1407D01*
X862Y1406D02*
X869Y1406D01*
X1255Y1406D02*
X1262Y1406D01*
X862Y1405D02*
X869Y1405D01*
X1255Y1405D02*
X1262Y1405D01*
X862Y1404D02*
X869Y1404D01*
X1255Y1404D02*
X1262Y1404D01*
X862Y1403D02*
X869Y1403D01*
X1255Y1403D02*
X1262Y1403D01*
X862Y1402D02*
X869Y1402D01*
X1255Y1402D02*
X1262Y1402D01*
X862Y1401D02*
X869Y1401D01*
X1255Y1401D02*
X1262Y1401D01*
X862Y1400D02*
X869Y1400D01*
X1255Y1400D02*
X1262Y1400D01*
X862Y1399D02*
X869Y1399D01*
X1255Y1399D02*
X1262Y1399D01*
X862Y1398D02*
X869Y1398D01*
X1255Y1398D02*
X1262Y1398D01*
X862Y1397D02*
X869Y1397D01*
X1255Y1397D02*
X1262Y1397D01*
X862Y1396D02*
X869Y1396D01*
X1255Y1396D02*
X1262Y1396D01*
X862Y1395D02*
X869Y1395D01*
X1255Y1395D02*
X1262Y1395D01*
X862Y1394D02*
X869Y1394D01*
X1255Y1394D02*
X1262Y1394D01*
X862Y1393D02*
X869Y1393D01*
X1255Y1393D02*
X1262Y1393D01*
X862Y1392D02*
X869Y1392D01*
X1255Y1392D02*
X1262Y1392D01*
X862Y1391D02*
X869Y1391D01*
X1255Y1391D02*
X1262Y1391D01*
X862Y1390D02*
X869Y1390D01*
X1255Y1390D02*
X1262Y1390D01*
X862Y1389D02*
X869Y1389D01*
X1255Y1389D02*
X1262Y1389D01*
X862Y1388D02*
X869Y1388D01*
X1255Y1388D02*
X1262Y1388D01*
X862Y1387D02*
X869Y1387D01*
X1255Y1387D02*
X1262Y1387D01*
X862Y1386D02*
X869Y1386D01*
X1255Y1386D02*
X1262Y1386D01*
X862Y1385D02*
X869Y1385D01*
X1255Y1385D02*
X1262Y1385D01*
X862Y1384D02*
X869Y1384D01*
X1255Y1384D02*
X1262Y1384D01*
X862Y1383D02*
X869Y1383D01*
X1255Y1383D02*
X1262Y1383D01*
X862Y1382D02*
X869Y1382D01*
X1255Y1382D02*
X1262Y1382D01*
X862Y1381D02*
X869Y1381D01*
X1255Y1381D02*
X1262Y1381D01*
X862Y1380D02*
X869Y1380D01*
X1255Y1380D02*
X1262Y1380D01*
X862Y1379D02*
X869Y1379D01*
X1255Y1379D02*
X1262Y1379D01*
X862Y1378D02*
X869Y1378D01*
X1255Y1378D02*
X1262Y1378D01*
X862Y1377D02*
X869Y1377D01*
X1255Y1377D02*
X1262Y1377D01*
X862Y1376D02*
X869Y1376D01*
X1255Y1376D02*
X1262Y1376D01*
X862Y1375D02*
X869Y1375D01*
X1255Y1375D02*
X1262Y1375D01*
X862Y1374D02*
X869Y1374D01*
X1255Y1374D02*
X1262Y1374D01*
X862Y1373D02*
X869Y1373D01*
X1255Y1373D02*
X1262Y1373D01*
X862Y1372D02*
X869Y1372D01*
X925Y1372D02*
X937Y1372D01*
X1191Y1372D02*
X1203Y1372D01*
X1255Y1372D02*
X1262Y1372D01*
X862Y1371D02*
X869Y1371D01*
X924Y1371D02*
X937Y1371D01*
X1191Y1371D02*
X1204Y1371D01*
X1255Y1371D02*
X1262Y1371D01*
X862Y1370D02*
X869Y1370D01*
X924Y1370D02*
X1204Y1370D01*
X1255Y1370D02*
X1262Y1370D01*
X862Y1369D02*
X869Y1369D01*
X924Y1369D02*
X1205Y1369D01*
X1255Y1369D02*
X1262Y1369D01*
X862Y1368D02*
X869Y1368D01*
X924Y1368D02*
X1205Y1368D01*
X1255Y1368D02*
X1262Y1368D01*
X862Y1367D02*
X869Y1367D01*
X924Y1367D02*
X1205Y1367D01*
X1255Y1367D02*
X1262Y1367D01*
X862Y1366D02*
X869Y1366D01*
X924Y1366D02*
X929Y1366D01*
X1200Y1366D02*
X1205Y1366D01*
X1255Y1366D02*
X1262Y1366D01*
X862Y1365D02*
X869Y1365D01*
X924Y1365D02*
X929Y1365D01*
X1200Y1365D02*
X1205Y1365D01*
X1255Y1365D02*
X1262Y1365D01*
X862Y1364D02*
X869Y1364D01*
X924Y1364D02*
X929Y1364D01*
X1200Y1364D02*
X1205Y1364D01*
X1255Y1364D02*
X1262Y1364D01*
X862Y1363D02*
X869Y1363D01*
X924Y1363D02*
X929Y1363D01*
X1200Y1363D02*
X1205Y1363D01*
X1255Y1363D02*
X1262Y1363D01*
X862Y1362D02*
X869Y1362D01*
X924Y1362D02*
X929Y1362D01*
X1200Y1362D02*
X1205Y1362D01*
X1255Y1362D02*
X1262Y1362D01*
X862Y1361D02*
X869Y1361D01*
X924Y1361D02*
X929Y1361D01*
X1200Y1361D02*
X1205Y1361D01*
X1255Y1361D02*
X1262Y1361D01*
X862Y1360D02*
X869Y1360D01*
X924Y1360D02*
X929Y1360D01*
X1200Y1360D02*
X1205Y1360D01*
X1255Y1360D02*
X1262Y1360D01*
X862Y1359D02*
X869Y1359D01*
X924Y1359D02*
X929Y1359D01*
X1200Y1359D02*
X1205Y1359D01*
X1255Y1359D02*
X1262Y1359D01*
X862Y1358D02*
X869Y1358D01*
X924Y1358D02*
X929Y1358D01*
X1200Y1358D02*
X1205Y1358D01*
X1255Y1358D02*
X1262Y1358D01*
X862Y1357D02*
X865Y1357D01*
X926Y1357D02*
X929Y1357D01*
X1200Y1357D02*
X1203Y1357D01*
X862Y1356D02*
X865Y1356D01*
X926Y1356D02*
X929Y1356D01*
X1200Y1356D02*
X1203Y1356D01*
X862Y1355D02*
X865Y1355D01*
X926Y1355D02*
X929Y1355D01*
X1200Y1355D02*
X1203Y1355D01*
X862Y1354D02*
X865Y1354D01*
X926Y1354D02*
X929Y1354D01*
X1200Y1354D02*
X1203Y1354D01*
X862Y1353D02*
X865Y1353D01*
X926Y1353D02*
X929Y1353D01*
X1200Y1353D02*
X1203Y1353D01*
X862Y1352D02*
X865Y1352D01*
X926Y1352D02*
X929Y1352D01*
X1200Y1352D02*
X1203Y1352D01*
X862Y1351D02*
X865Y1351D01*
X926Y1351D02*
X929Y1351D01*
X1200Y1351D02*
X1203Y1351D01*
X862Y1350D02*
X865Y1350D01*
X926Y1350D02*
X929Y1350D01*
X1200Y1350D02*
X1203Y1350D01*
X862Y1349D02*
X865Y1349D01*
X926Y1349D02*
X929Y1349D01*
X1200Y1349D02*
X1203Y1349D01*
X862Y1348D02*
X865Y1348D01*
X926Y1348D02*
X929Y1348D01*
X1200Y1348D02*
X1203Y1348D01*
X862Y1347D02*
X865Y1347D01*
X926Y1347D02*
X929Y1347D01*
X1200Y1347D02*
X1203Y1347D01*
X862Y1346D02*
X865Y1346D01*
X926Y1346D02*
X929Y1346D01*
X1200Y1346D02*
X1203Y1346D01*
X862Y1345D02*
X865Y1345D01*
X926Y1345D02*
X929Y1345D01*
X1200Y1345D02*
X1203Y1345D01*
X862Y1344D02*
X865Y1344D01*
X926Y1344D02*
X929Y1344D01*
X1200Y1344D02*
X1203Y1344D01*
X862Y1343D02*
X865Y1343D01*
X926Y1343D02*
X929Y1343D01*
X1200Y1343D02*
X1203Y1343D01*
X411Y1342D02*
X533Y1342D01*
X862Y1342D02*
X865Y1342D01*
X926Y1342D02*
X929Y1342D01*
X1200Y1342D02*
X1203Y1342D01*
X1591Y1342D02*
X1713Y1342D01*
X410Y1341D02*
X534Y1341D01*
X862Y1341D02*
X865Y1341D01*
X926Y1341D02*
X929Y1341D01*
X1200Y1341D02*
X1203Y1341D01*
X1590Y1341D02*
X1714Y1341D01*
X409Y1340D02*
X534Y1340D01*
X862Y1340D02*
X865Y1340D01*
X926Y1340D02*
X929Y1340D01*
X1200Y1340D02*
X1203Y1340D01*
X1590Y1340D02*
X1715Y1340D01*
X409Y1339D02*
X534Y1339D01*
X862Y1339D02*
X865Y1339D01*
X926Y1339D02*
X929Y1339D01*
X1200Y1339D02*
X1203Y1339D01*
X1590Y1339D02*
X1715Y1339D01*
X409Y1338D02*
X534Y1338D01*
X862Y1338D02*
X865Y1338D01*
X926Y1338D02*
X929Y1338D01*
X1200Y1338D02*
X1203Y1338D01*
X1590Y1338D02*
X1715Y1338D01*
X409Y1337D02*
X534Y1337D01*
X862Y1337D02*
X865Y1337D01*
X926Y1337D02*
X929Y1337D01*
X1200Y1337D02*
X1203Y1337D01*
X1590Y1337D02*
X1715Y1337D01*
X409Y1336D02*
X534Y1336D01*
X862Y1336D02*
X865Y1336D01*
X926Y1336D02*
X929Y1336D01*
X1200Y1336D02*
X1203Y1336D01*
X1590Y1336D02*
X1715Y1336D01*
X409Y1335D02*
X534Y1335D01*
X862Y1335D02*
X865Y1335D01*
X926Y1335D02*
X929Y1335D01*
X1200Y1335D02*
X1203Y1335D01*
X1590Y1335D02*
X1715Y1335D01*
X409Y1334D02*
X416Y1334D01*
X527Y1334D02*
X534Y1334D01*
X862Y1334D02*
X865Y1334D01*
X926Y1334D02*
X929Y1334D01*
X1200Y1334D02*
X1203Y1334D01*
X1590Y1334D02*
X1597Y1334D01*
X1708Y1334D02*
X1715Y1334D01*
X409Y1333D02*
X416Y1333D01*
X527Y1333D02*
X534Y1333D01*
X862Y1333D02*
X865Y1333D01*
X926Y1333D02*
X929Y1333D01*
X1200Y1333D02*
X1203Y1333D01*
X1590Y1333D02*
X1597Y1333D01*
X1708Y1333D02*
X1715Y1333D01*
X409Y1332D02*
X416Y1332D01*
X527Y1332D02*
X534Y1332D01*
X862Y1332D02*
X865Y1332D01*
X926Y1332D02*
X929Y1332D01*
X1200Y1332D02*
X1203Y1332D01*
X1590Y1332D02*
X1597Y1332D01*
X1708Y1332D02*
X1715Y1332D01*
X409Y1331D02*
X416Y1331D01*
X527Y1331D02*
X534Y1331D01*
X862Y1331D02*
X865Y1331D01*
X926Y1331D02*
X929Y1331D01*
X1200Y1331D02*
X1203Y1331D01*
X1590Y1331D02*
X1597Y1331D01*
X1708Y1331D02*
X1715Y1331D01*
X409Y1330D02*
X416Y1330D01*
X527Y1330D02*
X534Y1330D01*
X862Y1330D02*
X865Y1330D01*
X926Y1330D02*
X929Y1330D01*
X1200Y1330D02*
X1203Y1330D01*
X1590Y1330D02*
X1597Y1330D01*
X1708Y1330D02*
X1715Y1330D01*
X409Y1329D02*
X416Y1329D01*
X527Y1329D02*
X534Y1329D01*
X862Y1329D02*
X865Y1329D01*
X926Y1329D02*
X929Y1329D01*
X1200Y1329D02*
X1203Y1329D01*
X1590Y1329D02*
X1597Y1329D01*
X1708Y1329D02*
X1715Y1329D01*
X409Y1328D02*
X416Y1328D01*
X527Y1328D02*
X534Y1328D01*
X862Y1328D02*
X865Y1328D01*
X926Y1328D02*
X929Y1328D01*
X1200Y1328D02*
X1203Y1328D01*
X1590Y1328D02*
X1597Y1328D01*
X1708Y1328D02*
X1715Y1328D01*
X409Y1327D02*
X416Y1327D01*
X527Y1327D02*
X534Y1327D01*
X862Y1327D02*
X865Y1327D01*
X926Y1327D02*
X929Y1327D01*
X1200Y1327D02*
X1203Y1327D01*
X1590Y1327D02*
X1597Y1327D01*
X1708Y1327D02*
X1715Y1327D01*
X409Y1326D02*
X416Y1326D01*
X527Y1326D02*
X534Y1326D01*
X862Y1326D02*
X865Y1326D01*
X926Y1326D02*
X929Y1326D01*
X1200Y1326D02*
X1203Y1326D01*
X1590Y1326D02*
X1597Y1326D01*
X1708Y1326D02*
X1715Y1326D01*
X409Y1325D02*
X416Y1325D01*
X527Y1325D02*
X534Y1325D01*
X862Y1325D02*
X865Y1325D01*
X926Y1325D02*
X929Y1325D01*
X1200Y1325D02*
X1203Y1325D01*
X1590Y1325D02*
X1597Y1325D01*
X1708Y1325D02*
X1715Y1325D01*
X409Y1324D02*
X416Y1324D01*
X527Y1324D02*
X534Y1324D01*
X862Y1324D02*
X865Y1324D01*
X926Y1324D02*
X929Y1324D01*
X1200Y1324D02*
X1203Y1324D01*
X1590Y1324D02*
X1597Y1324D01*
X1708Y1324D02*
X1715Y1324D01*
X409Y1323D02*
X416Y1323D01*
X527Y1323D02*
X534Y1323D01*
X862Y1323D02*
X865Y1323D01*
X926Y1323D02*
X929Y1323D01*
X1200Y1323D02*
X1203Y1323D01*
X1590Y1323D02*
X1597Y1323D01*
X1708Y1323D02*
X1715Y1323D01*
X409Y1322D02*
X416Y1322D01*
X527Y1322D02*
X534Y1322D01*
X862Y1322D02*
X865Y1322D01*
X926Y1322D02*
X929Y1322D01*
X1200Y1322D02*
X1203Y1322D01*
X1590Y1322D02*
X1597Y1322D01*
X1708Y1322D02*
X1715Y1322D01*
X409Y1321D02*
X416Y1321D01*
X527Y1321D02*
X534Y1321D01*
X862Y1321D02*
X865Y1321D01*
X926Y1321D02*
X929Y1321D01*
X1200Y1321D02*
X1203Y1321D01*
X1590Y1321D02*
X1597Y1321D01*
X1708Y1321D02*
X1715Y1321D01*
X409Y1320D02*
X416Y1320D01*
X527Y1320D02*
X534Y1320D01*
X862Y1320D02*
X865Y1320D01*
X926Y1320D02*
X929Y1320D01*
X1200Y1320D02*
X1203Y1320D01*
X1590Y1320D02*
X1597Y1320D01*
X1708Y1320D02*
X1715Y1320D01*
X409Y1319D02*
X416Y1319D01*
X527Y1319D02*
X534Y1319D01*
X862Y1319D02*
X865Y1319D01*
X926Y1319D02*
X929Y1319D01*
X1200Y1319D02*
X1203Y1319D01*
X1590Y1319D02*
X1597Y1319D01*
X1708Y1319D02*
X1715Y1319D01*
X409Y1318D02*
X416Y1318D01*
X527Y1318D02*
X534Y1318D01*
X862Y1318D02*
X865Y1318D01*
X926Y1318D02*
X929Y1318D01*
X1200Y1318D02*
X1203Y1318D01*
X1590Y1318D02*
X1597Y1318D01*
X1708Y1318D02*
X1715Y1318D01*
X409Y1317D02*
X416Y1317D01*
X527Y1317D02*
X534Y1317D01*
X862Y1317D02*
X865Y1317D01*
X926Y1317D02*
X929Y1317D01*
X1200Y1317D02*
X1203Y1317D01*
X1590Y1317D02*
X1597Y1317D01*
X1708Y1317D02*
X1715Y1317D01*
X409Y1316D02*
X416Y1316D01*
X527Y1316D02*
X534Y1316D01*
X862Y1316D02*
X865Y1316D01*
X926Y1316D02*
X929Y1316D01*
X1200Y1316D02*
X1203Y1316D01*
X1590Y1316D02*
X1597Y1316D01*
X1708Y1316D02*
X1715Y1316D01*
X409Y1315D02*
X416Y1315D01*
X527Y1315D02*
X534Y1315D01*
X862Y1315D02*
X865Y1315D01*
X926Y1315D02*
X929Y1315D01*
X1200Y1315D02*
X1203Y1315D01*
X1590Y1315D02*
X1597Y1315D01*
X1708Y1315D02*
X1715Y1315D01*
X409Y1314D02*
X416Y1314D01*
X527Y1314D02*
X534Y1314D01*
X862Y1314D02*
X865Y1314D01*
X926Y1314D02*
X929Y1314D01*
X1200Y1314D02*
X1203Y1314D01*
X1590Y1314D02*
X1597Y1314D01*
X1708Y1314D02*
X1715Y1314D01*
X409Y1313D02*
X416Y1313D01*
X527Y1313D02*
X534Y1313D01*
X862Y1313D02*
X865Y1313D01*
X926Y1313D02*
X929Y1313D01*
X1200Y1313D02*
X1203Y1313D01*
X1590Y1313D02*
X1597Y1313D01*
X1708Y1313D02*
X1715Y1313D01*
X409Y1312D02*
X416Y1312D01*
X527Y1312D02*
X534Y1312D01*
X862Y1312D02*
X865Y1312D01*
X926Y1312D02*
X929Y1312D01*
X1200Y1312D02*
X1203Y1312D01*
X1590Y1312D02*
X1597Y1312D01*
X1708Y1312D02*
X1715Y1312D01*
X409Y1311D02*
X416Y1311D01*
X527Y1311D02*
X534Y1311D01*
X862Y1311D02*
X865Y1311D01*
X926Y1311D02*
X929Y1311D01*
X1200Y1311D02*
X1203Y1311D01*
X1590Y1311D02*
X1597Y1311D01*
X1708Y1311D02*
X1715Y1311D01*
X409Y1310D02*
X416Y1310D01*
X527Y1310D02*
X534Y1310D01*
X862Y1310D02*
X865Y1310D01*
X926Y1310D02*
X929Y1310D01*
X1200Y1310D02*
X1203Y1310D01*
X1590Y1310D02*
X1597Y1310D01*
X1708Y1310D02*
X1715Y1310D01*
X409Y1309D02*
X416Y1309D01*
X527Y1309D02*
X534Y1309D01*
X862Y1309D02*
X865Y1309D01*
X926Y1309D02*
X929Y1309D01*
X1200Y1309D02*
X1203Y1309D01*
X1590Y1309D02*
X1597Y1309D01*
X1708Y1309D02*
X1715Y1309D01*
X409Y1308D02*
X416Y1308D01*
X527Y1308D02*
X534Y1308D01*
X862Y1308D02*
X865Y1308D01*
X926Y1308D02*
X929Y1308D01*
X1200Y1308D02*
X1203Y1308D01*
X1590Y1308D02*
X1597Y1308D01*
X1708Y1308D02*
X1715Y1308D01*
X409Y1307D02*
X416Y1307D01*
X527Y1307D02*
X534Y1307D01*
X862Y1307D02*
X865Y1307D01*
X926Y1307D02*
X929Y1307D01*
X1200Y1307D02*
X1203Y1307D01*
X1590Y1307D02*
X1597Y1307D01*
X1708Y1307D02*
X1715Y1307D01*
X409Y1306D02*
X416Y1306D01*
X527Y1306D02*
X534Y1306D01*
X862Y1306D02*
X865Y1306D01*
X926Y1306D02*
X929Y1306D01*
X1200Y1306D02*
X1203Y1306D01*
X1590Y1306D02*
X1597Y1306D01*
X1708Y1306D02*
X1715Y1306D01*
X409Y1305D02*
X416Y1305D01*
X527Y1305D02*
X534Y1305D01*
X862Y1305D02*
X865Y1305D01*
X926Y1305D02*
X929Y1305D01*
X1200Y1305D02*
X1203Y1305D01*
X1590Y1305D02*
X1597Y1305D01*
X1708Y1305D02*
X1715Y1305D01*
X409Y1304D02*
X416Y1304D01*
X527Y1304D02*
X534Y1304D01*
X862Y1304D02*
X865Y1304D01*
X926Y1304D02*
X929Y1304D01*
X1200Y1304D02*
X1203Y1304D01*
X1590Y1304D02*
X1597Y1304D01*
X1708Y1304D02*
X1715Y1304D01*
X409Y1303D02*
X416Y1303D01*
X527Y1303D02*
X534Y1303D01*
X862Y1303D02*
X865Y1303D01*
X926Y1303D02*
X929Y1303D01*
X1200Y1303D02*
X1203Y1303D01*
X1590Y1303D02*
X1597Y1303D01*
X1708Y1303D02*
X1715Y1303D01*
X409Y1302D02*
X416Y1302D01*
X527Y1302D02*
X534Y1302D01*
X862Y1302D02*
X865Y1302D01*
X926Y1302D02*
X929Y1302D01*
X1200Y1302D02*
X1203Y1302D01*
X1590Y1302D02*
X1597Y1302D01*
X1708Y1302D02*
X1715Y1302D01*
X409Y1301D02*
X416Y1301D01*
X527Y1301D02*
X534Y1301D01*
X862Y1301D02*
X865Y1301D01*
X926Y1301D02*
X929Y1301D01*
X1200Y1301D02*
X1203Y1301D01*
X1590Y1301D02*
X1597Y1301D01*
X1708Y1301D02*
X1715Y1301D01*
X409Y1300D02*
X416Y1300D01*
X527Y1300D02*
X534Y1300D01*
X862Y1300D02*
X865Y1300D01*
X926Y1300D02*
X929Y1300D01*
X1200Y1300D02*
X1203Y1300D01*
X1590Y1300D02*
X1597Y1300D01*
X1708Y1300D02*
X1715Y1300D01*
X409Y1299D02*
X416Y1299D01*
X527Y1299D02*
X534Y1299D01*
X862Y1299D02*
X865Y1299D01*
X926Y1299D02*
X929Y1299D01*
X1200Y1299D02*
X1203Y1299D01*
X1590Y1299D02*
X1597Y1299D01*
X1708Y1299D02*
X1715Y1299D01*
X409Y1298D02*
X416Y1298D01*
X527Y1298D02*
X534Y1298D01*
X862Y1298D02*
X865Y1298D01*
X926Y1298D02*
X929Y1298D01*
X1200Y1298D02*
X1203Y1298D01*
X1590Y1298D02*
X1597Y1298D01*
X1708Y1298D02*
X1715Y1298D01*
X409Y1297D02*
X416Y1297D01*
X527Y1297D02*
X534Y1297D01*
X862Y1297D02*
X865Y1297D01*
X926Y1297D02*
X929Y1297D01*
X1200Y1297D02*
X1203Y1297D01*
X1590Y1297D02*
X1597Y1297D01*
X1708Y1297D02*
X1715Y1297D01*
X409Y1296D02*
X416Y1296D01*
X527Y1296D02*
X534Y1296D01*
X862Y1296D02*
X865Y1296D01*
X926Y1296D02*
X929Y1296D01*
X1200Y1296D02*
X1203Y1296D01*
X1590Y1296D02*
X1597Y1296D01*
X1708Y1296D02*
X1715Y1296D01*
X409Y1295D02*
X416Y1295D01*
X527Y1295D02*
X534Y1295D01*
X862Y1295D02*
X865Y1295D01*
X926Y1295D02*
X929Y1295D01*
X1200Y1295D02*
X1203Y1295D01*
X1590Y1295D02*
X1597Y1295D01*
X1708Y1295D02*
X1715Y1295D01*
X409Y1294D02*
X416Y1294D01*
X527Y1294D02*
X534Y1294D01*
X862Y1294D02*
X865Y1294D01*
X926Y1294D02*
X929Y1294D01*
X1200Y1294D02*
X1203Y1294D01*
X1590Y1294D02*
X1597Y1294D01*
X1708Y1294D02*
X1715Y1294D01*
X409Y1293D02*
X416Y1293D01*
X527Y1293D02*
X534Y1293D01*
X862Y1293D02*
X865Y1293D01*
X926Y1293D02*
X929Y1293D01*
X1200Y1293D02*
X1203Y1293D01*
X1590Y1293D02*
X1597Y1293D01*
X1708Y1293D02*
X1715Y1293D01*
X409Y1292D02*
X416Y1292D01*
X527Y1292D02*
X534Y1292D01*
X862Y1292D02*
X865Y1292D01*
X926Y1292D02*
X929Y1292D01*
X1200Y1292D02*
X1203Y1292D01*
X1590Y1292D02*
X1597Y1292D01*
X1708Y1292D02*
X1715Y1292D01*
X409Y1291D02*
X416Y1291D01*
X527Y1291D02*
X534Y1291D01*
X862Y1291D02*
X865Y1291D01*
X926Y1291D02*
X929Y1291D01*
X1200Y1291D02*
X1203Y1291D01*
X1590Y1291D02*
X1597Y1291D01*
X1708Y1291D02*
X1715Y1291D01*
X409Y1290D02*
X416Y1290D01*
X527Y1290D02*
X534Y1290D01*
X862Y1290D02*
X865Y1290D01*
X926Y1290D02*
X929Y1290D01*
X1200Y1290D02*
X1203Y1290D01*
X1590Y1290D02*
X1597Y1290D01*
X1708Y1290D02*
X1715Y1290D01*
X409Y1289D02*
X416Y1289D01*
X527Y1289D02*
X534Y1289D01*
X862Y1289D02*
X865Y1289D01*
X926Y1289D02*
X929Y1289D01*
X1200Y1289D02*
X1203Y1289D01*
X1590Y1289D02*
X1597Y1289D01*
X1708Y1289D02*
X1715Y1289D01*
X409Y1288D02*
X416Y1288D01*
X527Y1288D02*
X534Y1288D01*
X862Y1288D02*
X865Y1288D01*
X926Y1288D02*
X929Y1288D01*
X1200Y1288D02*
X1203Y1288D01*
X1590Y1288D02*
X1597Y1288D01*
X1708Y1288D02*
X1715Y1288D01*
X409Y1287D02*
X416Y1287D01*
X527Y1287D02*
X534Y1287D01*
X862Y1287D02*
X865Y1287D01*
X926Y1287D02*
X929Y1287D01*
X1200Y1287D02*
X1203Y1287D01*
X1590Y1287D02*
X1597Y1287D01*
X1708Y1287D02*
X1715Y1287D01*
X409Y1286D02*
X416Y1286D01*
X527Y1286D02*
X534Y1286D01*
X862Y1286D02*
X865Y1286D01*
X926Y1286D02*
X929Y1286D01*
X1200Y1286D02*
X1203Y1286D01*
X1590Y1286D02*
X1597Y1286D01*
X1708Y1286D02*
X1715Y1286D01*
X409Y1285D02*
X416Y1285D01*
X527Y1285D02*
X534Y1285D01*
X862Y1285D02*
X865Y1285D01*
X926Y1285D02*
X929Y1285D01*
X1200Y1285D02*
X1203Y1285D01*
X1590Y1285D02*
X1597Y1285D01*
X1708Y1285D02*
X1715Y1285D01*
X409Y1284D02*
X416Y1284D01*
X527Y1284D02*
X534Y1284D01*
X862Y1284D02*
X865Y1284D01*
X926Y1284D02*
X929Y1284D01*
X1200Y1284D02*
X1203Y1284D01*
X1590Y1284D02*
X1597Y1284D01*
X1708Y1284D02*
X1715Y1284D01*
X409Y1283D02*
X416Y1283D01*
X527Y1283D02*
X534Y1283D01*
X862Y1283D02*
X865Y1283D01*
X926Y1283D02*
X929Y1283D01*
X1200Y1283D02*
X1203Y1283D01*
X1590Y1283D02*
X1597Y1283D01*
X1708Y1283D02*
X1715Y1283D01*
X409Y1282D02*
X416Y1282D01*
X527Y1282D02*
X534Y1282D01*
X862Y1282D02*
X865Y1282D01*
X926Y1282D02*
X929Y1282D01*
X1200Y1282D02*
X1203Y1282D01*
X1590Y1282D02*
X1597Y1282D01*
X1708Y1282D02*
X1715Y1282D01*
X409Y1281D02*
X416Y1281D01*
X527Y1281D02*
X534Y1281D01*
X862Y1281D02*
X865Y1281D01*
X926Y1281D02*
X929Y1281D01*
X1200Y1281D02*
X1203Y1281D01*
X1590Y1281D02*
X1597Y1281D01*
X1708Y1281D02*
X1715Y1281D01*
X409Y1280D02*
X416Y1280D01*
X527Y1280D02*
X534Y1280D01*
X862Y1280D02*
X865Y1280D01*
X926Y1280D02*
X929Y1280D01*
X1200Y1280D02*
X1203Y1280D01*
X1590Y1280D02*
X1597Y1280D01*
X1708Y1280D02*
X1715Y1280D01*
X409Y1279D02*
X416Y1279D01*
X527Y1279D02*
X534Y1279D01*
X862Y1279D02*
X865Y1279D01*
X926Y1279D02*
X929Y1279D01*
X1200Y1279D02*
X1203Y1279D01*
X1590Y1279D02*
X1597Y1279D01*
X1708Y1279D02*
X1715Y1279D01*
X409Y1278D02*
X416Y1278D01*
X527Y1278D02*
X534Y1278D01*
X862Y1278D02*
X865Y1278D01*
X926Y1278D02*
X929Y1278D01*
X1200Y1278D02*
X1203Y1278D01*
X1590Y1278D02*
X1597Y1278D01*
X1708Y1278D02*
X1715Y1278D01*
X409Y1277D02*
X416Y1277D01*
X527Y1277D02*
X534Y1277D01*
X862Y1277D02*
X865Y1277D01*
X926Y1277D02*
X929Y1277D01*
X1200Y1277D02*
X1203Y1277D01*
X1590Y1277D02*
X1597Y1277D01*
X1708Y1277D02*
X1715Y1277D01*
X409Y1276D02*
X416Y1276D01*
X527Y1276D02*
X534Y1276D01*
X862Y1276D02*
X865Y1276D01*
X926Y1276D02*
X929Y1276D01*
X1200Y1276D02*
X1203Y1276D01*
X1590Y1276D02*
X1597Y1276D01*
X1708Y1276D02*
X1715Y1276D01*
X409Y1275D02*
X416Y1275D01*
X527Y1275D02*
X534Y1275D01*
X862Y1275D02*
X865Y1275D01*
X926Y1275D02*
X929Y1275D01*
X1200Y1275D02*
X1203Y1275D01*
X1590Y1275D02*
X1597Y1275D01*
X1708Y1275D02*
X1715Y1275D01*
X409Y1274D02*
X416Y1274D01*
X527Y1274D02*
X534Y1274D01*
X862Y1274D02*
X865Y1274D01*
X926Y1274D02*
X929Y1274D01*
X1200Y1274D02*
X1203Y1274D01*
X1590Y1274D02*
X1597Y1274D01*
X1708Y1274D02*
X1715Y1274D01*
X409Y1273D02*
X416Y1273D01*
X527Y1273D02*
X534Y1273D01*
X862Y1273D02*
X865Y1273D01*
X926Y1273D02*
X929Y1273D01*
X1200Y1273D02*
X1203Y1273D01*
X1590Y1273D02*
X1597Y1273D01*
X1708Y1273D02*
X1715Y1273D01*
X409Y1272D02*
X416Y1272D01*
X527Y1272D02*
X534Y1272D01*
X862Y1272D02*
X865Y1272D01*
X926Y1272D02*
X929Y1272D01*
X1200Y1272D02*
X1203Y1272D01*
X1590Y1272D02*
X1597Y1272D01*
X1708Y1272D02*
X1715Y1272D01*
X409Y1271D02*
X416Y1271D01*
X527Y1271D02*
X534Y1271D01*
X862Y1271D02*
X865Y1271D01*
X926Y1271D02*
X929Y1271D01*
X1200Y1271D02*
X1203Y1271D01*
X1590Y1271D02*
X1597Y1271D01*
X1708Y1271D02*
X1715Y1271D01*
X409Y1270D02*
X416Y1270D01*
X527Y1270D02*
X534Y1270D01*
X862Y1270D02*
X865Y1270D01*
X926Y1270D02*
X929Y1270D01*
X1200Y1270D02*
X1203Y1270D01*
X1590Y1270D02*
X1597Y1270D01*
X1708Y1270D02*
X1715Y1270D01*
X409Y1269D02*
X416Y1269D01*
X527Y1269D02*
X534Y1269D01*
X862Y1269D02*
X865Y1269D01*
X926Y1269D02*
X929Y1269D01*
X1200Y1269D02*
X1203Y1269D01*
X1590Y1269D02*
X1597Y1269D01*
X1708Y1269D02*
X1715Y1269D01*
X409Y1268D02*
X416Y1268D01*
X527Y1268D02*
X534Y1268D01*
X862Y1268D02*
X865Y1268D01*
X926Y1268D02*
X929Y1268D01*
X1200Y1268D02*
X1203Y1268D01*
X1590Y1268D02*
X1597Y1268D01*
X1708Y1268D02*
X1715Y1268D01*
X409Y1267D02*
X416Y1267D01*
X527Y1267D02*
X534Y1267D01*
X862Y1267D02*
X865Y1267D01*
X926Y1267D02*
X929Y1267D01*
X1200Y1267D02*
X1203Y1267D01*
X1590Y1267D02*
X1597Y1267D01*
X1708Y1267D02*
X1715Y1267D01*
X409Y1266D02*
X416Y1266D01*
X527Y1266D02*
X534Y1266D01*
X862Y1266D02*
X865Y1266D01*
X926Y1266D02*
X929Y1266D01*
X1200Y1266D02*
X1203Y1266D01*
X1590Y1266D02*
X1597Y1266D01*
X1708Y1266D02*
X1715Y1266D01*
X409Y1265D02*
X416Y1265D01*
X527Y1265D02*
X534Y1265D01*
X862Y1265D02*
X865Y1265D01*
X926Y1265D02*
X929Y1265D01*
X1200Y1265D02*
X1203Y1265D01*
X1590Y1265D02*
X1597Y1265D01*
X1708Y1265D02*
X1715Y1265D01*
X409Y1264D02*
X416Y1264D01*
X527Y1264D02*
X534Y1264D01*
X862Y1264D02*
X865Y1264D01*
X926Y1264D02*
X929Y1264D01*
X1200Y1264D02*
X1203Y1264D01*
X1590Y1264D02*
X1597Y1264D01*
X1708Y1264D02*
X1715Y1264D01*
X409Y1263D02*
X416Y1263D01*
X527Y1263D02*
X534Y1263D01*
X862Y1263D02*
X865Y1263D01*
X926Y1263D02*
X929Y1263D01*
X1200Y1263D02*
X1203Y1263D01*
X1590Y1263D02*
X1597Y1263D01*
X1708Y1263D02*
X1715Y1263D01*
X409Y1262D02*
X416Y1262D01*
X527Y1262D02*
X534Y1262D01*
X862Y1262D02*
X865Y1262D01*
X926Y1262D02*
X929Y1262D01*
X1200Y1262D02*
X1203Y1262D01*
X1590Y1262D02*
X1597Y1262D01*
X1708Y1262D02*
X1715Y1262D01*
X409Y1261D02*
X416Y1261D01*
X527Y1261D02*
X534Y1261D01*
X862Y1261D02*
X865Y1261D01*
X926Y1261D02*
X929Y1261D01*
X1200Y1261D02*
X1203Y1261D01*
X1590Y1261D02*
X1597Y1261D01*
X1708Y1261D02*
X1715Y1261D01*
X409Y1260D02*
X416Y1260D01*
X527Y1260D02*
X534Y1260D01*
X862Y1260D02*
X865Y1260D01*
X926Y1260D02*
X929Y1260D01*
X1200Y1260D02*
X1203Y1260D01*
X1590Y1260D02*
X1597Y1260D01*
X1708Y1260D02*
X1715Y1260D01*
X409Y1259D02*
X416Y1259D01*
X527Y1259D02*
X534Y1259D01*
X862Y1259D02*
X865Y1259D01*
X926Y1259D02*
X929Y1259D01*
X1200Y1259D02*
X1203Y1259D01*
X1590Y1259D02*
X1597Y1259D01*
X1708Y1259D02*
X1715Y1259D01*
X409Y1258D02*
X416Y1258D01*
X527Y1258D02*
X534Y1258D01*
X862Y1258D02*
X865Y1258D01*
X926Y1258D02*
X929Y1258D01*
X1200Y1258D02*
X1203Y1258D01*
X1590Y1258D02*
X1597Y1258D01*
X1708Y1258D02*
X1715Y1258D01*
X409Y1257D02*
X416Y1257D01*
X527Y1257D02*
X534Y1257D01*
X862Y1257D02*
X865Y1257D01*
X926Y1257D02*
X929Y1257D01*
X1200Y1257D02*
X1203Y1257D01*
X1590Y1257D02*
X1597Y1257D01*
X1708Y1257D02*
X1715Y1257D01*
X409Y1256D02*
X416Y1256D01*
X527Y1256D02*
X534Y1256D01*
X862Y1256D02*
X865Y1256D01*
X926Y1256D02*
X929Y1256D01*
X1200Y1256D02*
X1203Y1256D01*
X1590Y1256D02*
X1597Y1256D01*
X1708Y1256D02*
X1715Y1256D01*
X409Y1255D02*
X416Y1255D01*
X527Y1255D02*
X534Y1255D01*
X862Y1255D02*
X865Y1255D01*
X926Y1255D02*
X929Y1255D01*
X1200Y1255D02*
X1203Y1255D01*
X1590Y1255D02*
X1597Y1255D01*
X1708Y1255D02*
X1715Y1255D01*
X409Y1254D02*
X416Y1254D01*
X527Y1254D02*
X534Y1254D01*
X862Y1254D02*
X865Y1254D01*
X926Y1254D02*
X929Y1254D01*
X1200Y1254D02*
X1203Y1254D01*
X1590Y1254D02*
X1597Y1254D01*
X1708Y1254D02*
X1715Y1254D01*
X409Y1253D02*
X416Y1253D01*
X527Y1253D02*
X534Y1253D01*
X862Y1253D02*
X865Y1253D01*
X926Y1253D02*
X929Y1253D01*
X1200Y1253D02*
X1203Y1253D01*
X1590Y1253D02*
X1597Y1253D01*
X1708Y1253D02*
X1715Y1253D01*
X409Y1252D02*
X416Y1252D01*
X527Y1252D02*
X534Y1252D01*
X862Y1252D02*
X865Y1252D01*
X926Y1252D02*
X929Y1252D01*
X1200Y1252D02*
X1203Y1252D01*
X1590Y1252D02*
X1597Y1252D01*
X1708Y1252D02*
X1715Y1252D01*
X409Y1251D02*
X416Y1251D01*
X527Y1251D02*
X534Y1251D01*
X862Y1251D02*
X865Y1251D01*
X926Y1251D02*
X929Y1251D01*
X1200Y1251D02*
X1203Y1251D01*
X1590Y1251D02*
X1597Y1251D01*
X1708Y1251D02*
X1715Y1251D01*
X409Y1250D02*
X416Y1250D01*
X527Y1250D02*
X534Y1250D01*
X862Y1250D02*
X865Y1250D01*
X926Y1250D02*
X929Y1250D01*
X1200Y1250D02*
X1203Y1250D01*
X1590Y1250D02*
X1597Y1250D01*
X1708Y1250D02*
X1715Y1250D01*
X409Y1249D02*
X416Y1249D01*
X527Y1249D02*
X534Y1249D01*
X862Y1249D02*
X865Y1249D01*
X926Y1249D02*
X929Y1249D01*
X1200Y1249D02*
X1203Y1249D01*
X1590Y1249D02*
X1597Y1249D01*
X1708Y1249D02*
X1715Y1249D01*
X409Y1248D02*
X416Y1248D01*
X527Y1248D02*
X534Y1248D01*
X862Y1248D02*
X865Y1248D01*
X926Y1248D02*
X929Y1248D01*
X1200Y1248D02*
X1203Y1248D01*
X1590Y1248D02*
X1597Y1248D01*
X1708Y1248D02*
X1715Y1248D01*
X409Y1247D02*
X416Y1247D01*
X527Y1247D02*
X534Y1247D01*
X862Y1247D02*
X865Y1247D01*
X926Y1247D02*
X929Y1247D01*
X1200Y1247D02*
X1203Y1247D01*
X1590Y1247D02*
X1597Y1247D01*
X1708Y1247D02*
X1715Y1247D01*
X409Y1246D02*
X416Y1246D01*
X527Y1246D02*
X534Y1246D01*
X862Y1246D02*
X865Y1246D01*
X926Y1246D02*
X929Y1246D01*
X1200Y1246D02*
X1203Y1246D01*
X1590Y1246D02*
X1597Y1246D01*
X1708Y1246D02*
X1715Y1246D01*
X409Y1245D02*
X416Y1245D01*
X527Y1245D02*
X534Y1245D01*
X862Y1245D02*
X865Y1245D01*
X926Y1245D02*
X929Y1245D01*
X1200Y1245D02*
X1203Y1245D01*
X1590Y1245D02*
X1597Y1245D01*
X1708Y1245D02*
X1715Y1245D01*
X409Y1244D02*
X416Y1244D01*
X527Y1244D02*
X534Y1244D01*
X862Y1244D02*
X865Y1244D01*
X926Y1244D02*
X929Y1244D01*
X1200Y1244D02*
X1203Y1244D01*
X1590Y1244D02*
X1597Y1244D01*
X1708Y1244D02*
X1715Y1244D01*
X409Y1243D02*
X416Y1243D01*
X527Y1243D02*
X534Y1243D01*
X862Y1243D02*
X865Y1243D01*
X926Y1243D02*
X929Y1243D01*
X1200Y1243D02*
X1203Y1243D01*
X1590Y1243D02*
X1597Y1243D01*
X1708Y1243D02*
X1715Y1243D01*
X409Y1242D02*
X416Y1242D01*
X527Y1242D02*
X534Y1242D01*
X862Y1242D02*
X865Y1242D01*
X926Y1242D02*
X929Y1242D01*
X1200Y1242D02*
X1203Y1242D01*
X1590Y1242D02*
X1597Y1242D01*
X1708Y1242D02*
X1715Y1242D01*
X409Y1241D02*
X416Y1241D01*
X527Y1241D02*
X534Y1241D01*
X862Y1241D02*
X865Y1241D01*
X926Y1241D02*
X929Y1241D01*
X1200Y1241D02*
X1203Y1241D01*
X1590Y1241D02*
X1597Y1241D01*
X1708Y1241D02*
X1715Y1241D01*
X409Y1240D02*
X416Y1240D01*
X527Y1240D02*
X534Y1240D01*
X862Y1240D02*
X865Y1240D01*
X926Y1240D02*
X929Y1240D01*
X1200Y1240D02*
X1203Y1240D01*
X1590Y1240D02*
X1597Y1240D01*
X1708Y1240D02*
X1715Y1240D01*
X409Y1239D02*
X416Y1239D01*
X527Y1239D02*
X534Y1239D01*
X862Y1239D02*
X865Y1239D01*
X926Y1239D02*
X929Y1239D01*
X1200Y1239D02*
X1203Y1239D01*
X1590Y1239D02*
X1597Y1239D01*
X1708Y1239D02*
X1715Y1239D01*
X409Y1238D02*
X416Y1238D01*
X527Y1238D02*
X534Y1238D01*
X862Y1238D02*
X865Y1238D01*
X926Y1238D02*
X929Y1238D01*
X1200Y1238D02*
X1203Y1238D01*
X1590Y1238D02*
X1597Y1238D01*
X1708Y1238D02*
X1715Y1238D01*
X409Y1237D02*
X416Y1237D01*
X527Y1237D02*
X534Y1237D01*
X862Y1237D02*
X865Y1237D01*
X926Y1237D02*
X929Y1237D01*
X1200Y1237D02*
X1203Y1237D01*
X1590Y1237D02*
X1597Y1237D01*
X1708Y1237D02*
X1715Y1237D01*
X409Y1236D02*
X416Y1236D01*
X527Y1236D02*
X534Y1236D01*
X862Y1236D02*
X865Y1236D01*
X926Y1236D02*
X929Y1236D01*
X1200Y1236D02*
X1203Y1236D01*
X1590Y1236D02*
X1597Y1236D01*
X1708Y1236D02*
X1715Y1236D01*
X409Y1235D02*
X416Y1235D01*
X527Y1235D02*
X534Y1235D01*
X862Y1235D02*
X865Y1235D01*
X926Y1235D02*
X929Y1235D01*
X1200Y1235D02*
X1203Y1235D01*
X1590Y1235D02*
X1597Y1235D01*
X1708Y1235D02*
X1715Y1235D01*
X409Y1234D02*
X416Y1234D01*
X527Y1234D02*
X534Y1234D01*
X862Y1234D02*
X865Y1234D01*
X926Y1234D02*
X929Y1234D01*
X1200Y1234D02*
X1203Y1234D01*
X1590Y1234D02*
X1597Y1234D01*
X1708Y1234D02*
X1715Y1234D01*
X409Y1233D02*
X416Y1233D01*
X527Y1233D02*
X534Y1233D01*
X862Y1233D02*
X865Y1233D01*
X926Y1233D02*
X929Y1233D01*
X1200Y1233D02*
X1203Y1233D01*
X1590Y1233D02*
X1597Y1233D01*
X1708Y1233D02*
X1715Y1233D01*
X409Y1232D02*
X416Y1232D01*
X527Y1232D02*
X534Y1232D01*
X862Y1232D02*
X865Y1232D01*
X926Y1232D02*
X929Y1232D01*
X1200Y1232D02*
X1203Y1232D01*
X1590Y1232D02*
X1597Y1232D01*
X1708Y1232D02*
X1715Y1232D01*
X409Y1231D02*
X416Y1231D01*
X527Y1231D02*
X534Y1231D01*
X862Y1231D02*
X865Y1231D01*
X926Y1231D02*
X929Y1231D01*
X1200Y1231D02*
X1203Y1231D01*
X1590Y1231D02*
X1597Y1231D01*
X1708Y1231D02*
X1715Y1231D01*
X409Y1230D02*
X416Y1230D01*
X527Y1230D02*
X534Y1230D01*
X862Y1230D02*
X865Y1230D01*
X926Y1230D02*
X929Y1230D01*
X1200Y1230D02*
X1203Y1230D01*
X1590Y1230D02*
X1597Y1230D01*
X1708Y1230D02*
X1715Y1230D01*
X409Y1229D02*
X416Y1229D01*
X527Y1229D02*
X534Y1229D01*
X862Y1229D02*
X865Y1229D01*
X926Y1229D02*
X929Y1229D01*
X1200Y1229D02*
X1203Y1229D01*
X1590Y1229D02*
X1597Y1229D01*
X1708Y1229D02*
X1715Y1229D01*
X409Y1228D02*
X416Y1228D01*
X527Y1228D02*
X534Y1228D01*
X862Y1228D02*
X865Y1228D01*
X926Y1228D02*
X929Y1228D01*
X1200Y1228D02*
X1203Y1228D01*
X1590Y1228D02*
X1597Y1228D01*
X1708Y1228D02*
X1715Y1228D01*
X409Y1227D02*
X416Y1227D01*
X527Y1227D02*
X534Y1227D01*
X862Y1227D02*
X865Y1227D01*
X926Y1227D02*
X929Y1227D01*
X1200Y1227D02*
X1203Y1227D01*
X1590Y1227D02*
X1597Y1227D01*
X1708Y1227D02*
X1715Y1227D01*
X409Y1226D02*
X416Y1226D01*
X527Y1226D02*
X534Y1226D01*
X862Y1226D02*
X865Y1226D01*
X926Y1226D02*
X929Y1226D01*
X1200Y1226D02*
X1203Y1226D01*
X1590Y1226D02*
X1597Y1226D01*
X1708Y1226D02*
X1715Y1226D01*
X409Y1225D02*
X416Y1225D01*
X527Y1225D02*
X534Y1225D01*
X862Y1225D02*
X865Y1225D01*
X926Y1225D02*
X929Y1225D01*
X1200Y1225D02*
X1203Y1225D01*
X1590Y1225D02*
X1597Y1225D01*
X1707Y1225D02*
X1715Y1225D01*
X409Y1224D02*
X534Y1224D01*
X862Y1224D02*
X865Y1224D01*
X926Y1224D02*
X929Y1224D01*
X1200Y1224D02*
X1203Y1224D01*
X1590Y1224D02*
X1715Y1224D01*
X409Y1223D02*
X534Y1223D01*
X862Y1223D02*
X865Y1223D01*
X926Y1223D02*
X929Y1223D01*
X1200Y1223D02*
X1203Y1223D01*
X1590Y1223D02*
X1715Y1223D01*
X409Y1222D02*
X534Y1222D01*
X862Y1222D02*
X865Y1222D01*
X926Y1222D02*
X929Y1222D01*
X1200Y1222D02*
X1203Y1222D01*
X1590Y1222D02*
X1715Y1222D01*
X409Y1221D02*
X534Y1221D01*
X862Y1221D02*
X865Y1221D01*
X926Y1221D02*
X929Y1221D01*
X1200Y1221D02*
X1203Y1221D01*
X1590Y1221D02*
X1715Y1221D01*
X409Y1220D02*
X534Y1220D01*
X862Y1220D02*
X865Y1220D01*
X926Y1220D02*
X929Y1220D01*
X1200Y1220D02*
X1203Y1220D01*
X1590Y1220D02*
X1715Y1220D01*
X410Y1219D02*
X534Y1219D01*
X862Y1219D02*
X865Y1219D01*
X926Y1219D02*
X929Y1219D01*
X1200Y1219D02*
X1203Y1219D01*
X1590Y1219D02*
X1714Y1219D01*
X410Y1218D02*
X533Y1218D01*
X862Y1218D02*
X865Y1218D01*
X926Y1218D02*
X929Y1218D01*
X1200Y1218D02*
X1203Y1218D01*
X1591Y1218D02*
X1714Y1218D01*
X412Y1217D02*
X531Y1217D01*
X862Y1217D02*
X865Y1217D01*
X926Y1217D02*
X929Y1217D01*
X1200Y1217D02*
X1203Y1217D01*
X1593Y1217D02*
X1712Y1217D01*
X862Y1216D02*
X865Y1216D01*
X926Y1216D02*
X929Y1216D01*
X1200Y1216D02*
X1203Y1216D01*
X862Y1215D02*
X865Y1215D01*
X926Y1215D02*
X929Y1215D01*
X1200Y1215D02*
X1203Y1215D01*
X862Y1214D02*
X865Y1214D01*
X926Y1214D02*
X929Y1214D01*
X1200Y1214D02*
X1203Y1214D01*
X862Y1213D02*
X865Y1213D01*
X926Y1213D02*
X929Y1213D01*
X1200Y1213D02*
X1203Y1213D01*
X862Y1212D02*
X865Y1212D01*
X926Y1212D02*
X929Y1212D01*
X1200Y1212D02*
X1203Y1212D01*
X862Y1211D02*
X865Y1211D01*
X926Y1211D02*
X929Y1211D01*
X1200Y1211D02*
X1203Y1211D01*
X862Y1210D02*
X865Y1210D01*
X926Y1210D02*
X929Y1210D01*
X1200Y1210D02*
X1203Y1210D01*
X862Y1209D02*
X865Y1209D01*
X926Y1209D02*
X929Y1209D01*
X1200Y1209D02*
X1203Y1209D01*
X862Y1208D02*
X865Y1208D01*
X926Y1208D02*
X929Y1208D01*
X1200Y1208D02*
X1203Y1208D01*
X862Y1207D02*
X865Y1207D01*
X926Y1207D02*
X929Y1207D01*
X1200Y1207D02*
X1203Y1207D01*
X862Y1206D02*
X865Y1206D01*
X926Y1206D02*
X929Y1206D01*
X1200Y1206D02*
X1203Y1206D01*
X862Y1205D02*
X865Y1205D01*
X926Y1205D02*
X929Y1205D01*
X1200Y1205D02*
X1203Y1205D01*
X862Y1204D02*
X865Y1204D01*
X926Y1204D02*
X929Y1204D01*
X1200Y1204D02*
X1203Y1204D01*
X862Y1203D02*
X865Y1203D01*
X926Y1203D02*
X929Y1203D01*
X1200Y1203D02*
X1203Y1203D01*
X862Y1202D02*
X865Y1202D01*
X926Y1202D02*
X929Y1202D01*
X1200Y1202D02*
X1203Y1202D01*
X862Y1201D02*
X865Y1201D01*
X926Y1201D02*
X929Y1201D01*
X1200Y1201D02*
X1203Y1201D01*
X862Y1200D02*
X865Y1200D01*
X926Y1200D02*
X929Y1200D01*
X1200Y1200D02*
X1203Y1200D01*
X862Y1199D02*
X865Y1199D01*
X926Y1199D02*
X929Y1199D01*
X1200Y1199D02*
X1203Y1199D01*
X862Y1198D02*
X865Y1198D01*
X926Y1198D02*
X929Y1198D01*
X1200Y1198D02*
X1203Y1198D01*
X862Y1197D02*
X865Y1197D01*
X926Y1197D02*
X929Y1197D01*
X1200Y1197D02*
X1203Y1197D01*
X862Y1196D02*
X865Y1196D01*
X926Y1196D02*
X929Y1196D01*
X1200Y1196D02*
X1203Y1196D01*
X862Y1195D02*
X865Y1195D01*
X926Y1195D02*
X929Y1195D01*
X1200Y1195D02*
X1203Y1195D01*
X862Y1194D02*
X865Y1194D01*
X926Y1194D02*
X929Y1194D01*
X1200Y1194D02*
X1203Y1194D01*
X862Y1193D02*
X865Y1193D01*
X926Y1193D02*
X929Y1193D01*
X1200Y1193D02*
X1203Y1193D01*
X862Y1192D02*
X865Y1192D01*
X926Y1192D02*
X929Y1192D01*
X1200Y1192D02*
X1203Y1192D01*
X862Y1191D02*
X865Y1191D01*
X926Y1191D02*
X929Y1191D01*
X1200Y1191D02*
X1203Y1191D01*
X862Y1190D02*
X865Y1190D01*
X926Y1190D02*
X929Y1190D01*
X1200Y1190D02*
X1203Y1190D01*
X862Y1189D02*
X865Y1189D01*
X926Y1189D02*
X929Y1189D01*
X1200Y1189D02*
X1203Y1189D01*
X862Y1188D02*
X865Y1188D01*
X926Y1188D02*
X929Y1188D01*
X1200Y1188D02*
X1203Y1188D01*
X862Y1187D02*
X865Y1187D01*
X926Y1187D02*
X929Y1187D01*
X1200Y1187D02*
X1203Y1187D01*
X862Y1186D02*
X865Y1186D01*
X926Y1186D02*
X929Y1186D01*
X1200Y1186D02*
X1203Y1186D01*
X862Y1185D02*
X865Y1185D01*
X926Y1185D02*
X929Y1185D01*
X1200Y1185D02*
X1203Y1185D01*
X862Y1184D02*
X865Y1184D01*
X926Y1184D02*
X929Y1184D01*
X1200Y1184D02*
X1203Y1184D01*
X862Y1183D02*
X865Y1183D01*
X926Y1183D02*
X929Y1183D01*
X1200Y1183D02*
X1203Y1183D01*
X862Y1182D02*
X865Y1182D01*
X926Y1182D02*
X929Y1182D01*
X1200Y1182D02*
X1203Y1182D01*
X862Y1181D02*
X865Y1181D01*
X926Y1181D02*
X929Y1181D01*
X1200Y1181D02*
X1203Y1181D01*
X862Y1180D02*
X865Y1180D01*
X926Y1180D02*
X929Y1180D01*
X1200Y1180D02*
X1203Y1180D01*
X862Y1179D02*
X865Y1179D01*
X926Y1179D02*
X929Y1179D01*
X1200Y1179D02*
X1203Y1179D01*
X862Y1178D02*
X865Y1178D01*
X926Y1178D02*
X929Y1178D01*
X1200Y1178D02*
X1203Y1178D01*
X862Y1177D02*
X865Y1177D01*
X926Y1177D02*
X929Y1177D01*
X1200Y1177D02*
X1203Y1177D01*
X862Y1176D02*
X865Y1176D01*
X926Y1176D02*
X929Y1176D01*
X1200Y1176D02*
X1203Y1176D01*
X862Y1175D02*
X865Y1175D01*
X926Y1175D02*
X929Y1175D01*
X1200Y1175D02*
X1203Y1175D01*
X862Y1174D02*
X865Y1174D01*
X926Y1174D02*
X929Y1174D01*
X1200Y1174D02*
X1203Y1174D01*
X862Y1173D02*
X865Y1173D01*
X926Y1173D02*
X929Y1173D01*
X1200Y1173D02*
X1203Y1173D01*
X862Y1172D02*
X865Y1172D01*
X926Y1172D02*
X929Y1172D01*
X1200Y1172D02*
X1203Y1172D01*
X862Y1171D02*
X865Y1171D01*
X926Y1171D02*
X929Y1171D01*
X1200Y1171D02*
X1203Y1171D01*
X862Y1170D02*
X865Y1170D01*
X926Y1170D02*
X929Y1170D01*
X1200Y1170D02*
X1203Y1170D01*
X862Y1169D02*
X865Y1169D01*
X926Y1169D02*
X929Y1169D01*
X1200Y1169D02*
X1203Y1169D01*
X862Y1168D02*
X865Y1168D01*
X926Y1168D02*
X929Y1168D01*
X1200Y1168D02*
X1203Y1168D01*
X862Y1167D02*
X865Y1167D01*
X926Y1167D02*
X929Y1167D01*
X1200Y1167D02*
X1203Y1167D01*
X862Y1166D02*
X865Y1166D01*
X926Y1166D02*
X929Y1166D01*
X1200Y1166D02*
X1203Y1166D01*
X862Y1165D02*
X865Y1165D01*
X926Y1165D02*
X929Y1165D01*
X1200Y1165D02*
X1203Y1165D01*
X862Y1164D02*
X865Y1164D01*
X926Y1164D02*
X929Y1164D01*
X1200Y1164D02*
X1203Y1164D01*
X862Y1163D02*
X865Y1163D01*
X926Y1163D02*
X929Y1163D01*
X1200Y1163D02*
X1203Y1163D01*
X862Y1162D02*
X865Y1162D01*
X926Y1162D02*
X929Y1162D01*
X1200Y1162D02*
X1203Y1162D01*
X862Y1161D02*
X865Y1161D01*
X926Y1161D02*
X929Y1161D01*
X1200Y1161D02*
X1203Y1161D01*
X862Y1160D02*
X865Y1160D01*
X926Y1160D02*
X929Y1160D01*
X1200Y1160D02*
X1203Y1160D01*
X862Y1159D02*
X865Y1159D01*
X926Y1159D02*
X929Y1159D01*
X1200Y1159D02*
X1203Y1159D01*
X862Y1158D02*
X865Y1158D01*
X926Y1158D02*
X929Y1158D01*
X1200Y1158D02*
X1203Y1158D01*
X862Y1157D02*
X865Y1157D01*
X926Y1157D02*
X929Y1157D01*
X1200Y1157D02*
X1203Y1157D01*
X862Y1156D02*
X865Y1156D01*
X926Y1156D02*
X929Y1156D01*
X1200Y1156D02*
X1203Y1156D01*
X862Y1155D02*
X865Y1155D01*
X926Y1155D02*
X929Y1155D01*
X1200Y1155D02*
X1203Y1155D01*
X862Y1154D02*
X865Y1154D01*
X926Y1154D02*
X929Y1154D01*
X1200Y1154D02*
X1203Y1154D01*
X862Y1153D02*
X865Y1153D01*
X926Y1153D02*
X929Y1153D01*
X1200Y1153D02*
X1203Y1153D01*
X862Y1152D02*
X865Y1152D01*
X926Y1152D02*
X929Y1152D01*
X1200Y1152D02*
X1203Y1152D01*
X862Y1151D02*
X865Y1151D01*
X926Y1151D02*
X929Y1151D01*
X1200Y1151D02*
X1203Y1151D01*
X862Y1150D02*
X865Y1150D01*
X926Y1150D02*
X929Y1150D01*
X1200Y1150D02*
X1203Y1150D01*
X862Y1149D02*
X865Y1149D01*
X926Y1149D02*
X929Y1149D01*
X1200Y1149D02*
X1203Y1149D01*
X862Y1148D02*
X865Y1148D01*
X926Y1148D02*
X929Y1148D01*
X1200Y1148D02*
X1203Y1148D01*
X862Y1147D02*
X865Y1147D01*
X926Y1147D02*
X929Y1147D01*
X1200Y1147D02*
X1203Y1147D01*
X862Y1146D02*
X865Y1146D01*
X926Y1146D02*
X929Y1146D01*
X1200Y1146D02*
X1203Y1146D01*
X862Y1145D02*
X865Y1145D01*
X926Y1145D02*
X929Y1145D01*
X1200Y1145D02*
X1203Y1145D01*
X862Y1144D02*
X865Y1144D01*
X926Y1144D02*
X929Y1144D01*
X1200Y1144D02*
X1203Y1144D01*
X862Y1143D02*
X865Y1143D01*
X926Y1143D02*
X929Y1143D01*
X1200Y1143D02*
X1203Y1143D01*
X862Y1142D02*
X865Y1142D01*
X926Y1142D02*
X929Y1142D01*
X1200Y1142D02*
X1203Y1142D01*
X862Y1141D02*
X865Y1141D01*
X926Y1141D02*
X929Y1141D01*
X1200Y1141D02*
X1203Y1141D01*
X862Y1140D02*
X865Y1140D01*
X926Y1140D02*
X929Y1140D01*
X1200Y1140D02*
X1203Y1140D01*
X862Y1139D02*
X865Y1139D01*
X926Y1139D02*
X929Y1139D01*
X1200Y1139D02*
X1203Y1139D01*
X862Y1138D02*
X865Y1138D01*
X926Y1138D02*
X929Y1138D01*
X1200Y1138D02*
X1203Y1138D01*
X862Y1137D02*
X865Y1137D01*
X926Y1137D02*
X929Y1137D01*
X1200Y1137D02*
X1203Y1137D01*
X862Y1136D02*
X865Y1136D01*
X926Y1136D02*
X929Y1136D01*
X1200Y1136D02*
X1203Y1136D01*
X862Y1135D02*
X865Y1135D01*
X926Y1135D02*
X929Y1135D01*
X1200Y1135D02*
X1203Y1135D01*
X862Y1134D02*
X865Y1134D01*
X926Y1134D02*
X929Y1134D01*
X1200Y1134D02*
X1203Y1134D01*
X862Y1133D02*
X865Y1133D01*
X926Y1133D02*
X929Y1133D01*
X1200Y1133D02*
X1203Y1133D01*
X862Y1132D02*
X865Y1132D01*
X926Y1132D02*
X929Y1132D01*
X1200Y1132D02*
X1203Y1132D01*
X862Y1131D02*
X865Y1131D01*
X926Y1131D02*
X929Y1131D01*
X1200Y1131D02*
X1203Y1131D01*
X862Y1130D02*
X865Y1130D01*
X926Y1130D02*
X929Y1130D01*
X1200Y1130D02*
X1203Y1130D01*
X862Y1129D02*
X865Y1129D01*
X926Y1129D02*
X929Y1129D01*
X1200Y1129D02*
X1203Y1129D01*
X862Y1128D02*
X865Y1128D01*
X926Y1128D02*
X929Y1128D01*
X1200Y1128D02*
X1203Y1128D01*
X862Y1127D02*
X865Y1127D01*
X926Y1127D02*
X929Y1127D01*
X1200Y1127D02*
X1203Y1127D01*
X862Y1126D02*
X865Y1126D01*
X926Y1126D02*
X929Y1126D01*
X1200Y1126D02*
X1203Y1126D01*
X862Y1125D02*
X865Y1125D01*
X926Y1125D02*
X929Y1125D01*
X1200Y1125D02*
X1203Y1125D01*
X862Y1124D02*
X865Y1124D01*
X926Y1124D02*
X929Y1124D01*
X1200Y1124D02*
X1203Y1124D01*
X862Y1123D02*
X865Y1123D01*
X926Y1123D02*
X929Y1123D01*
X1200Y1123D02*
X1203Y1123D01*
X862Y1122D02*
X865Y1122D01*
X926Y1122D02*
X929Y1122D01*
X1200Y1122D02*
X1203Y1122D01*
X862Y1121D02*
X865Y1121D01*
X926Y1121D02*
X929Y1121D01*
X1200Y1121D02*
X1203Y1121D01*
X862Y1120D02*
X865Y1120D01*
X926Y1120D02*
X929Y1120D01*
X1200Y1120D02*
X1203Y1120D01*
X862Y1119D02*
X865Y1119D01*
X926Y1119D02*
X929Y1119D01*
X1200Y1119D02*
X1203Y1119D01*
X862Y1118D02*
X865Y1118D01*
X926Y1118D02*
X929Y1118D01*
X1200Y1118D02*
X1203Y1118D01*
X862Y1117D02*
X865Y1117D01*
X926Y1117D02*
X929Y1117D01*
X1200Y1117D02*
X1203Y1117D01*
X862Y1116D02*
X865Y1116D01*
X926Y1116D02*
X929Y1116D01*
X1200Y1116D02*
X1203Y1116D01*
X862Y1115D02*
X865Y1115D01*
X926Y1115D02*
X929Y1115D01*
X1200Y1115D02*
X1203Y1115D01*
X862Y1114D02*
X865Y1114D01*
X926Y1114D02*
X929Y1114D01*
X1200Y1114D02*
X1203Y1114D01*
X862Y1113D02*
X865Y1113D01*
X926Y1113D02*
X929Y1113D01*
X1200Y1113D02*
X1203Y1113D01*
X862Y1112D02*
X865Y1112D01*
X926Y1112D02*
X929Y1112D01*
X1200Y1112D02*
X1203Y1112D01*
X862Y1111D02*
X865Y1111D01*
X926Y1111D02*
X929Y1111D01*
X1200Y1111D02*
X1203Y1111D01*
X862Y1110D02*
X865Y1110D01*
X926Y1110D02*
X929Y1110D01*
X1200Y1110D02*
X1203Y1110D01*
X862Y1109D02*
X865Y1109D01*
X926Y1109D02*
X929Y1109D01*
X1200Y1109D02*
X1203Y1109D01*
X862Y1108D02*
X865Y1108D01*
X926Y1108D02*
X929Y1108D01*
X1200Y1108D02*
X1203Y1108D01*
X862Y1107D02*
X865Y1107D01*
X926Y1107D02*
X930Y1107D01*
X1200Y1107D02*
X1203Y1107D01*
X862Y1106D02*
X865Y1106D01*
X926Y1106D02*
X931Y1106D01*
X1200Y1106D02*
X1203Y1106D01*
X862Y1105D02*
X870Y1105D01*
X903Y1105D02*
X909Y1105D01*
X925Y1105D02*
X932Y1105D01*
X1200Y1105D02*
X1205Y1105D01*
X1255Y1105D02*
X1262Y1105D01*
X862Y1104D02*
X870Y1104D01*
X903Y1104D02*
X909Y1104D01*
X926Y1104D02*
X933Y1104D01*
X1200Y1104D02*
X1205Y1104D01*
X1255Y1104D02*
X1262Y1104D01*
X862Y1103D02*
X870Y1103D01*
X903Y1103D02*
X909Y1103D01*
X927Y1103D02*
X934Y1103D01*
X1200Y1103D02*
X1205Y1103D01*
X1255Y1103D02*
X1262Y1103D01*
X862Y1102D02*
X870Y1102D01*
X903Y1102D02*
X909Y1102D01*
X928Y1102D02*
X935Y1102D01*
X1200Y1102D02*
X1205Y1102D01*
X1255Y1102D02*
X1262Y1102D01*
X862Y1101D02*
X870Y1101D01*
X903Y1101D02*
X909Y1101D01*
X929Y1101D02*
X936Y1101D01*
X1200Y1101D02*
X1205Y1101D01*
X1255Y1101D02*
X1262Y1101D01*
X862Y1100D02*
X870Y1100D01*
X903Y1100D02*
X909Y1100D01*
X930Y1100D02*
X937Y1100D01*
X1200Y1100D02*
X1205Y1100D01*
X1255Y1100D02*
X1262Y1100D01*
X862Y1099D02*
X870Y1099D01*
X903Y1099D02*
X909Y1099D01*
X931Y1099D02*
X938Y1099D01*
X1200Y1099D02*
X1205Y1099D01*
X1255Y1099D02*
X1262Y1099D01*
X862Y1098D02*
X870Y1098D01*
X903Y1098D02*
X909Y1098D01*
X932Y1098D02*
X939Y1098D01*
X1200Y1098D02*
X1205Y1098D01*
X1255Y1098D02*
X1262Y1098D01*
X862Y1097D02*
X870Y1097D01*
X903Y1097D02*
X909Y1097D01*
X933Y1097D02*
X940Y1097D01*
X1200Y1097D02*
X1205Y1097D01*
X1255Y1097D02*
X1262Y1097D01*
X862Y1096D02*
X870Y1096D01*
X903Y1096D02*
X909Y1096D01*
X934Y1096D02*
X1205Y1096D01*
X1255Y1096D02*
X1262Y1096D01*
X862Y1095D02*
X870Y1095D01*
X903Y1095D02*
X909Y1095D01*
X935Y1095D02*
X1205Y1095D01*
X1255Y1095D02*
X1262Y1095D01*
X862Y1094D02*
X870Y1094D01*
X903Y1094D02*
X909Y1094D01*
X936Y1094D02*
X1205Y1094D01*
X1255Y1094D02*
X1262Y1094D01*
X862Y1093D02*
X870Y1093D01*
X903Y1093D02*
X909Y1093D01*
X937Y1093D02*
X1204Y1093D01*
X1255Y1093D02*
X1262Y1093D01*
X862Y1092D02*
X870Y1092D01*
X903Y1092D02*
X909Y1092D01*
X938Y1092D02*
X938Y1092D01*
X1191Y1092D02*
X1204Y1092D01*
X1255Y1092D02*
X1262Y1092D01*
X862Y1091D02*
X870Y1091D01*
X903Y1091D02*
X909Y1091D01*
X1191Y1091D02*
X1203Y1091D01*
X1255Y1091D02*
X1262Y1091D01*
X862Y1090D02*
X870Y1090D01*
X903Y1090D02*
X909Y1090D01*
X1255Y1090D02*
X1262Y1090D01*
X852Y1089D02*
X853Y1089D01*
X862Y1089D02*
X870Y1089D01*
X903Y1089D02*
X909Y1089D01*
X926Y1089D02*
X927Y1089D01*
X1255Y1089D02*
X1262Y1089D01*
X851Y1088D02*
X855Y1088D01*
X862Y1088D02*
X870Y1088D01*
X903Y1088D02*
X909Y1088D01*
X925Y1088D02*
X929Y1088D01*
X1255Y1088D02*
X1262Y1088D01*
X850Y1087D02*
X855Y1087D01*
X862Y1087D02*
X870Y1087D01*
X903Y1087D02*
X909Y1087D01*
X924Y1087D02*
X930Y1087D01*
X1255Y1087D02*
X1262Y1087D01*
X850Y1086D02*
X856Y1086D01*
X862Y1086D02*
X870Y1086D01*
X903Y1086D02*
X909Y1086D01*
X924Y1086D02*
X930Y1086D01*
X1255Y1086D02*
X1262Y1086D01*
X850Y1085D02*
X856Y1085D01*
X862Y1085D02*
X870Y1085D01*
X903Y1085D02*
X909Y1085D01*
X924Y1085D02*
X930Y1085D01*
X1255Y1085D02*
X1262Y1085D01*
X850Y1084D02*
X856Y1084D01*
X862Y1084D02*
X870Y1084D01*
X903Y1084D02*
X909Y1084D01*
X924Y1084D02*
X930Y1084D01*
X1255Y1084D02*
X1262Y1084D01*
X850Y1083D02*
X856Y1083D01*
X862Y1083D02*
X870Y1083D01*
X903Y1083D02*
X909Y1083D01*
X924Y1083D02*
X930Y1083D01*
X1255Y1083D02*
X1262Y1083D01*
X850Y1082D02*
X856Y1082D01*
X862Y1082D02*
X870Y1082D01*
X903Y1082D02*
X909Y1082D01*
X924Y1082D02*
X930Y1082D01*
X1255Y1082D02*
X1262Y1082D01*
X850Y1081D02*
X856Y1081D01*
X862Y1081D02*
X870Y1081D01*
X903Y1081D02*
X909Y1081D01*
X924Y1081D02*
X930Y1081D01*
X1255Y1081D02*
X1262Y1081D01*
X850Y1080D02*
X856Y1080D01*
X862Y1080D02*
X870Y1080D01*
X903Y1080D02*
X909Y1080D01*
X924Y1080D02*
X930Y1080D01*
X1255Y1080D02*
X1262Y1080D01*
X850Y1079D02*
X856Y1079D01*
X862Y1079D02*
X870Y1079D01*
X903Y1079D02*
X909Y1079D01*
X924Y1079D02*
X930Y1079D01*
X1255Y1079D02*
X1262Y1079D01*
X850Y1078D02*
X856Y1078D01*
X862Y1078D02*
X870Y1078D01*
X903Y1078D02*
X909Y1078D01*
X924Y1078D02*
X930Y1078D01*
X1255Y1078D02*
X1262Y1078D01*
X850Y1077D02*
X856Y1077D01*
X862Y1077D02*
X870Y1077D01*
X903Y1077D02*
X909Y1077D01*
X924Y1077D02*
X930Y1077D01*
X1255Y1077D02*
X1262Y1077D01*
X850Y1076D02*
X856Y1076D01*
X862Y1076D02*
X870Y1076D01*
X903Y1076D02*
X909Y1076D01*
X924Y1076D02*
X930Y1076D01*
X1255Y1076D02*
X1262Y1076D01*
X850Y1075D02*
X856Y1075D01*
X862Y1075D02*
X870Y1075D01*
X903Y1075D02*
X909Y1075D01*
X924Y1075D02*
X930Y1075D01*
X1255Y1075D02*
X1262Y1075D01*
X850Y1074D02*
X856Y1074D01*
X862Y1074D02*
X870Y1074D01*
X903Y1074D02*
X909Y1074D01*
X924Y1074D02*
X930Y1074D01*
X1255Y1074D02*
X1262Y1074D01*
X850Y1073D02*
X856Y1073D01*
X862Y1073D02*
X870Y1073D01*
X903Y1073D02*
X910Y1073D01*
X923Y1073D02*
X930Y1073D01*
X1255Y1073D02*
X1262Y1073D01*
X850Y1072D02*
X856Y1072D01*
X862Y1072D02*
X870Y1072D01*
X904Y1072D02*
X911Y1072D01*
X922Y1072D02*
X929Y1072D01*
X1255Y1072D02*
X1262Y1072D01*
X850Y1071D02*
X882Y1071D01*
X904Y1071D02*
X929Y1071D01*
X1255Y1071D02*
X1262Y1071D01*
X850Y1070D02*
X883Y1070D01*
X905Y1070D02*
X929Y1070D01*
X1255Y1070D02*
X1262Y1070D01*
X850Y1069D02*
X883Y1069D01*
X905Y1069D02*
X928Y1069D01*
X1255Y1069D02*
X1262Y1069D01*
X850Y1068D02*
X883Y1068D01*
X906Y1068D02*
X927Y1068D01*
X1255Y1068D02*
X1262Y1068D01*
X850Y1067D02*
X883Y1067D01*
X907Y1067D02*
X926Y1067D01*
X1255Y1067D02*
X1262Y1067D01*
X850Y1066D02*
X883Y1066D01*
X908Y1066D02*
X925Y1066D01*
X1255Y1066D02*
X1262Y1066D01*
X852Y1065D02*
X882Y1065D01*
X911Y1065D02*
X922Y1065D01*
X1255Y1065D02*
X1262Y1065D01*
X862Y1064D02*
X869Y1064D01*
X1255Y1064D02*
X1262Y1064D01*
X862Y1063D02*
X869Y1063D01*
X1255Y1063D02*
X1262Y1063D01*
X862Y1062D02*
X869Y1062D01*
X1255Y1062D02*
X1262Y1062D01*
X862Y1061D02*
X869Y1061D01*
X1255Y1061D02*
X1262Y1061D01*
X862Y1060D02*
X869Y1060D01*
X1255Y1060D02*
X1262Y1060D01*
X862Y1059D02*
X869Y1059D01*
X1255Y1059D02*
X1262Y1059D01*
X862Y1058D02*
X869Y1058D01*
X1255Y1058D02*
X1262Y1058D01*
X862Y1057D02*
X869Y1057D01*
X1255Y1057D02*
X1262Y1057D01*
X862Y1056D02*
X869Y1056D01*
X1255Y1056D02*
X1262Y1056D01*
X862Y1055D02*
X869Y1055D01*
X1255Y1055D02*
X1262Y1055D01*
X862Y1054D02*
X869Y1054D01*
X1255Y1054D02*
X1262Y1054D01*
X862Y1053D02*
X869Y1053D01*
X1255Y1053D02*
X1262Y1053D01*
X862Y1052D02*
X869Y1052D01*
X1255Y1052D02*
X1262Y1052D01*
X862Y1051D02*
X869Y1051D01*
X1255Y1051D02*
X1262Y1051D01*
X862Y1050D02*
X869Y1050D01*
X1255Y1050D02*
X1262Y1050D01*
X862Y1049D02*
X869Y1049D01*
X1255Y1049D02*
X1262Y1049D01*
X862Y1048D02*
X869Y1048D01*
X1255Y1048D02*
X1262Y1048D01*
X862Y1047D02*
X869Y1047D01*
X1255Y1047D02*
X1262Y1047D01*
X862Y1046D02*
X869Y1046D01*
X1255Y1046D02*
X1262Y1046D01*
X862Y1045D02*
X869Y1045D01*
X1255Y1045D02*
X1262Y1045D01*
X862Y1044D02*
X869Y1044D01*
X1255Y1044D02*
X1262Y1044D01*
X862Y1043D02*
X869Y1043D01*
X1255Y1043D02*
X1262Y1043D01*
X862Y1042D02*
X869Y1042D01*
X1255Y1042D02*
X1262Y1042D01*
X862Y1041D02*
X869Y1041D01*
X1255Y1041D02*
X1262Y1041D01*
X862Y1040D02*
X869Y1040D01*
X1255Y1040D02*
X1262Y1040D01*
X862Y1039D02*
X869Y1039D01*
X1255Y1039D02*
X1262Y1039D01*
X862Y1038D02*
X869Y1038D01*
X1255Y1038D02*
X1262Y1038D01*
X862Y1037D02*
X937Y1037D01*
X1191Y1037D02*
X1262Y1037D01*
X862Y1036D02*
X937Y1036D01*
X1191Y1036D02*
X1262Y1036D01*
X862Y1035D02*
X937Y1035D01*
X1191Y1035D02*
X1262Y1035D01*
X862Y1034D02*
X937Y1034D01*
X1191Y1034D02*
X1262Y1034D01*
X862Y1033D02*
X937Y1033D01*
X1191Y1033D02*
X1262Y1033D01*
X862Y1032D02*
X1262Y1032D01*
X863Y1031D02*
X1261Y1031D01*
X865Y1030D02*
X1259Y1030D01*
X1273Y1011D02*
X1293Y1011D01*
X1318Y1011D02*
X1348Y1011D01*
X1271Y1010D02*
X1295Y1010D01*
X1317Y1010D02*
X1349Y1010D01*
X1270Y1009D02*
X1296Y1009D01*
X1317Y1009D02*
X1350Y1009D01*
X1269Y1008D02*
X1297Y1008D01*
X1316Y1008D02*
X1350Y1008D01*
X1268Y1007D02*
X1298Y1007D01*
X1317Y1007D02*
X1350Y1007D01*
X1268Y1006D02*
X1299Y1006D01*
X1317Y1006D02*
X1350Y1006D01*
X1267Y1005D02*
X1299Y1005D01*
X1318Y1005D02*
X1350Y1005D01*
X1267Y1004D02*
X1274Y1004D01*
X1292Y1004D02*
X1300Y1004D01*
X1330Y1004D02*
X1336Y1004D01*
X1344Y1004D02*
X1350Y1004D01*
X1267Y1003D02*
X1273Y1003D01*
X1293Y1003D02*
X1300Y1003D01*
X1330Y1003D02*
X1336Y1003D01*
X1344Y1003D02*
X1350Y1003D01*
X1266Y1002D02*
X1273Y1002D01*
X1294Y1002D02*
X1300Y1002D01*
X1330Y1002D02*
X1336Y1002D01*
X1344Y1002D02*
X1350Y1002D01*
X1266Y1001D02*
X1272Y1001D01*
X1294Y1001D02*
X1300Y1001D01*
X1330Y1001D02*
X1336Y1001D01*
X1344Y1001D02*
X1350Y1001D01*
X1266Y1000D02*
X1272Y1000D01*
X1294Y1000D02*
X1300Y1000D01*
X1330Y1000D02*
X1336Y1000D01*
X1344Y1000D02*
X1350Y1000D01*
X1266Y999D02*
X1272Y999D01*
X1294Y999D02*
X1300Y999D01*
X1330Y999D02*
X1336Y999D01*
X1344Y999D02*
X1350Y999D01*
X1266Y998D02*
X1272Y998D01*
X1294Y998D02*
X1300Y998D01*
X1330Y998D02*
X1336Y998D01*
X1344Y998D02*
X1350Y998D01*
X1266Y997D02*
X1272Y997D01*
X1294Y997D02*
X1300Y997D01*
X1330Y997D02*
X1336Y997D01*
X1344Y997D02*
X1350Y997D01*
X1266Y996D02*
X1272Y996D01*
X1294Y996D02*
X1300Y996D01*
X1330Y996D02*
X1336Y996D01*
X1344Y996D02*
X1350Y996D01*
X1266Y995D02*
X1272Y995D01*
X1294Y995D02*
X1300Y995D01*
X1330Y995D02*
X1336Y995D01*
X1344Y995D02*
X1350Y995D01*
X1266Y994D02*
X1272Y994D01*
X1294Y994D02*
X1300Y994D01*
X1330Y994D02*
X1336Y994D01*
X1344Y994D02*
X1350Y994D01*
X1266Y993D02*
X1272Y993D01*
X1294Y993D02*
X1300Y993D01*
X1330Y993D02*
X1336Y993D01*
X1344Y993D02*
X1350Y993D01*
X1266Y992D02*
X1272Y992D01*
X1294Y992D02*
X1300Y992D01*
X1330Y992D02*
X1336Y992D01*
X1344Y992D02*
X1350Y992D01*
X1266Y991D02*
X1272Y991D01*
X1294Y991D02*
X1300Y991D01*
X1330Y991D02*
X1336Y991D01*
X1344Y991D02*
X1350Y991D01*
X1266Y990D02*
X1272Y990D01*
X1294Y990D02*
X1300Y990D01*
X1330Y990D02*
X1336Y990D01*
X1344Y990D02*
X1350Y990D01*
X1266Y989D02*
X1272Y989D01*
X1294Y989D02*
X1300Y989D01*
X1330Y989D02*
X1336Y989D01*
X1344Y989D02*
X1350Y989D01*
X1266Y988D02*
X1272Y988D01*
X1294Y988D02*
X1300Y988D01*
X1330Y988D02*
X1336Y988D01*
X1345Y988D02*
X1349Y988D01*
X1266Y987D02*
X1272Y987D01*
X1294Y987D02*
X1300Y987D01*
X1330Y987D02*
X1336Y987D01*
X1266Y986D02*
X1272Y986D01*
X1294Y986D02*
X1300Y986D01*
X1330Y986D02*
X1336Y986D01*
X1266Y985D02*
X1272Y985D01*
X1294Y985D02*
X1300Y985D01*
X1330Y985D02*
X1336Y985D01*
X1266Y984D02*
X1272Y984D01*
X1294Y984D02*
X1300Y984D01*
X1330Y984D02*
X1336Y984D01*
X1266Y983D02*
X1272Y983D01*
X1294Y983D02*
X1300Y983D01*
X1330Y983D02*
X1336Y983D01*
X1266Y982D02*
X1272Y982D01*
X1294Y982D02*
X1300Y982D01*
X1330Y982D02*
X1336Y982D01*
X1266Y981D02*
X1272Y981D01*
X1294Y981D02*
X1300Y981D01*
X1330Y981D02*
X1336Y981D01*
X1266Y980D02*
X1272Y980D01*
X1294Y980D02*
X1300Y980D01*
X1330Y980D02*
X1336Y980D01*
X1266Y979D02*
X1272Y979D01*
X1294Y979D02*
X1300Y979D01*
X1330Y979D02*
X1336Y979D01*
X1266Y978D02*
X1272Y978D01*
X1294Y978D02*
X1300Y978D01*
X1330Y978D02*
X1336Y978D01*
X1266Y977D02*
X1272Y977D01*
X1294Y977D02*
X1300Y977D01*
X1330Y977D02*
X1336Y977D01*
X1266Y976D02*
X1272Y976D01*
X1294Y976D02*
X1300Y976D01*
X1330Y976D02*
X1336Y976D01*
X1266Y975D02*
X1272Y975D01*
X1294Y975D02*
X1300Y975D01*
X1330Y975D02*
X1336Y975D01*
X1266Y974D02*
X1272Y974D01*
X1294Y974D02*
X1300Y974D01*
X1330Y974D02*
X1336Y974D01*
X1266Y973D02*
X1272Y973D01*
X1294Y973D02*
X1300Y973D01*
X1330Y973D02*
X1336Y973D01*
X1266Y972D02*
X1272Y972D01*
X1294Y972D02*
X1300Y972D01*
X1330Y972D02*
X1336Y972D01*
X1266Y971D02*
X1272Y971D01*
X1294Y971D02*
X1300Y971D01*
X1330Y971D02*
X1336Y971D01*
X1266Y970D02*
X1272Y970D01*
X1294Y970D02*
X1300Y970D01*
X1330Y970D02*
X1336Y970D01*
X1266Y969D02*
X1272Y969D01*
X1294Y969D02*
X1300Y969D01*
X1330Y969D02*
X1336Y969D01*
X1266Y968D02*
X1272Y968D01*
X1294Y968D02*
X1300Y968D01*
X1330Y968D02*
X1336Y968D01*
X1266Y967D02*
X1272Y967D01*
X1294Y967D02*
X1300Y967D01*
X1330Y967D02*
X1336Y967D01*
X1266Y966D02*
X1272Y966D01*
X1294Y966D02*
X1300Y966D01*
X1330Y966D02*
X1336Y966D01*
X1266Y965D02*
X1272Y965D01*
X1294Y965D02*
X1300Y965D01*
X1330Y965D02*
X1336Y965D01*
X1266Y964D02*
X1272Y964D01*
X1294Y964D02*
X1300Y964D01*
X1318Y964D02*
X1336Y964D01*
X1266Y963D02*
X1272Y963D01*
X1294Y963D02*
X1300Y963D01*
X1317Y963D02*
X1336Y963D01*
X1266Y962D02*
X1272Y962D01*
X1294Y962D02*
X1300Y962D01*
X1317Y962D02*
X1336Y962D01*
X1266Y961D02*
X1272Y961D01*
X1294Y961D02*
X1300Y961D01*
X1316Y961D02*
X1336Y961D01*
X1267Y960D02*
X1272Y960D01*
X1294Y960D02*
X1300Y960D01*
X1317Y960D02*
X1336Y960D01*
X1267Y959D02*
X1272Y959D01*
X1295Y959D02*
X1299Y959D01*
X1317Y959D02*
X1336Y959D01*
X1268Y958D02*
X1271Y958D01*
X1296Y958D02*
X1298Y958D01*
X1318Y958D02*
X1336Y958D01*
X815Y870D02*
X1309Y870D01*
X814Y869D02*
X1311Y869D01*
X813Y868D02*
X1311Y868D01*
X813Y867D02*
X1311Y867D01*
X813Y866D02*
X1312Y866D01*
X813Y865D02*
X1312Y865D01*
X813Y864D02*
X1311Y864D01*
X813Y863D02*
X1311Y863D01*
X813Y862D02*
X820Y862D01*
X837Y862D02*
X843Y862D01*
X1304Y862D02*
X1311Y862D01*
X813Y861D02*
X820Y861D01*
X836Y861D02*
X842Y861D01*
X1304Y861D02*
X1311Y861D01*
X813Y860D02*
X820Y860D01*
X835Y860D02*
X841Y860D01*
X1304Y860D02*
X1311Y860D01*
X813Y859D02*
X820Y859D01*
X834Y859D02*
X840Y859D01*
X1304Y859D02*
X1311Y859D01*
X813Y858D02*
X820Y858D01*
X833Y858D02*
X839Y858D01*
X1304Y858D02*
X1311Y858D01*
X813Y857D02*
X820Y857D01*
X832Y857D02*
X838Y857D01*
X1304Y857D02*
X1311Y857D01*
X813Y856D02*
X820Y856D01*
X831Y856D02*
X837Y856D01*
X1304Y856D02*
X1311Y856D01*
X813Y855D02*
X820Y855D01*
X830Y855D02*
X836Y855D01*
X1304Y855D02*
X1311Y855D01*
X813Y854D02*
X820Y854D01*
X829Y854D02*
X835Y854D01*
X1304Y854D02*
X1311Y854D01*
X813Y853D02*
X820Y853D01*
X828Y853D02*
X834Y853D01*
X1304Y853D02*
X1311Y853D01*
X813Y852D02*
X820Y852D01*
X827Y852D02*
X832Y852D01*
X1304Y852D02*
X1311Y852D01*
X813Y851D02*
X820Y851D01*
X826Y851D02*
X831Y851D01*
X1304Y851D02*
X1311Y851D01*
X813Y850D02*
X820Y850D01*
X825Y850D02*
X830Y850D01*
X1304Y850D02*
X1311Y850D01*
X813Y849D02*
X820Y849D01*
X824Y849D02*
X829Y849D01*
X1304Y849D02*
X1311Y849D01*
X813Y848D02*
X820Y848D01*
X823Y848D02*
X828Y848D01*
X1304Y848D02*
X1311Y848D01*
X813Y847D02*
X820Y847D01*
X822Y847D02*
X827Y847D01*
X1304Y847D02*
X1311Y847D01*
X813Y846D02*
X827Y846D01*
X1304Y846D02*
X1311Y846D01*
X813Y845D02*
X826Y845D01*
X1304Y845D02*
X1311Y845D01*
X813Y844D02*
X825Y844D01*
X1304Y844D02*
X1311Y844D01*
X813Y843D02*
X824Y843D01*
X1304Y843D02*
X1311Y843D01*
X813Y842D02*
X823Y842D01*
X1304Y842D02*
X1311Y842D01*
X813Y841D02*
X822Y841D01*
X1304Y841D02*
X1311Y841D01*
X813Y840D02*
X821Y840D01*
X1304Y840D02*
X1311Y840D01*
X813Y839D02*
X820Y839D01*
X1304Y839D02*
X1311Y839D01*
X813Y838D02*
X820Y838D01*
X1304Y838D02*
X1311Y838D01*
X812Y837D02*
X820Y837D01*
X1304Y837D02*
X1311Y837D01*
X811Y836D02*
X820Y836D01*
X1304Y836D02*
X1311Y836D01*
X811Y835D02*
X820Y835D01*
X1304Y835D02*
X1311Y835D01*
X812Y834D02*
X820Y834D01*
X1304Y834D02*
X1311Y834D01*
X813Y833D02*
X820Y833D01*
X1304Y833D02*
X1311Y833D01*
X813Y832D02*
X819Y832D01*
X1304Y832D02*
X1311Y832D01*
X813Y831D02*
X819Y831D01*
X1304Y831D02*
X1311Y831D01*
X813Y830D02*
X819Y830D01*
X1304Y830D02*
X1311Y830D01*
X813Y829D02*
X818Y829D01*
X1305Y829D02*
X1311Y829D01*
X813Y828D02*
X818Y828D01*
X1305Y828D02*
X1311Y828D01*
X813Y827D02*
X818Y827D01*
X1305Y827D02*
X1311Y827D01*
X813Y826D02*
X818Y826D01*
X1305Y826D02*
X1311Y826D01*
X813Y825D02*
X818Y825D01*
X1305Y825D02*
X1311Y825D01*
X813Y824D02*
X818Y824D01*
X1306Y824D02*
X1311Y824D01*
X813Y823D02*
X817Y823D01*
X1306Y823D02*
X1311Y823D01*
X813Y822D02*
X817Y822D01*
X1306Y822D02*
X1311Y822D01*
X813Y821D02*
X817Y821D01*
X1306Y821D02*
X1311Y821D01*
X813Y820D02*
X817Y820D01*
X1306Y820D02*
X1311Y820D01*
X813Y819D02*
X817Y819D01*
X1306Y819D02*
X1311Y819D01*
X813Y818D02*
X817Y818D01*
X1306Y818D02*
X1311Y818D01*
X813Y817D02*
X817Y817D01*
X1306Y817D02*
X1311Y817D01*
X813Y816D02*
X817Y816D01*
X1306Y816D02*
X1311Y816D01*
X813Y815D02*
X817Y815D01*
X1306Y815D02*
X1311Y815D01*
X813Y814D02*
X818Y814D01*
X1306Y814D02*
X1311Y814D01*
X813Y813D02*
X818Y813D01*
X1305Y813D02*
X1311Y813D01*
X813Y812D02*
X818Y812D01*
X1305Y812D02*
X1311Y812D01*
X813Y811D02*
X818Y811D01*
X1305Y811D02*
X1311Y811D01*
X813Y810D02*
X818Y810D01*
X1305Y810D02*
X1311Y810D01*
X813Y809D02*
X818Y809D01*
X1305Y809D02*
X1311Y809D01*
X813Y808D02*
X819Y808D01*
X1305Y808D02*
X1311Y808D01*
X813Y807D02*
X819Y807D01*
X1304Y807D02*
X1311Y807D01*
X813Y806D02*
X819Y806D01*
X1304Y806D02*
X1311Y806D01*
X813Y805D02*
X819Y805D01*
X1304Y805D02*
X1311Y805D01*
X813Y804D02*
X820Y804D01*
X1304Y804D02*
X1311Y804D01*
X813Y803D02*
X820Y803D01*
X1304Y803D02*
X1311Y803D01*
X813Y802D02*
X820Y802D01*
X1304Y802D02*
X1311Y802D01*
X813Y801D02*
X820Y801D01*
X1304Y801D02*
X1311Y801D01*
X813Y800D02*
X820Y800D01*
X1304Y800D02*
X1311Y800D01*
X813Y799D02*
X820Y799D01*
X1304Y799D02*
X1311Y799D01*
X813Y798D02*
X820Y798D01*
X1304Y798D02*
X1311Y798D01*
X813Y797D02*
X820Y797D01*
X1304Y797D02*
X1311Y797D01*
X813Y796D02*
X820Y796D01*
X1304Y796D02*
X1311Y796D01*
X813Y795D02*
X820Y795D01*
X1304Y795D02*
X1311Y795D01*
X813Y794D02*
X820Y794D01*
X1304Y794D02*
X1311Y794D01*
X813Y793D02*
X820Y793D01*
X1304Y793D02*
X1311Y793D01*
X813Y792D02*
X820Y792D01*
X1304Y792D02*
X1311Y792D01*
X813Y791D02*
X820Y791D01*
X1304Y791D02*
X1311Y791D01*
X813Y790D02*
X820Y790D01*
X1304Y790D02*
X1311Y790D01*
X813Y789D02*
X820Y789D01*
X1304Y789D02*
X1311Y789D01*
X813Y788D02*
X820Y788D01*
X1304Y788D02*
X1311Y788D01*
X813Y787D02*
X820Y787D01*
X1304Y787D02*
X1311Y787D01*
X813Y786D02*
X820Y786D01*
X1304Y786D02*
X1311Y786D01*
X813Y785D02*
X820Y785D01*
X1304Y785D02*
X1311Y785D01*
X813Y784D02*
X820Y784D01*
X1304Y784D02*
X1311Y784D01*
X813Y783D02*
X820Y783D01*
X1304Y783D02*
X1311Y783D01*
X813Y782D02*
X820Y782D01*
X1304Y782D02*
X1311Y782D01*
X813Y781D02*
X820Y781D01*
X1304Y781D02*
X1311Y781D01*
X813Y780D02*
X820Y780D01*
X1304Y780D02*
X1311Y780D01*
X813Y779D02*
X820Y779D01*
X1304Y779D02*
X1311Y779D01*
X813Y778D02*
X820Y778D01*
X1304Y778D02*
X1311Y778D01*
X813Y777D02*
X820Y777D01*
X1304Y777D02*
X1311Y777D01*
X813Y776D02*
X820Y776D01*
X1304Y776D02*
X1311Y776D01*
X813Y775D02*
X820Y775D01*
X1304Y775D02*
X1311Y775D01*
X813Y774D02*
X820Y774D01*
X1304Y774D02*
X1311Y774D01*
X813Y773D02*
X820Y773D01*
X1304Y773D02*
X1311Y773D01*
X813Y772D02*
X820Y772D01*
X1304Y772D02*
X1311Y772D01*
X813Y771D02*
X820Y771D01*
X1304Y771D02*
X1311Y771D01*
X813Y770D02*
X820Y770D01*
X1304Y770D02*
X1311Y770D01*
X813Y769D02*
X820Y769D01*
X1304Y769D02*
X1311Y769D01*
X813Y768D02*
X820Y768D01*
X1304Y768D02*
X1311Y768D01*
X813Y767D02*
X820Y767D01*
X1304Y767D02*
X1311Y767D01*
X813Y766D02*
X820Y766D01*
X1304Y766D02*
X1311Y766D01*
X813Y765D02*
X820Y765D01*
X1304Y765D02*
X1311Y765D01*
X813Y764D02*
X820Y764D01*
X1304Y764D02*
X1311Y764D01*
X813Y763D02*
X820Y763D01*
X1304Y763D02*
X1311Y763D01*
X813Y762D02*
X820Y762D01*
X1304Y762D02*
X1311Y762D01*
X813Y761D02*
X820Y761D01*
X1304Y761D02*
X1311Y761D01*
X813Y760D02*
X820Y760D01*
X1304Y760D02*
X1311Y760D01*
X813Y759D02*
X820Y759D01*
X1304Y759D02*
X1311Y759D01*
X813Y758D02*
X820Y758D01*
X1304Y758D02*
X1311Y758D01*
X813Y757D02*
X820Y757D01*
X1304Y757D02*
X1311Y757D01*
X813Y756D02*
X820Y756D01*
X1304Y756D02*
X1311Y756D01*
X813Y755D02*
X820Y755D01*
X1304Y755D02*
X1311Y755D01*
X813Y754D02*
X820Y754D01*
X1304Y754D02*
X1311Y754D01*
X813Y753D02*
X820Y753D01*
X1304Y753D02*
X1311Y753D01*
X813Y752D02*
X820Y752D01*
X1304Y752D02*
X1311Y752D01*
X813Y751D02*
X820Y751D01*
X1304Y751D02*
X1311Y751D01*
X813Y750D02*
X820Y750D01*
X1304Y750D02*
X1311Y750D01*
X813Y749D02*
X820Y749D01*
X1304Y749D02*
X1311Y749D01*
X813Y748D02*
X820Y748D01*
X1304Y748D02*
X1311Y748D01*
X813Y747D02*
X820Y747D01*
X1304Y747D02*
X1311Y747D01*
X813Y746D02*
X820Y746D01*
X1304Y746D02*
X1311Y746D01*
X813Y745D02*
X820Y745D01*
X1304Y745D02*
X1311Y745D01*
X813Y744D02*
X820Y744D01*
X1304Y744D02*
X1311Y744D01*
X813Y743D02*
X820Y743D01*
X1304Y743D02*
X1311Y743D01*
X813Y742D02*
X820Y742D01*
X1304Y742D02*
X1311Y742D01*
X813Y741D02*
X820Y741D01*
X1304Y741D02*
X1311Y741D01*
X813Y740D02*
X820Y740D01*
X1304Y740D02*
X1311Y740D01*
X813Y739D02*
X820Y739D01*
X1304Y739D02*
X1311Y739D01*
X813Y738D02*
X820Y738D01*
X1304Y738D02*
X1311Y738D01*
X813Y737D02*
X820Y737D01*
X1304Y737D02*
X1311Y737D01*
X813Y736D02*
X820Y736D01*
X1304Y736D02*
X1311Y736D01*
X813Y735D02*
X820Y735D01*
X1304Y735D02*
X1311Y735D01*
X813Y734D02*
X820Y734D01*
X1304Y734D02*
X1311Y734D01*
X813Y733D02*
X820Y733D01*
X1304Y733D02*
X1311Y733D01*
X813Y732D02*
X819Y732D01*
X1304Y732D02*
X1311Y732D01*
X813Y731D02*
X819Y731D01*
X1304Y731D02*
X1311Y731D01*
X813Y730D02*
X819Y730D01*
X1304Y730D02*
X1311Y730D01*
X813Y729D02*
X818Y729D01*
X1305Y729D02*
X1311Y729D01*
X813Y728D02*
X818Y728D01*
X1305Y728D02*
X1311Y728D01*
X813Y727D02*
X818Y727D01*
X1305Y727D02*
X1311Y727D01*
X813Y726D02*
X818Y726D01*
X1305Y726D02*
X1311Y726D01*
X813Y725D02*
X818Y725D01*
X1305Y725D02*
X1311Y725D01*
X813Y724D02*
X818Y724D01*
X1306Y724D02*
X1311Y724D01*
X813Y723D02*
X817Y723D01*
X1306Y723D02*
X1311Y723D01*
X813Y722D02*
X817Y722D01*
X1306Y722D02*
X1311Y722D01*
X813Y721D02*
X817Y721D01*
X1306Y721D02*
X1311Y721D01*
X813Y720D02*
X817Y720D01*
X1306Y720D02*
X1311Y720D01*
X813Y719D02*
X817Y719D01*
X1306Y719D02*
X1311Y719D01*
X813Y718D02*
X817Y718D01*
X1306Y718D02*
X1311Y718D01*
X813Y717D02*
X817Y717D01*
X1306Y717D02*
X1311Y717D01*
X813Y716D02*
X817Y716D01*
X1306Y716D02*
X1311Y716D01*
X813Y715D02*
X817Y715D01*
X1306Y715D02*
X1311Y715D01*
X813Y714D02*
X818Y714D01*
X1306Y714D02*
X1311Y714D01*
X813Y713D02*
X818Y713D01*
X1305Y713D02*
X1311Y713D01*
X813Y712D02*
X818Y712D01*
X1305Y712D02*
X1311Y712D01*
X813Y711D02*
X818Y711D01*
X1305Y711D02*
X1311Y711D01*
X813Y710D02*
X818Y710D01*
X1305Y710D02*
X1311Y710D01*
X813Y709D02*
X818Y709D01*
X1305Y709D02*
X1311Y709D01*
X813Y708D02*
X819Y708D01*
X1305Y708D02*
X1311Y708D01*
X813Y707D02*
X819Y707D01*
X1304Y707D02*
X1311Y707D01*
X813Y706D02*
X819Y706D01*
X1304Y706D02*
X1311Y706D01*
X813Y705D02*
X819Y705D01*
X1304Y705D02*
X1311Y705D01*
X813Y704D02*
X820Y704D01*
X1304Y704D02*
X1311Y704D01*
X813Y703D02*
X820Y703D01*
X1304Y703D02*
X1311Y703D01*
X813Y702D02*
X820Y702D01*
X1304Y702D02*
X1311Y702D01*
X813Y701D02*
X820Y701D01*
X1304Y701D02*
X1311Y701D01*
X813Y700D02*
X820Y700D01*
X1304Y700D02*
X1311Y700D01*
X813Y699D02*
X820Y699D01*
X1304Y699D02*
X1311Y699D01*
X813Y698D02*
X820Y698D01*
X1304Y698D02*
X1311Y698D01*
X813Y697D02*
X820Y697D01*
X1304Y697D02*
X1311Y697D01*
X813Y696D02*
X820Y696D01*
X1304Y696D02*
X1311Y696D01*
X813Y695D02*
X820Y695D01*
X1304Y695D02*
X1311Y695D01*
X813Y694D02*
X820Y694D01*
X1304Y694D02*
X1311Y694D01*
X813Y693D02*
X820Y693D01*
X1304Y693D02*
X1311Y693D01*
X813Y692D02*
X820Y692D01*
X1304Y692D02*
X1311Y692D01*
X813Y691D02*
X820Y691D01*
X1304Y691D02*
X1311Y691D01*
X813Y690D02*
X820Y690D01*
X1304Y690D02*
X1311Y690D01*
X813Y689D02*
X820Y689D01*
X1304Y689D02*
X1311Y689D01*
X813Y688D02*
X820Y688D01*
X1304Y688D02*
X1311Y688D01*
X813Y687D02*
X820Y687D01*
X1304Y687D02*
X1311Y687D01*
X813Y686D02*
X820Y686D01*
X1304Y686D02*
X1311Y686D01*
X813Y685D02*
X820Y685D01*
X1304Y685D02*
X1311Y685D01*
X813Y684D02*
X820Y684D01*
X1304Y684D02*
X1311Y684D01*
X813Y683D02*
X820Y683D01*
X1304Y683D02*
X1311Y683D01*
X813Y682D02*
X820Y682D01*
X1304Y682D02*
X1311Y682D01*
X813Y681D02*
X820Y681D01*
X1304Y681D02*
X1311Y681D01*
X813Y680D02*
X820Y680D01*
X1304Y680D02*
X1311Y680D01*
X813Y679D02*
X820Y679D01*
X1304Y679D02*
X1311Y679D01*
X813Y678D02*
X820Y678D01*
X1304Y678D02*
X1311Y678D01*
X813Y677D02*
X820Y677D01*
X1304Y677D02*
X1311Y677D01*
X813Y676D02*
X820Y676D01*
X1304Y676D02*
X1311Y676D01*
X813Y675D02*
X820Y675D01*
X1304Y675D02*
X1311Y675D01*
X813Y674D02*
X820Y674D01*
X1304Y674D02*
X1311Y674D01*
X813Y673D02*
X1311Y673D01*
X813Y672D02*
X1311Y672D01*
X813Y671D02*
X1311Y671D01*
X813Y670D02*
X1311Y670D01*
X813Y669D02*
X1311Y669D01*
X813Y668D02*
X1311Y668D01*
X814Y667D02*
X1310Y667D01*
X815Y666D02*
X1309Y666D01*
X352Y594D02*
X592Y594D01*
X1532Y594D02*
X1772Y594D01*
X351Y593D02*
X593Y593D01*
X1531Y593D02*
X1773Y593D01*
X350Y592D02*
X593Y592D01*
X1531Y592D02*
X1774Y592D01*
X350Y591D02*
X593Y591D01*
X1531Y591D02*
X1774Y591D01*
X350Y590D02*
X593Y590D01*
X1531Y590D02*
X1774Y590D01*
X350Y589D02*
X593Y589D01*
X1531Y589D02*
X1774Y589D01*
X350Y588D02*
X593Y588D01*
X1531Y588D02*
X1774Y588D01*
X350Y587D02*
X593Y587D01*
X1531Y587D02*
X1774Y587D01*
X350Y586D02*
X357Y586D01*
X586Y586D02*
X593Y586D01*
X1531Y586D02*
X1538Y586D01*
X1767Y586D02*
X1774Y586D01*
X350Y585D02*
X357Y585D01*
X586Y585D02*
X593Y585D01*
X1531Y585D02*
X1538Y585D01*
X1767Y585D02*
X1774Y585D01*
X350Y584D02*
X357Y584D01*
X586Y584D02*
X593Y584D01*
X1531Y584D02*
X1538Y584D01*
X1767Y584D02*
X1774Y584D01*
X350Y583D02*
X357Y583D01*
X586Y583D02*
X593Y583D01*
X1531Y583D02*
X1538Y583D01*
X1767Y583D02*
X1774Y583D01*
X350Y582D02*
X357Y582D01*
X586Y582D02*
X593Y582D01*
X1531Y582D02*
X1538Y582D01*
X1767Y582D02*
X1774Y582D01*
X350Y581D02*
X357Y581D01*
X586Y581D02*
X593Y581D01*
X1531Y581D02*
X1538Y581D01*
X1767Y581D02*
X1774Y581D01*
X350Y580D02*
X357Y580D01*
X586Y580D02*
X593Y580D01*
X1531Y580D02*
X1538Y580D01*
X1767Y580D02*
X1774Y580D01*
X350Y579D02*
X357Y579D01*
X586Y579D02*
X593Y579D01*
X1531Y579D02*
X1538Y579D01*
X1767Y579D02*
X1774Y579D01*
X350Y578D02*
X357Y578D01*
X586Y578D02*
X593Y578D01*
X1531Y578D02*
X1538Y578D01*
X1767Y578D02*
X1774Y578D01*
X350Y577D02*
X357Y577D01*
X586Y577D02*
X593Y577D01*
X1531Y577D02*
X1538Y577D01*
X1767Y577D02*
X1774Y577D01*
X350Y576D02*
X357Y576D01*
X586Y576D02*
X593Y576D01*
X1531Y576D02*
X1538Y576D01*
X1767Y576D02*
X1774Y576D01*
X350Y575D02*
X357Y575D01*
X586Y575D02*
X593Y575D01*
X1531Y575D02*
X1538Y575D01*
X1767Y575D02*
X1774Y575D01*
X350Y574D02*
X357Y574D01*
X586Y574D02*
X593Y574D01*
X1531Y574D02*
X1538Y574D01*
X1767Y574D02*
X1774Y574D01*
X350Y573D02*
X357Y573D01*
X586Y573D02*
X593Y573D01*
X1531Y573D02*
X1538Y573D01*
X1767Y573D02*
X1774Y573D01*
X350Y572D02*
X357Y572D01*
X586Y572D02*
X593Y572D01*
X1531Y572D02*
X1538Y572D01*
X1767Y572D02*
X1774Y572D01*
X350Y571D02*
X357Y571D01*
X586Y571D02*
X593Y571D01*
X1531Y571D02*
X1538Y571D01*
X1767Y571D02*
X1774Y571D01*
X350Y570D02*
X357Y570D01*
X586Y570D02*
X593Y570D01*
X1531Y570D02*
X1538Y570D01*
X1767Y570D02*
X1774Y570D01*
X350Y569D02*
X357Y569D01*
X586Y569D02*
X593Y569D01*
X1531Y569D02*
X1538Y569D01*
X1767Y569D02*
X1774Y569D01*
X350Y568D02*
X357Y568D01*
X586Y568D02*
X593Y568D01*
X1531Y568D02*
X1538Y568D01*
X1767Y568D02*
X1774Y568D01*
X350Y567D02*
X357Y567D01*
X586Y567D02*
X593Y567D01*
X1531Y567D02*
X1538Y567D01*
X1767Y567D02*
X1774Y567D01*
X350Y566D02*
X357Y566D01*
X586Y566D02*
X593Y566D01*
X1531Y566D02*
X1538Y566D01*
X1767Y566D02*
X1774Y566D01*
X350Y565D02*
X357Y565D01*
X586Y565D02*
X593Y565D01*
X1531Y565D02*
X1538Y565D01*
X1767Y565D02*
X1774Y565D01*
X350Y564D02*
X357Y564D01*
X586Y564D02*
X593Y564D01*
X1531Y564D02*
X1538Y564D01*
X1767Y564D02*
X1774Y564D01*
X350Y563D02*
X357Y563D01*
X586Y563D02*
X593Y563D01*
X1531Y563D02*
X1538Y563D01*
X1767Y563D02*
X1774Y563D01*
X350Y562D02*
X357Y562D01*
X586Y562D02*
X593Y562D01*
X1531Y562D02*
X1538Y562D01*
X1767Y562D02*
X1774Y562D01*
X350Y561D02*
X357Y561D01*
X586Y561D02*
X593Y561D01*
X1531Y561D02*
X1538Y561D01*
X1767Y561D02*
X1774Y561D01*
X350Y560D02*
X357Y560D01*
X586Y560D02*
X593Y560D01*
X1531Y560D02*
X1538Y560D01*
X1767Y560D02*
X1774Y560D01*
X350Y559D02*
X357Y559D01*
X586Y559D02*
X593Y559D01*
X1531Y559D02*
X1538Y559D01*
X1767Y559D02*
X1774Y559D01*
X350Y558D02*
X357Y558D01*
X586Y558D02*
X593Y558D01*
X1531Y558D02*
X1538Y558D01*
X1767Y558D02*
X1774Y558D01*
X350Y557D02*
X357Y557D01*
X586Y557D02*
X593Y557D01*
X1531Y557D02*
X1538Y557D01*
X1767Y557D02*
X1774Y557D01*
X350Y556D02*
X357Y556D01*
X586Y556D02*
X593Y556D01*
X1531Y556D02*
X1538Y556D01*
X1767Y556D02*
X1774Y556D01*
X350Y555D02*
X357Y555D01*
X586Y555D02*
X593Y555D01*
X1531Y555D02*
X1538Y555D01*
X1767Y555D02*
X1774Y555D01*
X350Y554D02*
X357Y554D01*
X586Y554D02*
X593Y554D01*
X1531Y554D02*
X1538Y554D01*
X1767Y554D02*
X1774Y554D01*
X350Y553D02*
X357Y553D01*
X586Y553D02*
X593Y553D01*
X1531Y553D02*
X1538Y553D01*
X1767Y553D02*
X1774Y553D01*
X350Y552D02*
X357Y552D01*
X586Y552D02*
X593Y552D01*
X1531Y552D02*
X1538Y552D01*
X1767Y552D02*
X1774Y552D01*
X350Y551D02*
X357Y551D01*
X586Y551D02*
X593Y551D01*
X1531Y551D02*
X1538Y551D01*
X1767Y551D02*
X1774Y551D01*
X350Y550D02*
X357Y550D01*
X586Y550D02*
X593Y550D01*
X1531Y550D02*
X1538Y550D01*
X1767Y550D02*
X1774Y550D01*
X350Y549D02*
X357Y549D01*
X586Y549D02*
X593Y549D01*
X1531Y549D02*
X1538Y549D01*
X1767Y549D02*
X1774Y549D01*
X350Y548D02*
X357Y548D01*
X586Y548D02*
X593Y548D01*
X1531Y548D02*
X1538Y548D01*
X1767Y548D02*
X1774Y548D01*
X350Y547D02*
X357Y547D01*
X586Y547D02*
X593Y547D01*
X1531Y547D02*
X1538Y547D01*
X1767Y547D02*
X1774Y547D01*
X350Y546D02*
X357Y546D01*
X586Y546D02*
X593Y546D01*
X1531Y546D02*
X1538Y546D01*
X1767Y546D02*
X1774Y546D01*
X350Y545D02*
X357Y545D01*
X586Y545D02*
X593Y545D01*
X1531Y545D02*
X1538Y545D01*
X1767Y545D02*
X1774Y545D01*
X350Y544D02*
X357Y544D01*
X586Y544D02*
X593Y544D01*
X1531Y544D02*
X1538Y544D01*
X1767Y544D02*
X1774Y544D01*
X350Y543D02*
X357Y543D01*
X586Y543D02*
X593Y543D01*
X1531Y543D02*
X1538Y543D01*
X1767Y543D02*
X1774Y543D01*
X350Y542D02*
X357Y542D01*
X586Y542D02*
X593Y542D01*
X1531Y542D02*
X1538Y542D01*
X1767Y542D02*
X1774Y542D01*
X350Y541D02*
X357Y541D01*
X586Y541D02*
X593Y541D01*
X1531Y541D02*
X1538Y541D01*
X1767Y541D02*
X1774Y541D01*
X350Y540D02*
X357Y540D01*
X586Y540D02*
X593Y540D01*
X1531Y540D02*
X1538Y540D01*
X1767Y540D02*
X1774Y540D01*
X350Y539D02*
X357Y539D01*
X586Y539D02*
X593Y539D01*
X1531Y539D02*
X1538Y539D01*
X1767Y539D02*
X1774Y539D01*
X350Y538D02*
X357Y538D01*
X586Y538D02*
X593Y538D01*
X1531Y538D02*
X1538Y538D01*
X1767Y538D02*
X1774Y538D01*
X350Y537D02*
X357Y537D01*
X586Y537D02*
X593Y537D01*
X1531Y537D02*
X1538Y537D01*
X1767Y537D02*
X1774Y537D01*
X350Y536D02*
X357Y536D01*
X586Y536D02*
X593Y536D01*
X1531Y536D02*
X1538Y536D01*
X1767Y536D02*
X1774Y536D01*
X350Y535D02*
X357Y535D01*
X586Y535D02*
X593Y535D01*
X1531Y535D02*
X1538Y535D01*
X1767Y535D02*
X1774Y535D01*
X350Y534D02*
X357Y534D01*
X586Y534D02*
X593Y534D01*
X1531Y534D02*
X1538Y534D01*
X1767Y534D02*
X1774Y534D01*
X350Y533D02*
X357Y533D01*
X586Y533D02*
X593Y533D01*
X1531Y533D02*
X1538Y533D01*
X1767Y533D02*
X1774Y533D01*
X350Y532D02*
X357Y532D01*
X586Y532D02*
X593Y532D01*
X1531Y532D02*
X1538Y532D01*
X1767Y532D02*
X1774Y532D01*
X350Y531D02*
X357Y531D01*
X586Y531D02*
X593Y531D01*
X1531Y531D02*
X1538Y531D01*
X1767Y531D02*
X1774Y531D01*
X350Y530D02*
X357Y530D01*
X586Y530D02*
X593Y530D01*
X1531Y530D02*
X1538Y530D01*
X1767Y530D02*
X1774Y530D01*
X350Y529D02*
X357Y529D01*
X586Y529D02*
X593Y529D01*
X1531Y529D02*
X1538Y529D01*
X1767Y529D02*
X1774Y529D01*
X350Y528D02*
X357Y528D01*
X586Y528D02*
X593Y528D01*
X1531Y528D02*
X1538Y528D01*
X1767Y528D02*
X1774Y528D01*
X350Y527D02*
X357Y527D01*
X586Y527D02*
X593Y527D01*
X1531Y527D02*
X1538Y527D01*
X1767Y527D02*
X1774Y527D01*
X350Y526D02*
X357Y526D01*
X586Y526D02*
X593Y526D01*
X1531Y526D02*
X1538Y526D01*
X1767Y526D02*
X1774Y526D01*
X350Y525D02*
X357Y525D01*
X586Y525D02*
X593Y525D01*
X1531Y525D02*
X1538Y525D01*
X1767Y525D02*
X1774Y525D01*
X350Y524D02*
X357Y524D01*
X586Y524D02*
X593Y524D01*
X1531Y524D02*
X1538Y524D01*
X1767Y524D02*
X1774Y524D01*
X350Y523D02*
X357Y523D01*
X586Y523D02*
X593Y523D01*
X1531Y523D02*
X1538Y523D01*
X1767Y523D02*
X1774Y523D01*
X350Y522D02*
X357Y522D01*
X586Y522D02*
X593Y522D01*
X1531Y522D02*
X1538Y522D01*
X1767Y522D02*
X1774Y522D01*
X350Y521D02*
X357Y521D01*
X586Y521D02*
X593Y521D01*
X1531Y521D02*
X1538Y521D01*
X1767Y521D02*
X1774Y521D01*
X350Y520D02*
X357Y520D01*
X586Y520D02*
X593Y520D01*
X1531Y520D02*
X1538Y520D01*
X1767Y520D02*
X1774Y520D01*
X350Y519D02*
X357Y519D01*
X586Y519D02*
X593Y519D01*
X1531Y519D02*
X1538Y519D01*
X1767Y519D02*
X1774Y519D01*
X350Y518D02*
X357Y518D01*
X586Y518D02*
X593Y518D01*
X1531Y518D02*
X1538Y518D01*
X1767Y518D02*
X1774Y518D01*
X350Y517D02*
X357Y517D01*
X586Y517D02*
X593Y517D01*
X1531Y517D02*
X1538Y517D01*
X1767Y517D02*
X1774Y517D01*
X350Y516D02*
X357Y516D01*
X586Y516D02*
X593Y516D01*
X1531Y516D02*
X1538Y516D01*
X1767Y516D02*
X1774Y516D01*
X350Y515D02*
X357Y515D01*
X586Y515D02*
X593Y515D01*
X1531Y515D02*
X1538Y515D01*
X1767Y515D02*
X1774Y515D01*
X350Y514D02*
X357Y514D01*
X586Y514D02*
X593Y514D01*
X1531Y514D02*
X1538Y514D01*
X1767Y514D02*
X1774Y514D01*
X350Y513D02*
X357Y513D01*
X586Y513D02*
X593Y513D01*
X1531Y513D02*
X1538Y513D01*
X1767Y513D02*
X1774Y513D01*
X350Y512D02*
X357Y512D01*
X586Y512D02*
X593Y512D01*
X1531Y512D02*
X1538Y512D01*
X1767Y512D02*
X1774Y512D01*
X350Y511D02*
X357Y511D01*
X586Y511D02*
X593Y511D01*
X1531Y511D02*
X1538Y511D01*
X1767Y511D02*
X1774Y511D01*
X350Y510D02*
X357Y510D01*
X586Y510D02*
X593Y510D01*
X1531Y510D02*
X1538Y510D01*
X1767Y510D02*
X1774Y510D01*
X350Y509D02*
X357Y509D01*
X586Y509D02*
X593Y509D01*
X1531Y509D02*
X1538Y509D01*
X1767Y509D02*
X1774Y509D01*
X350Y508D02*
X357Y508D01*
X586Y508D02*
X593Y508D01*
X1531Y508D02*
X1538Y508D01*
X1767Y508D02*
X1774Y508D01*
X350Y507D02*
X357Y507D01*
X586Y507D02*
X593Y507D01*
X1531Y507D02*
X1538Y507D01*
X1767Y507D02*
X1774Y507D01*
X350Y506D02*
X357Y506D01*
X586Y506D02*
X593Y506D01*
X1531Y506D02*
X1538Y506D01*
X1767Y506D02*
X1774Y506D01*
X350Y505D02*
X357Y505D01*
X586Y505D02*
X593Y505D01*
X1531Y505D02*
X1538Y505D01*
X1767Y505D02*
X1774Y505D01*
X350Y504D02*
X357Y504D01*
X586Y504D02*
X593Y504D01*
X1531Y504D02*
X1538Y504D01*
X1767Y504D02*
X1774Y504D01*
X350Y503D02*
X357Y503D01*
X586Y503D02*
X593Y503D01*
X1531Y503D02*
X1538Y503D01*
X1767Y503D02*
X1774Y503D01*
X350Y502D02*
X357Y502D01*
X586Y502D02*
X593Y502D01*
X1531Y502D02*
X1538Y502D01*
X1767Y502D02*
X1774Y502D01*
X350Y501D02*
X357Y501D01*
X586Y501D02*
X593Y501D01*
X1531Y501D02*
X1538Y501D01*
X1767Y501D02*
X1774Y501D01*
X350Y500D02*
X357Y500D01*
X586Y500D02*
X593Y500D01*
X1531Y500D02*
X1538Y500D01*
X1767Y500D02*
X1774Y500D01*
X350Y499D02*
X357Y499D01*
X586Y499D02*
X593Y499D01*
X1531Y499D02*
X1538Y499D01*
X1767Y499D02*
X1774Y499D01*
X350Y498D02*
X357Y498D01*
X586Y498D02*
X593Y498D01*
X1531Y498D02*
X1538Y498D01*
X1767Y498D02*
X1774Y498D01*
X350Y497D02*
X357Y497D01*
X586Y497D02*
X593Y497D01*
X1531Y497D02*
X1538Y497D01*
X1767Y497D02*
X1774Y497D01*
X350Y496D02*
X357Y496D01*
X586Y496D02*
X593Y496D01*
X1531Y496D02*
X1538Y496D01*
X1767Y496D02*
X1774Y496D01*
X350Y495D02*
X357Y495D01*
X586Y495D02*
X593Y495D01*
X1531Y495D02*
X1538Y495D01*
X1767Y495D02*
X1774Y495D01*
X350Y494D02*
X357Y494D01*
X586Y494D02*
X593Y494D01*
X1531Y494D02*
X1538Y494D01*
X1767Y494D02*
X1774Y494D01*
X350Y493D02*
X357Y493D01*
X586Y493D02*
X593Y493D01*
X1531Y493D02*
X1538Y493D01*
X1767Y493D02*
X1774Y493D01*
X350Y492D02*
X357Y492D01*
X586Y492D02*
X593Y492D01*
X1531Y492D02*
X1538Y492D01*
X1767Y492D02*
X1774Y492D01*
X350Y491D02*
X357Y491D01*
X586Y491D02*
X593Y491D01*
X1531Y491D02*
X1538Y491D01*
X1767Y491D02*
X1774Y491D01*
X350Y490D02*
X357Y490D01*
X586Y490D02*
X593Y490D01*
X1531Y490D02*
X1538Y490D01*
X1767Y490D02*
X1774Y490D01*
X350Y489D02*
X357Y489D01*
X586Y489D02*
X593Y489D01*
X1531Y489D02*
X1538Y489D01*
X1767Y489D02*
X1774Y489D01*
X350Y488D02*
X357Y488D01*
X586Y488D02*
X593Y488D01*
X1531Y488D02*
X1538Y488D01*
X1767Y488D02*
X1774Y488D01*
X350Y487D02*
X357Y487D01*
X586Y487D02*
X593Y487D01*
X1531Y487D02*
X1538Y487D01*
X1767Y487D02*
X1774Y487D01*
X350Y486D02*
X357Y486D01*
X586Y486D02*
X593Y486D01*
X1531Y486D02*
X1538Y486D01*
X1767Y486D02*
X1774Y486D01*
X350Y485D02*
X357Y485D01*
X586Y485D02*
X593Y485D01*
X1531Y485D02*
X1538Y485D01*
X1767Y485D02*
X1774Y485D01*
X350Y484D02*
X357Y484D01*
X586Y484D02*
X593Y484D01*
X1531Y484D02*
X1538Y484D01*
X1767Y484D02*
X1774Y484D01*
X350Y483D02*
X357Y483D01*
X586Y483D02*
X593Y483D01*
X1531Y483D02*
X1538Y483D01*
X1767Y483D02*
X1774Y483D01*
X350Y482D02*
X357Y482D01*
X586Y482D02*
X593Y482D01*
X1531Y482D02*
X1538Y482D01*
X1767Y482D02*
X1774Y482D01*
X350Y481D02*
X357Y481D01*
X586Y481D02*
X593Y481D01*
X1531Y481D02*
X1538Y481D01*
X1767Y481D02*
X1774Y481D01*
X350Y480D02*
X357Y480D01*
X586Y480D02*
X593Y480D01*
X1531Y480D02*
X1538Y480D01*
X1767Y480D02*
X1774Y480D01*
X350Y479D02*
X357Y479D01*
X586Y479D02*
X593Y479D01*
X1531Y479D02*
X1538Y479D01*
X1767Y479D02*
X1774Y479D01*
X350Y478D02*
X357Y478D01*
X586Y478D02*
X593Y478D01*
X1531Y478D02*
X1538Y478D01*
X1767Y478D02*
X1774Y478D01*
X350Y477D02*
X357Y477D01*
X586Y477D02*
X593Y477D01*
X1531Y477D02*
X1538Y477D01*
X1767Y477D02*
X1774Y477D01*
X350Y476D02*
X357Y476D01*
X586Y476D02*
X593Y476D01*
X1531Y476D02*
X1538Y476D01*
X1767Y476D02*
X1774Y476D01*
X350Y475D02*
X357Y475D01*
X586Y475D02*
X593Y475D01*
X1531Y475D02*
X1538Y475D01*
X1767Y475D02*
X1774Y475D01*
X350Y474D02*
X357Y474D01*
X586Y474D02*
X593Y474D01*
X1531Y474D02*
X1538Y474D01*
X1767Y474D02*
X1774Y474D01*
X350Y473D02*
X357Y473D01*
X586Y473D02*
X593Y473D01*
X1531Y473D02*
X1538Y473D01*
X1767Y473D02*
X1774Y473D01*
X350Y472D02*
X357Y472D01*
X586Y472D02*
X593Y472D01*
X1531Y472D02*
X1538Y472D01*
X1767Y472D02*
X1774Y472D01*
X350Y471D02*
X357Y471D01*
X586Y471D02*
X593Y471D01*
X1531Y471D02*
X1538Y471D01*
X1767Y471D02*
X1774Y471D01*
X350Y470D02*
X357Y470D01*
X586Y470D02*
X593Y470D01*
X1531Y470D02*
X1538Y470D01*
X1767Y470D02*
X1774Y470D01*
X350Y469D02*
X357Y469D01*
X586Y469D02*
X593Y469D01*
X1531Y469D02*
X1538Y469D01*
X1767Y469D02*
X1774Y469D01*
X350Y468D02*
X357Y468D01*
X586Y468D02*
X593Y468D01*
X1531Y468D02*
X1538Y468D01*
X1767Y468D02*
X1774Y468D01*
X350Y467D02*
X357Y467D01*
X586Y467D02*
X593Y467D01*
X1531Y467D02*
X1538Y467D01*
X1767Y467D02*
X1774Y467D01*
X350Y466D02*
X357Y466D01*
X586Y466D02*
X593Y466D01*
X1531Y466D02*
X1538Y466D01*
X1767Y466D02*
X1774Y466D01*
X350Y465D02*
X357Y465D01*
X586Y465D02*
X593Y465D01*
X1531Y465D02*
X1538Y465D01*
X1767Y465D02*
X1774Y465D01*
X350Y464D02*
X357Y464D01*
X586Y464D02*
X593Y464D01*
X1531Y464D02*
X1538Y464D01*
X1767Y464D02*
X1774Y464D01*
X350Y463D02*
X357Y463D01*
X586Y463D02*
X593Y463D01*
X1531Y463D02*
X1538Y463D01*
X1767Y463D02*
X1774Y463D01*
X350Y462D02*
X357Y462D01*
X586Y462D02*
X593Y462D01*
X1531Y462D02*
X1538Y462D01*
X1767Y462D02*
X1774Y462D01*
X350Y461D02*
X357Y461D01*
X586Y461D02*
X593Y461D01*
X1531Y461D02*
X1538Y461D01*
X1767Y461D02*
X1774Y461D01*
X350Y460D02*
X357Y460D01*
X586Y460D02*
X593Y460D01*
X1531Y460D02*
X1538Y460D01*
X1767Y460D02*
X1774Y460D01*
X350Y459D02*
X357Y459D01*
X586Y459D02*
X593Y459D01*
X1531Y459D02*
X1538Y459D01*
X1767Y459D02*
X1774Y459D01*
X350Y458D02*
X357Y458D01*
X586Y458D02*
X593Y458D01*
X1531Y458D02*
X1538Y458D01*
X1767Y458D02*
X1774Y458D01*
X350Y457D02*
X357Y457D01*
X586Y457D02*
X593Y457D01*
X1531Y457D02*
X1538Y457D01*
X1767Y457D02*
X1774Y457D01*
X350Y456D02*
X357Y456D01*
X586Y456D02*
X593Y456D01*
X1531Y456D02*
X1538Y456D01*
X1767Y456D02*
X1774Y456D01*
X350Y455D02*
X357Y455D01*
X586Y455D02*
X593Y455D01*
X1531Y455D02*
X1538Y455D01*
X1767Y455D02*
X1774Y455D01*
X350Y454D02*
X357Y454D01*
X586Y454D02*
X593Y454D01*
X1531Y454D02*
X1538Y454D01*
X1767Y454D02*
X1774Y454D01*
X350Y453D02*
X357Y453D01*
X586Y453D02*
X593Y453D01*
X1531Y453D02*
X1538Y453D01*
X1767Y453D02*
X1774Y453D01*
X350Y452D02*
X357Y452D01*
X586Y452D02*
X593Y452D01*
X1531Y452D02*
X1538Y452D01*
X1767Y452D02*
X1774Y452D01*
X350Y451D02*
X357Y451D01*
X586Y451D02*
X593Y451D01*
X1531Y451D02*
X1538Y451D01*
X1767Y451D02*
X1774Y451D01*
X350Y450D02*
X357Y450D01*
X586Y450D02*
X593Y450D01*
X1531Y450D02*
X1538Y450D01*
X1767Y450D02*
X1774Y450D01*
X350Y449D02*
X357Y449D01*
X586Y449D02*
X593Y449D01*
X1531Y449D02*
X1538Y449D01*
X1767Y449D02*
X1774Y449D01*
X350Y448D02*
X357Y448D01*
X586Y448D02*
X593Y448D01*
X1531Y448D02*
X1538Y448D01*
X1767Y448D02*
X1774Y448D01*
X350Y447D02*
X357Y447D01*
X586Y447D02*
X593Y447D01*
X1531Y447D02*
X1538Y447D01*
X1767Y447D02*
X1774Y447D01*
X350Y446D02*
X357Y446D01*
X586Y446D02*
X593Y446D01*
X1531Y446D02*
X1538Y446D01*
X1767Y446D02*
X1774Y446D01*
X350Y445D02*
X357Y445D01*
X586Y445D02*
X593Y445D01*
X1531Y445D02*
X1538Y445D01*
X1767Y445D02*
X1774Y445D01*
X350Y444D02*
X357Y444D01*
X586Y444D02*
X593Y444D01*
X1531Y444D02*
X1538Y444D01*
X1767Y444D02*
X1774Y444D01*
X350Y443D02*
X357Y443D01*
X586Y443D02*
X593Y443D01*
X1531Y443D02*
X1538Y443D01*
X1767Y443D02*
X1774Y443D01*
X350Y442D02*
X357Y442D01*
X586Y442D02*
X593Y442D01*
X1531Y442D02*
X1538Y442D01*
X1767Y442D02*
X1774Y442D01*
X350Y441D02*
X357Y441D01*
X586Y441D02*
X593Y441D01*
X1531Y441D02*
X1538Y441D01*
X1767Y441D02*
X1774Y441D01*
X350Y440D02*
X357Y440D01*
X586Y440D02*
X593Y440D01*
X1531Y440D02*
X1538Y440D01*
X1767Y440D02*
X1774Y440D01*
X350Y439D02*
X357Y439D01*
X586Y439D02*
X593Y439D01*
X1531Y439D02*
X1538Y439D01*
X1767Y439D02*
X1774Y439D01*
X350Y438D02*
X357Y438D01*
X586Y438D02*
X593Y438D01*
X1531Y438D02*
X1538Y438D01*
X1767Y438D02*
X1774Y438D01*
X350Y437D02*
X357Y437D01*
X586Y437D02*
X593Y437D01*
X1531Y437D02*
X1538Y437D01*
X1767Y437D02*
X1774Y437D01*
X350Y436D02*
X357Y436D01*
X586Y436D02*
X593Y436D01*
X1531Y436D02*
X1538Y436D01*
X1767Y436D02*
X1774Y436D01*
X350Y435D02*
X357Y435D01*
X586Y435D02*
X593Y435D01*
X1531Y435D02*
X1538Y435D01*
X1767Y435D02*
X1774Y435D01*
X350Y434D02*
X357Y434D01*
X586Y434D02*
X593Y434D01*
X1531Y434D02*
X1538Y434D01*
X1767Y434D02*
X1774Y434D01*
X350Y433D02*
X357Y433D01*
X586Y433D02*
X593Y433D01*
X1531Y433D02*
X1538Y433D01*
X1767Y433D02*
X1774Y433D01*
X350Y432D02*
X357Y432D01*
X586Y432D02*
X593Y432D01*
X1531Y432D02*
X1538Y432D01*
X1767Y432D02*
X1774Y432D01*
X350Y431D02*
X357Y431D01*
X586Y431D02*
X593Y431D01*
X1531Y431D02*
X1538Y431D01*
X1767Y431D02*
X1774Y431D01*
X350Y430D02*
X357Y430D01*
X586Y430D02*
X593Y430D01*
X1531Y430D02*
X1538Y430D01*
X1767Y430D02*
X1774Y430D01*
X350Y429D02*
X357Y429D01*
X586Y429D02*
X593Y429D01*
X1531Y429D02*
X1538Y429D01*
X1767Y429D02*
X1774Y429D01*
X350Y428D02*
X357Y428D01*
X586Y428D02*
X593Y428D01*
X1531Y428D02*
X1538Y428D01*
X1767Y428D02*
X1774Y428D01*
X350Y427D02*
X357Y427D01*
X586Y427D02*
X593Y427D01*
X1531Y427D02*
X1538Y427D01*
X1767Y427D02*
X1774Y427D01*
X350Y426D02*
X357Y426D01*
X586Y426D02*
X593Y426D01*
X1531Y426D02*
X1538Y426D01*
X1767Y426D02*
X1774Y426D01*
X350Y425D02*
X357Y425D01*
X586Y425D02*
X593Y425D01*
X1531Y425D02*
X1538Y425D01*
X1767Y425D02*
X1774Y425D01*
X350Y424D02*
X357Y424D01*
X586Y424D02*
X593Y424D01*
X1531Y424D02*
X1538Y424D01*
X1767Y424D02*
X1774Y424D01*
X350Y423D02*
X357Y423D01*
X586Y423D02*
X593Y423D01*
X1531Y423D02*
X1538Y423D01*
X1767Y423D02*
X1774Y423D01*
X350Y422D02*
X357Y422D01*
X586Y422D02*
X593Y422D01*
X1531Y422D02*
X1538Y422D01*
X1767Y422D02*
X1774Y422D01*
X350Y421D02*
X357Y421D01*
X586Y421D02*
X593Y421D01*
X880Y421D02*
X905Y421D01*
X927Y421D02*
X928Y421D01*
X954Y421D02*
X955Y421D01*
X1531Y421D02*
X1538Y421D01*
X1767Y421D02*
X1774Y421D01*
X350Y420D02*
X357Y420D01*
X586Y420D02*
X593Y420D01*
X878Y420D02*
X907Y420D01*
X925Y420D02*
X929Y420D01*
X953Y420D02*
X957Y420D01*
X1531Y420D02*
X1538Y420D01*
X1767Y420D02*
X1774Y420D01*
X350Y419D02*
X357Y419D01*
X586Y419D02*
X593Y419D01*
X876Y419D02*
X908Y419D01*
X925Y419D02*
X930Y419D01*
X952Y419D02*
X958Y419D01*
X1531Y419D02*
X1538Y419D01*
X1767Y419D02*
X1774Y419D01*
X350Y418D02*
X357Y418D01*
X586Y418D02*
X593Y418D01*
X876Y418D02*
X908Y418D01*
X924Y418D02*
X930Y418D01*
X952Y418D02*
X958Y418D01*
X1531Y418D02*
X1538Y418D01*
X1767Y418D02*
X1774Y418D01*
X350Y417D02*
X357Y417D01*
X586Y417D02*
X593Y417D01*
X875Y417D02*
X908Y417D01*
X924Y417D02*
X930Y417D01*
X952Y417D02*
X958Y417D01*
X1531Y417D02*
X1538Y417D01*
X1767Y417D02*
X1774Y417D01*
X350Y416D02*
X357Y416D01*
X586Y416D02*
X593Y416D01*
X875Y416D02*
X907Y416D01*
X924Y416D02*
X930Y416D01*
X952Y416D02*
X958Y416D01*
X1531Y416D02*
X1538Y416D01*
X1767Y416D02*
X1774Y416D01*
X350Y415D02*
X357Y415D01*
X586Y415D02*
X593Y415D01*
X874Y415D02*
X907Y415D01*
X924Y415D02*
X930Y415D01*
X952Y415D02*
X958Y415D01*
X1531Y415D02*
X1538Y415D01*
X1767Y415D02*
X1774Y415D01*
X350Y414D02*
X357Y414D01*
X586Y414D02*
X593Y414D01*
X874Y414D02*
X881Y414D01*
X924Y414D02*
X930Y414D01*
X952Y414D02*
X958Y414D01*
X1531Y414D02*
X1538Y414D01*
X1767Y414D02*
X1774Y414D01*
X350Y413D02*
X357Y413D01*
X586Y413D02*
X593Y413D01*
X874Y413D02*
X880Y413D01*
X924Y413D02*
X930Y413D01*
X952Y413D02*
X958Y413D01*
X1531Y413D02*
X1538Y413D01*
X1767Y413D02*
X1774Y413D01*
X350Y412D02*
X357Y412D01*
X586Y412D02*
X593Y412D01*
X874Y412D02*
X880Y412D01*
X924Y412D02*
X930Y412D01*
X952Y412D02*
X958Y412D01*
X1531Y412D02*
X1538Y412D01*
X1767Y412D02*
X1774Y412D01*
X350Y411D02*
X357Y411D01*
X586Y411D02*
X593Y411D01*
X874Y411D02*
X880Y411D01*
X924Y411D02*
X930Y411D01*
X952Y411D02*
X958Y411D01*
X1531Y411D02*
X1538Y411D01*
X1767Y411D02*
X1774Y411D01*
X350Y410D02*
X357Y410D01*
X586Y410D02*
X593Y410D01*
X874Y410D02*
X880Y410D01*
X924Y410D02*
X930Y410D01*
X952Y410D02*
X958Y410D01*
X1531Y410D02*
X1538Y410D01*
X1767Y410D02*
X1774Y410D01*
X350Y409D02*
X357Y409D01*
X586Y409D02*
X593Y409D01*
X874Y409D02*
X880Y409D01*
X924Y409D02*
X930Y409D01*
X952Y409D02*
X958Y409D01*
X967Y409D02*
X967Y409D01*
X1002Y409D02*
X1017Y409D01*
X1052Y409D02*
X1067Y409D01*
X1102Y409D02*
X1116Y409D01*
X1151Y409D02*
X1151Y409D01*
X1531Y409D02*
X1538Y409D01*
X1767Y409D02*
X1774Y409D01*
X350Y408D02*
X357Y408D01*
X586Y408D02*
X593Y408D01*
X874Y408D02*
X880Y408D01*
X924Y408D02*
X930Y408D01*
X952Y408D02*
X958Y408D01*
X967Y408D02*
X967Y408D01*
X1002Y408D02*
X1017Y408D01*
X1052Y408D02*
X1067Y408D01*
X1102Y408D02*
X1116Y408D01*
X1151Y408D02*
X1151Y408D01*
X1531Y408D02*
X1538Y408D01*
X1767Y408D02*
X1774Y408D01*
X350Y407D02*
X357Y407D01*
X586Y407D02*
X593Y407D01*
X874Y407D02*
X880Y407D01*
X924Y407D02*
X930Y407D01*
X952Y407D02*
X958Y407D01*
X967Y407D02*
X967Y407D01*
X1002Y407D02*
X1017Y407D01*
X1052Y407D02*
X1067Y407D01*
X1102Y407D02*
X1116Y407D01*
X1151Y407D02*
X1151Y407D01*
X1531Y407D02*
X1538Y407D01*
X1767Y407D02*
X1774Y407D01*
X350Y406D02*
X357Y406D01*
X586Y406D02*
X593Y406D01*
X874Y406D02*
X880Y406D01*
X924Y406D02*
X930Y406D01*
X952Y406D02*
X958Y406D01*
X967Y406D02*
X967Y406D01*
X1002Y406D02*
X1017Y406D01*
X1052Y406D02*
X1067Y406D01*
X1102Y406D02*
X1116Y406D01*
X1151Y406D02*
X1151Y406D01*
X1531Y406D02*
X1538Y406D01*
X1767Y406D02*
X1774Y406D01*
X350Y405D02*
X357Y405D01*
X586Y405D02*
X593Y405D01*
X874Y405D02*
X880Y405D01*
X924Y405D02*
X930Y405D01*
X952Y405D02*
X958Y405D01*
X967Y405D02*
X967Y405D01*
X1002Y405D02*
X1017Y405D01*
X1052Y405D02*
X1067Y405D01*
X1102Y405D02*
X1116Y405D01*
X1151Y405D02*
X1151Y405D01*
X1531Y405D02*
X1538Y405D01*
X1767Y405D02*
X1774Y405D01*
X350Y404D02*
X357Y404D01*
X586Y404D02*
X593Y404D01*
X874Y404D02*
X880Y404D01*
X924Y404D02*
X930Y404D01*
X952Y404D02*
X958Y404D01*
X967Y404D02*
X967Y404D01*
X1002Y404D02*
X1017Y404D01*
X1052Y404D02*
X1067Y404D01*
X1102Y404D02*
X1116Y404D01*
X1151Y404D02*
X1151Y404D01*
X1531Y404D02*
X1538Y404D01*
X1767Y404D02*
X1774Y404D01*
X350Y403D02*
X357Y403D01*
X586Y403D02*
X593Y403D01*
X874Y403D02*
X880Y403D01*
X924Y403D02*
X930Y403D01*
X952Y403D02*
X958Y403D01*
X967Y403D02*
X967Y403D01*
X1151Y403D02*
X1151Y403D01*
X1531Y403D02*
X1538Y403D01*
X1767Y403D02*
X1774Y403D01*
X350Y402D02*
X357Y402D01*
X586Y402D02*
X593Y402D01*
X874Y402D02*
X880Y402D01*
X924Y402D02*
X930Y402D01*
X952Y402D02*
X958Y402D01*
X967Y402D02*
X967Y402D01*
X1151Y402D02*
X1151Y402D01*
X1531Y402D02*
X1538Y402D01*
X1767Y402D02*
X1774Y402D01*
X350Y401D02*
X357Y401D01*
X586Y401D02*
X593Y401D01*
X874Y401D02*
X880Y401D01*
X924Y401D02*
X930Y401D01*
X952Y401D02*
X958Y401D01*
X967Y401D02*
X967Y401D01*
X1151Y401D02*
X1151Y401D01*
X1531Y401D02*
X1538Y401D01*
X1767Y401D02*
X1774Y401D01*
X350Y400D02*
X357Y400D01*
X586Y400D02*
X593Y400D01*
X874Y400D02*
X880Y400D01*
X924Y400D02*
X930Y400D01*
X952Y400D02*
X958Y400D01*
X967Y400D02*
X967Y400D01*
X1151Y400D02*
X1151Y400D01*
X1531Y400D02*
X1538Y400D01*
X1767Y400D02*
X1774Y400D01*
X350Y399D02*
X357Y399D01*
X586Y399D02*
X593Y399D01*
X874Y399D02*
X880Y399D01*
X924Y399D02*
X930Y399D01*
X952Y399D02*
X958Y399D01*
X967Y399D02*
X967Y399D01*
X1151Y399D02*
X1151Y399D01*
X1531Y399D02*
X1538Y399D01*
X1767Y399D02*
X1774Y399D01*
X350Y398D02*
X357Y398D01*
X586Y398D02*
X593Y398D01*
X874Y398D02*
X880Y398D01*
X924Y398D02*
X930Y398D01*
X952Y398D02*
X958Y398D01*
X967Y398D02*
X967Y398D01*
X1151Y398D02*
X1151Y398D01*
X1531Y398D02*
X1538Y398D01*
X1767Y398D02*
X1774Y398D01*
X350Y397D02*
X357Y397D01*
X586Y397D02*
X593Y397D01*
X874Y397D02*
X904Y397D01*
X924Y397D02*
X930Y397D01*
X952Y397D02*
X958Y397D01*
X967Y397D02*
X967Y397D01*
X1151Y397D02*
X1151Y397D01*
X1531Y397D02*
X1538Y397D01*
X1767Y397D02*
X1774Y397D01*
X350Y396D02*
X357Y396D01*
X586Y396D02*
X593Y396D01*
X874Y396D02*
X905Y396D01*
X924Y396D02*
X930Y396D01*
X952Y396D02*
X958Y396D01*
X967Y396D02*
X967Y396D01*
X1151Y396D02*
X1151Y396D01*
X1531Y396D02*
X1538Y396D01*
X1767Y396D02*
X1774Y396D01*
X350Y395D02*
X357Y395D01*
X586Y395D02*
X593Y395D01*
X875Y395D02*
X906Y395D01*
X924Y395D02*
X930Y395D01*
X952Y395D02*
X958Y395D01*
X967Y395D02*
X967Y395D01*
X1151Y395D02*
X1151Y395D01*
X1531Y395D02*
X1538Y395D01*
X1767Y395D02*
X1774Y395D01*
X350Y394D02*
X357Y394D01*
X586Y394D02*
X593Y394D01*
X875Y394D02*
X907Y394D01*
X924Y394D02*
X930Y394D01*
X952Y394D02*
X958Y394D01*
X967Y394D02*
X967Y394D01*
X1151Y394D02*
X1151Y394D01*
X1531Y394D02*
X1538Y394D01*
X1767Y394D02*
X1774Y394D01*
X350Y393D02*
X357Y393D01*
X586Y393D02*
X593Y393D01*
X876Y393D02*
X907Y393D01*
X924Y393D02*
X930Y393D01*
X952Y393D02*
X958Y393D01*
X967Y393D02*
X967Y393D01*
X1151Y393D02*
X1151Y393D01*
X1531Y393D02*
X1538Y393D01*
X1767Y393D02*
X1774Y393D01*
X350Y392D02*
X357Y392D01*
X586Y392D02*
X593Y392D01*
X877Y392D02*
X908Y392D01*
X924Y392D02*
X930Y392D01*
X952Y392D02*
X958Y392D01*
X967Y392D02*
X967Y392D01*
X1151Y392D02*
X1151Y392D01*
X1531Y392D02*
X1538Y392D01*
X1767Y392D02*
X1774Y392D01*
X350Y391D02*
X357Y391D01*
X586Y391D02*
X593Y391D01*
X879Y391D02*
X908Y391D01*
X924Y391D02*
X930Y391D01*
X952Y391D02*
X958Y391D01*
X967Y391D02*
X967Y391D01*
X1151Y391D02*
X1151Y391D01*
X1531Y391D02*
X1538Y391D01*
X1767Y391D02*
X1774Y391D01*
X350Y390D02*
X357Y390D01*
X586Y390D02*
X593Y390D01*
X902Y390D02*
X908Y390D01*
X924Y390D02*
X930Y390D01*
X952Y390D02*
X958Y390D01*
X967Y390D02*
X967Y390D01*
X1151Y390D02*
X1151Y390D01*
X1531Y390D02*
X1538Y390D01*
X1767Y390D02*
X1774Y390D01*
X350Y389D02*
X357Y389D01*
X586Y389D02*
X593Y389D01*
X902Y389D02*
X908Y389D01*
X924Y389D02*
X930Y389D01*
X952Y389D02*
X958Y389D01*
X967Y389D02*
X972Y389D01*
X1146Y389D02*
X1151Y389D01*
X1531Y389D02*
X1538Y389D01*
X1767Y389D02*
X1774Y389D01*
X350Y388D02*
X357Y388D01*
X586Y388D02*
X593Y388D01*
X902Y388D02*
X908Y388D01*
X924Y388D02*
X930Y388D01*
X952Y388D02*
X958Y388D01*
X967Y388D02*
X972Y388D01*
X1146Y388D02*
X1151Y388D01*
X1531Y388D02*
X1538Y388D01*
X1767Y388D02*
X1774Y388D01*
X350Y387D02*
X357Y387D01*
X586Y387D02*
X593Y387D01*
X902Y387D02*
X908Y387D01*
X924Y387D02*
X930Y387D01*
X952Y387D02*
X958Y387D01*
X967Y387D02*
X972Y387D01*
X1146Y387D02*
X1151Y387D01*
X1531Y387D02*
X1538Y387D01*
X1767Y387D02*
X1774Y387D01*
X350Y386D02*
X357Y386D01*
X586Y386D02*
X593Y386D01*
X902Y386D02*
X908Y386D01*
X924Y386D02*
X930Y386D01*
X952Y386D02*
X958Y386D01*
X967Y386D02*
X972Y386D01*
X1146Y386D02*
X1151Y386D01*
X1531Y386D02*
X1538Y386D01*
X1767Y386D02*
X1774Y386D01*
X350Y385D02*
X357Y385D01*
X586Y385D02*
X593Y385D01*
X902Y385D02*
X908Y385D01*
X924Y385D02*
X930Y385D01*
X952Y385D02*
X958Y385D01*
X967Y385D02*
X972Y385D01*
X1146Y385D02*
X1151Y385D01*
X1531Y385D02*
X1538Y385D01*
X1767Y385D02*
X1774Y385D01*
X350Y384D02*
X357Y384D01*
X586Y384D02*
X593Y384D01*
X902Y384D02*
X908Y384D01*
X924Y384D02*
X930Y384D01*
X952Y384D02*
X958Y384D01*
X967Y384D02*
X972Y384D01*
X1146Y384D02*
X1151Y384D01*
X1531Y384D02*
X1538Y384D01*
X1767Y384D02*
X1774Y384D01*
X350Y383D02*
X357Y383D01*
X586Y383D02*
X593Y383D01*
X902Y383D02*
X908Y383D01*
X924Y383D02*
X930Y383D01*
X952Y383D02*
X958Y383D01*
X967Y383D02*
X972Y383D01*
X1146Y383D02*
X1151Y383D01*
X1531Y383D02*
X1538Y383D01*
X1767Y383D02*
X1774Y383D01*
X350Y382D02*
X357Y382D01*
X586Y382D02*
X593Y382D01*
X902Y382D02*
X908Y382D01*
X924Y382D02*
X930Y382D01*
X952Y382D02*
X958Y382D01*
X967Y382D02*
X972Y382D01*
X1146Y382D02*
X1151Y382D01*
X1531Y382D02*
X1538Y382D01*
X1767Y382D02*
X1774Y382D01*
X350Y381D02*
X357Y381D01*
X586Y381D02*
X593Y381D01*
X902Y381D02*
X908Y381D01*
X924Y381D02*
X930Y381D01*
X952Y381D02*
X958Y381D01*
X967Y381D02*
X972Y381D01*
X1146Y381D02*
X1151Y381D01*
X1531Y381D02*
X1538Y381D01*
X1767Y381D02*
X1774Y381D01*
X350Y380D02*
X357Y380D01*
X586Y380D02*
X593Y380D01*
X902Y380D02*
X908Y380D01*
X924Y380D02*
X930Y380D01*
X952Y380D02*
X958Y380D01*
X967Y380D02*
X972Y380D01*
X1146Y380D02*
X1151Y380D01*
X1531Y380D02*
X1538Y380D01*
X1767Y380D02*
X1774Y380D01*
X350Y379D02*
X357Y379D01*
X586Y379D02*
X593Y379D01*
X902Y379D02*
X908Y379D01*
X924Y379D02*
X930Y379D01*
X952Y379D02*
X958Y379D01*
X967Y379D02*
X972Y379D01*
X1146Y379D02*
X1151Y379D01*
X1531Y379D02*
X1538Y379D01*
X1767Y379D02*
X1774Y379D01*
X350Y378D02*
X357Y378D01*
X586Y378D02*
X593Y378D01*
X902Y378D02*
X908Y378D01*
X924Y378D02*
X930Y378D01*
X952Y378D02*
X958Y378D01*
X967Y378D02*
X972Y378D01*
X1146Y378D02*
X1151Y378D01*
X1531Y378D02*
X1538Y378D01*
X1767Y378D02*
X1774Y378D01*
X350Y377D02*
X357Y377D01*
X586Y377D02*
X593Y377D01*
X902Y377D02*
X908Y377D01*
X924Y377D02*
X930Y377D01*
X952Y377D02*
X958Y377D01*
X967Y377D02*
X972Y377D01*
X1146Y377D02*
X1151Y377D01*
X1531Y377D02*
X1538Y377D01*
X1767Y377D02*
X1774Y377D01*
X350Y376D02*
X357Y376D01*
X586Y376D02*
X593Y376D01*
X902Y376D02*
X908Y376D01*
X924Y376D02*
X931Y376D01*
X951Y376D02*
X958Y376D01*
X967Y376D02*
X972Y376D01*
X1146Y376D02*
X1151Y376D01*
X1531Y376D02*
X1538Y376D01*
X1767Y376D02*
X1774Y376D01*
X350Y375D02*
X357Y375D01*
X586Y375D02*
X593Y375D01*
X902Y375D02*
X908Y375D01*
X925Y375D02*
X931Y375D01*
X951Y375D02*
X957Y375D01*
X967Y375D02*
X972Y375D01*
X1146Y375D02*
X1151Y375D01*
X1531Y375D02*
X1538Y375D01*
X1767Y375D02*
X1774Y375D01*
X350Y374D02*
X357Y374D01*
X586Y374D02*
X593Y374D01*
X878Y374D02*
X908Y374D01*
X925Y374D02*
X957Y374D01*
X967Y374D02*
X972Y374D01*
X1146Y374D02*
X1151Y374D01*
X1531Y374D02*
X1538Y374D01*
X1767Y374D02*
X1774Y374D01*
X350Y373D02*
X357Y373D01*
X586Y373D02*
X593Y373D01*
X875Y373D02*
X908Y373D01*
X925Y373D02*
X957Y373D01*
X967Y373D02*
X972Y373D01*
X1146Y373D02*
X1151Y373D01*
X1531Y373D02*
X1538Y373D01*
X1767Y373D02*
X1774Y373D01*
X350Y372D02*
X357Y372D01*
X586Y372D02*
X593Y372D01*
X875Y372D02*
X908Y372D01*
X926Y372D02*
X956Y372D01*
X967Y372D02*
X972Y372D01*
X1146Y372D02*
X1151Y372D01*
X1531Y372D02*
X1538Y372D01*
X1767Y372D02*
X1774Y372D01*
X350Y371D02*
X357Y371D01*
X586Y371D02*
X593Y371D01*
X874Y371D02*
X908Y371D01*
X927Y371D02*
X955Y371D01*
X967Y371D02*
X972Y371D01*
X1146Y371D02*
X1151Y371D01*
X1531Y371D02*
X1538Y371D01*
X1767Y371D02*
X1774Y371D01*
X350Y370D02*
X357Y370D01*
X586Y370D02*
X593Y370D01*
X874Y370D02*
X908Y370D01*
X928Y370D02*
X955Y370D01*
X967Y370D02*
X972Y370D01*
X1146Y370D02*
X1151Y370D01*
X1531Y370D02*
X1538Y370D01*
X1767Y370D02*
X1774Y370D01*
X350Y369D02*
X357Y369D01*
X586Y369D02*
X593Y369D01*
X875Y369D02*
X908Y369D01*
X929Y369D02*
X953Y369D01*
X967Y369D02*
X972Y369D01*
X1146Y369D02*
X1151Y369D01*
X1531Y369D02*
X1538Y369D01*
X1767Y369D02*
X1774Y369D01*
X350Y368D02*
X357Y368D01*
X586Y368D02*
X593Y368D01*
X875Y368D02*
X908Y368D01*
X930Y368D02*
X952Y368D01*
X967Y368D02*
X972Y368D01*
X1146Y368D02*
X1151Y368D01*
X1531Y368D02*
X1538Y368D01*
X1767Y368D02*
X1774Y368D01*
X350Y367D02*
X357Y367D01*
X586Y367D02*
X593Y367D01*
X967Y367D02*
X972Y367D01*
X1146Y367D02*
X1151Y367D01*
X1531Y367D02*
X1538Y367D01*
X1767Y367D02*
X1774Y367D01*
X350Y366D02*
X357Y366D01*
X586Y366D02*
X593Y366D01*
X967Y366D02*
X972Y366D01*
X1146Y366D02*
X1151Y366D01*
X1531Y366D02*
X1538Y366D01*
X1767Y366D02*
X1774Y366D01*
X350Y365D02*
X357Y365D01*
X586Y365D02*
X593Y365D01*
X967Y365D02*
X972Y365D01*
X1146Y365D02*
X1151Y365D01*
X1531Y365D02*
X1538Y365D01*
X1767Y365D02*
X1774Y365D01*
X350Y364D02*
X357Y364D01*
X586Y364D02*
X593Y364D01*
X967Y364D02*
X972Y364D01*
X1146Y364D02*
X1151Y364D01*
X1531Y364D02*
X1538Y364D01*
X1767Y364D02*
X1774Y364D01*
X350Y363D02*
X357Y363D01*
X586Y363D02*
X593Y363D01*
X967Y363D02*
X972Y363D01*
X1146Y363D02*
X1151Y363D01*
X1531Y363D02*
X1538Y363D01*
X1767Y363D02*
X1774Y363D01*
X350Y362D02*
X357Y362D01*
X586Y362D02*
X593Y362D01*
X967Y362D02*
X972Y362D01*
X1146Y362D02*
X1151Y362D01*
X1531Y362D02*
X1538Y362D01*
X1767Y362D02*
X1774Y362D01*
X350Y361D02*
X357Y361D01*
X586Y361D02*
X593Y361D01*
X967Y361D02*
X972Y361D01*
X1146Y361D02*
X1151Y361D01*
X1531Y361D02*
X1538Y361D01*
X1767Y361D02*
X1774Y361D01*
X350Y360D02*
X357Y360D01*
X586Y360D02*
X593Y360D01*
X967Y360D02*
X972Y360D01*
X1146Y360D02*
X1151Y360D01*
X1531Y360D02*
X1538Y360D01*
X1767Y360D02*
X1774Y360D01*
X350Y359D02*
X357Y359D01*
X586Y359D02*
X593Y359D01*
X967Y359D02*
X972Y359D01*
X1146Y359D02*
X1151Y359D01*
X1531Y359D02*
X1538Y359D01*
X1767Y359D02*
X1774Y359D01*
X350Y358D02*
X593Y358D01*
X967Y358D02*
X972Y358D01*
X1146Y358D02*
X1151Y358D01*
X1531Y358D02*
X1774Y358D01*
X350Y357D02*
X593Y357D01*
X967Y357D02*
X972Y357D01*
X1146Y357D02*
X1151Y357D01*
X1531Y357D02*
X1774Y357D01*
X350Y356D02*
X593Y356D01*
X967Y356D02*
X972Y356D01*
X1146Y356D02*
X1151Y356D01*
X1531Y356D02*
X1774Y356D01*
X350Y355D02*
X593Y355D01*
X967Y355D02*
X972Y355D01*
X1146Y355D02*
X1151Y355D01*
X1531Y355D02*
X1774Y355D01*
X350Y354D02*
X593Y354D01*
X967Y354D02*
X972Y354D01*
X1146Y354D02*
X1151Y354D01*
X1531Y354D02*
X1774Y354D01*
X351Y353D02*
X593Y353D01*
X967Y353D02*
X972Y353D01*
X1146Y353D02*
X1151Y353D01*
X1531Y353D02*
X1773Y353D01*
X351Y352D02*
X592Y352D01*
X967Y352D02*
X972Y352D01*
X1146Y352D02*
X1151Y352D01*
X1532Y352D02*
X1773Y352D01*
X353Y351D02*
X590Y351D01*
X967Y351D02*
X972Y351D01*
X1146Y351D02*
X1151Y351D01*
X1534Y351D02*
X1771Y351D01*
X967Y350D02*
X972Y350D01*
X1146Y350D02*
X1151Y350D01*
X967Y349D02*
X972Y349D01*
X1146Y349D02*
X1151Y349D01*
X967Y348D02*
X972Y348D01*
X1146Y348D02*
X1151Y348D01*
X967Y347D02*
X972Y347D01*
X1146Y347D02*
X1151Y347D01*
X967Y346D02*
X972Y346D01*
X1146Y346D02*
X1151Y346D01*
X967Y345D02*
X972Y345D01*
X1146Y345D02*
X1151Y345D01*
X967Y344D02*
X972Y344D01*
X1146Y344D02*
X1151Y344D01*
X967Y343D02*
X972Y343D01*
X1146Y343D02*
X1151Y343D01*
X967Y342D02*
X972Y342D01*
X1146Y342D02*
X1151Y342D01*
X967Y341D02*
X972Y341D01*
X1146Y341D02*
X1151Y341D01*
X967Y340D02*
X972Y340D01*
X1146Y340D02*
X1151Y340D01*
X967Y339D02*
X972Y339D01*
X1146Y339D02*
X1151Y339D01*
X967Y338D02*
X972Y338D01*
X1146Y338D02*
X1151Y338D01*
X967Y337D02*
X972Y337D01*
X1146Y337D02*
X1151Y337D01*
X967Y336D02*
X972Y336D01*
X1146Y336D02*
X1151Y336D01*
X967Y335D02*
X972Y335D01*
X1146Y335D02*
X1151Y335D01*
X967Y334D02*
X972Y334D01*
X1146Y334D02*
X1151Y334D01*
X967Y333D02*
X972Y333D01*
X1146Y333D02*
X1151Y333D01*
X967Y332D02*
X972Y332D01*
X1146Y332D02*
X1151Y332D01*
X967Y331D02*
X972Y331D01*
X1146Y331D02*
X1151Y331D01*
X967Y330D02*
X972Y330D01*
X1146Y330D02*
X1151Y330D01*
X967Y329D02*
X972Y329D01*
X1146Y329D02*
X1151Y329D01*
X967Y328D02*
X972Y328D01*
X1146Y328D02*
X1151Y328D01*
X967Y327D02*
X972Y327D01*
X1146Y327D02*
X1151Y327D01*
X967Y326D02*
X972Y326D01*
X1146Y326D02*
X1151Y326D01*
X967Y325D02*
X972Y325D01*
X1146Y325D02*
X1151Y325D01*
X967Y324D02*
X972Y324D01*
X1146Y324D02*
X1151Y324D01*
X967Y323D02*
X972Y323D01*
X1146Y323D02*
X1151Y323D01*
X967Y322D02*
X972Y322D01*
X1146Y322D02*
X1151Y322D01*
X967Y321D02*
X972Y321D01*
X1146Y321D02*
X1151Y321D01*
X967Y320D02*
X972Y320D01*
X1146Y320D02*
X1151Y320D01*
X967Y319D02*
X972Y319D01*
X1146Y319D02*
X1151Y319D01*
X967Y318D02*
X972Y318D01*
X1146Y318D02*
X1151Y318D01*
X967Y317D02*
X972Y317D01*
X1146Y317D02*
X1151Y317D01*
X967Y316D02*
X972Y316D01*
X1146Y316D02*
X1151Y316D01*
X967Y315D02*
X972Y315D01*
X1146Y315D02*
X1151Y315D01*
X967Y314D02*
X972Y314D01*
X1146Y314D02*
X1151Y314D01*
X967Y313D02*
X972Y313D01*
X1146Y313D02*
X1151Y313D01*
X967Y312D02*
X972Y312D01*
X1146Y312D02*
X1151Y312D01*
X967Y311D02*
X972Y311D01*
X1146Y311D02*
X1151Y311D01*
X967Y310D02*
X972Y310D01*
X1146Y310D02*
X1151Y310D01*
X967Y309D02*
X972Y309D01*
X1146Y309D02*
X1151Y309D01*
X967Y308D02*
X972Y308D01*
X1146Y308D02*
X1151Y308D01*
X967Y307D02*
X972Y307D01*
X1146Y307D02*
X1151Y307D01*
X967Y306D02*
X972Y306D01*
X1146Y306D02*
X1151Y306D01*
X967Y305D02*
X972Y305D01*
X1146Y305D02*
X1151Y305D01*
X967Y304D02*
X972Y304D01*
X1146Y304D02*
X1151Y304D01*
X967Y303D02*
X972Y303D01*
X1146Y303D02*
X1151Y303D01*
X967Y302D02*
X972Y302D01*
X1146Y302D02*
X1151Y302D01*
X967Y301D02*
X972Y301D01*
X1146Y301D02*
X1151Y301D01*
X967Y300D02*
X972Y300D01*
X1146Y300D02*
X1151Y300D01*
X967Y299D02*
X972Y299D01*
X1146Y299D02*
X1151Y299D01*
X967Y298D02*
X972Y298D01*
X1146Y298D02*
X1151Y298D01*
X967Y297D02*
X972Y297D01*
X1146Y297D02*
X1151Y297D01*
X967Y296D02*
X972Y296D01*
X1146Y296D02*
X1151Y296D01*
X967Y295D02*
X972Y295D01*
X1146Y295D02*
X1151Y295D01*
X967Y294D02*
X972Y294D01*
X1146Y294D02*
X1151Y294D01*
X967Y293D02*
X972Y293D01*
X1146Y293D02*
X1151Y293D01*
X967Y292D02*
X972Y292D01*
X1146Y292D02*
X1151Y292D01*
X967Y291D02*
X972Y291D01*
X1146Y291D02*
X1151Y291D01*
X967Y290D02*
X972Y290D01*
X1146Y290D02*
X1151Y290D01*
X967Y289D02*
X972Y289D01*
X1146Y289D02*
X1151Y289D01*
X967Y288D02*
X972Y288D01*
X1146Y288D02*
X1151Y288D01*
X967Y287D02*
X972Y287D01*
X1146Y287D02*
X1151Y287D01*
X967Y286D02*
X972Y286D01*
X1146Y286D02*
X1151Y286D01*
X967Y285D02*
X972Y285D01*
X1146Y285D02*
X1151Y285D01*
X967Y284D02*
X972Y284D01*
X1146Y284D02*
X1151Y284D01*
X967Y283D02*
X972Y283D01*
X1146Y283D02*
X1151Y283D01*
X967Y282D02*
X972Y282D01*
X1146Y282D02*
X1151Y282D01*
X967Y281D02*
X972Y281D01*
X1146Y281D02*
X1151Y281D01*
X967Y280D02*
X972Y280D01*
X1146Y280D02*
X1151Y280D01*
X967Y279D02*
X972Y279D01*
X1146Y279D02*
X1151Y279D01*
X967Y278D02*
X972Y278D01*
X1146Y278D02*
X1151Y278D01*
X967Y277D02*
X972Y277D01*
X1146Y277D02*
X1151Y277D01*
X967Y276D02*
X972Y276D01*
X1146Y276D02*
X1151Y276D01*
X967Y275D02*
X972Y275D01*
X1146Y275D02*
X1151Y275D01*
X967Y274D02*
X972Y274D01*
X1146Y274D02*
X1151Y274D01*
X967Y273D02*
X972Y273D01*
X1146Y273D02*
X1151Y273D01*
X967Y272D02*
X972Y272D01*
X1146Y272D02*
X1151Y272D01*
X967Y271D02*
X972Y271D01*
X1146Y271D02*
X1151Y271D01*
X967Y270D02*
X972Y270D01*
X1146Y270D02*
X1151Y270D01*
X967Y269D02*
X972Y269D01*
X1146Y269D02*
X1151Y269D01*
X967Y268D02*
X972Y268D01*
X1146Y268D02*
X1151Y268D01*
X967Y267D02*
X972Y267D01*
X1146Y267D02*
X1151Y267D01*
X967Y266D02*
X972Y266D01*
X1146Y266D02*
X1151Y266D01*
X967Y265D02*
X972Y265D01*
X1146Y265D02*
X1151Y265D01*
X967Y264D02*
X972Y264D01*
X1146Y264D02*
X1151Y264D01*
X967Y263D02*
X972Y263D01*
X1146Y263D02*
X1151Y263D01*
X967Y262D02*
X972Y262D01*
X1146Y262D02*
X1151Y262D01*
X967Y261D02*
X972Y261D01*
X1146Y261D02*
X1151Y261D01*
X967Y260D02*
X972Y260D01*
X1146Y260D02*
X1151Y260D01*
X967Y259D02*
X972Y259D01*
X1146Y259D02*
X1151Y259D01*
X967Y258D02*
X972Y258D01*
X1146Y258D02*
X1151Y258D01*
X967Y257D02*
X972Y257D01*
X1146Y257D02*
X1151Y257D01*
X967Y256D02*
X972Y256D01*
X1146Y256D02*
X1151Y256D01*
X967Y255D02*
X972Y255D01*
X1146Y255D02*
X1151Y255D01*
X967Y254D02*
X972Y254D01*
X1146Y254D02*
X1151Y254D01*
X967Y253D02*
X972Y253D01*
X1146Y253D02*
X1151Y253D01*
X967Y252D02*
X972Y252D01*
X1146Y252D02*
X1151Y252D01*
X967Y251D02*
X972Y251D01*
X1146Y251D02*
X1151Y251D01*
X967Y250D02*
X972Y250D01*
X1146Y250D02*
X1151Y250D01*
X967Y249D02*
X972Y249D01*
X1146Y249D02*
X1151Y249D01*
X967Y248D02*
X972Y248D01*
X1146Y248D02*
X1151Y248D01*
X967Y247D02*
X972Y247D01*
X1146Y247D02*
X1151Y247D01*
X967Y246D02*
X972Y246D01*
X1146Y246D02*
X1151Y246D01*
X967Y245D02*
X972Y245D01*
X1146Y245D02*
X1151Y245D01*
X967Y244D02*
X972Y244D01*
X1146Y244D02*
X1151Y244D01*
X967Y243D02*
X972Y243D01*
X1146Y243D02*
X1151Y243D01*
X967Y242D02*
X972Y242D01*
X1146Y242D02*
X1151Y242D01*
X967Y241D02*
X972Y241D01*
X1146Y241D02*
X1151Y241D01*
X967Y240D02*
X972Y240D01*
X1146Y240D02*
X1151Y240D01*
X967Y239D02*
X972Y239D01*
X1146Y239D02*
X1151Y239D01*
X967Y238D02*
X972Y238D01*
X1146Y238D02*
X1151Y238D01*
X967Y237D02*
X972Y237D01*
X1146Y237D02*
X1151Y237D01*
X967Y236D02*
X972Y236D01*
X1146Y236D02*
X1151Y236D01*
X967Y235D02*
X972Y235D01*
X1146Y235D02*
X1151Y235D01*
X967Y234D02*
X972Y234D01*
X1146Y234D02*
X1151Y234D01*
X967Y233D02*
X972Y233D01*
X1146Y233D02*
X1151Y233D01*
X967Y232D02*
X972Y232D01*
X1146Y232D02*
X1151Y232D01*
X967Y231D02*
X972Y231D01*
X1146Y231D02*
X1151Y231D01*
X967Y230D02*
X972Y230D01*
X1146Y230D02*
X1151Y230D01*
X967Y229D02*
X972Y229D01*
X1146Y229D02*
X1151Y229D01*
X967Y228D02*
X972Y228D01*
X1146Y228D02*
X1151Y228D01*
X967Y227D02*
X972Y227D01*
X1146Y227D02*
X1151Y227D01*
X967Y226D02*
X972Y226D01*
X1146Y226D02*
X1151Y226D01*
X967Y225D02*
X972Y225D01*
X1146Y225D02*
X1151Y225D01*
X967Y224D02*
X972Y224D01*
X1146Y224D02*
X1151Y224D01*
X967Y223D02*
X972Y223D01*
X1146Y223D02*
X1151Y223D01*
X967Y222D02*
X972Y222D01*
X1146Y222D02*
X1151Y222D01*
X967Y221D02*
X967Y221D01*
X1151Y221D02*
X1151Y221D01*
X967Y220D02*
X967Y220D01*
X1151Y220D02*
X1151Y220D01*
X967Y219D02*
X967Y219D01*
X1151Y219D02*
X1151Y219D01*
X967Y218D02*
X967Y218D01*
X1151Y218D02*
X1151Y218D01*
X967Y217D02*
X967Y217D01*
X1151Y217D02*
X1151Y217D01*
X967Y216D02*
X967Y216D01*
X1151Y216D02*
X1151Y216D01*
X967Y215D02*
X967Y215D01*
X1151Y215D02*
X1151Y215D01*
X967Y214D02*
X967Y214D01*
X1151Y214D02*
X1151Y214D01*
X967Y213D02*
X967Y213D01*
X1151Y213D02*
X1151Y213D01*
X967Y212D02*
X967Y212D01*
X1151Y212D02*
X1151Y212D01*
X967Y211D02*
X967Y211D01*
X1151Y211D02*
X1151Y211D01*
X967Y210D02*
X967Y210D01*
X1151Y210D02*
X1151Y210D01*
X967Y209D02*
X967Y209D01*
X1151Y209D02*
X1151Y209D01*
X967Y208D02*
X967Y208D01*
X1002Y208D02*
X1017Y208D01*
X1052Y208D02*
X1067Y208D01*
X1102Y208D02*
X1116Y208D01*
X1151Y208D02*
X1151Y208D01*
X967Y207D02*
X967Y207D01*
X1002Y207D02*
X1017Y207D01*
X1052Y207D02*
X1067Y207D01*
X1102Y207D02*
X1116Y207D01*
X1151Y207D02*
X1151Y207D01*
X967Y206D02*
X967Y206D01*
X1002Y206D02*
X1017Y206D01*
X1052Y206D02*
X1067Y206D01*
X1102Y206D02*
X1116Y206D01*
X1151Y206D02*
X1151Y206D01*
X967Y205D02*
X967Y205D01*
X1002Y205D02*
X1017Y205D01*
X1052Y205D02*
X1067Y205D01*
X1102Y205D02*
X1116Y205D01*
X1151Y205D02*
X1151Y205D01*
X967Y204D02*
X967Y204D01*
X1002Y204D02*
X1017Y204D01*
X1052Y204D02*
X1067Y204D01*
X1102Y204D02*
X1116Y204D01*
X1151Y204D02*
X1151Y204D01*
X967Y203D02*
X967Y203D01*
X1002Y203D02*
X1017Y203D01*
X1052Y203D02*
X1067Y203D01*
X1102Y203D02*
X1116Y203D01*
X1151Y203D02*
X1151Y203D01*
D02*
G04 End of Silk0*
M02*