<?xml version="1.0" encoding="UTF-8" standalone="no"?>
<svg
   xmlns:dc="http://purl.org/dc/elements/1.1/"
   xmlns:cc="http://creativecommons.org/ns#"
   xmlns:rdf="http://www.w3.org/1999/02/22-rdf-syntax-ns#"
   xmlns:svg="http://www.w3.org/2000/svg"
   xmlns="http://www.w3.org/2000/svg"
   version="1.1"
   id="svg2"
   viewBox="0 0 191.33858 184.25196"
   height="52mm"
   width="54mm">
  <defs
     id="defs4" />
  <metadata
     id="metadata7">
    <rdf:RDF>
      <cc:Work
         rdf:about="">
        <dc:format>image/svg+xml</dc:format>
        <dc:type
           rdf:resource="http://purl.org/dc/dcmitype/StillImage" />
        <dc:title></dc:title>
      </cc:Work>
    </rdf:RDF>
  </metadata>
  <g id="board">
  <path
     d="m 5.31445,0 0,15.96484 c 0,0.96984 -0.78019,1.75196 -1.75,1.75196 l -3.56445,0 0,56.6914 7.10742,0 c 0.96979,0 1.74998,0.78214 1.75,1.75196 l 0,31.93164 c 0,0.96981 -0.78022,1.75 -1.75,1.75 l -7.10742,0 0,56.69336 3.56445,0 c 0.96981,0 1.75,0.78018 1.75,1.75 l 0,15.96679 180.70898,0 0,-15.96679 c 0,-0.96982 0.78018,-1.75 1.75,-1.75 l 3.56446,0 0,-56.69336 -7.10743,0 c -0.96981,0 -1.75,-0.78019 -1.75,-1.75 l 0,-31.93164 c 0,-0.96982 0.78019,-1.75196 1.75,-1.75196 l 7.10743,0 0,-56.6914 -3.56446,0 c -0.96982,0 -1.75,-0.78211 -1.75,-1.75196 L 186.02343,0 5.31445,0 Z m 18.60156,7.08789 a 5.3149605,5.3149605 0 0 1 5.31641,5.31445 5.3149605,5.3149605 0 0 1 -5.31641,5.31446 5.3149605,5.3149605 0 0 1 -5.31445,-5.31446 5.3149605,5.3149605 0 0 1 5.31445,-5.31445 z m 143.50391,0 a 5.3149605,5.3149605 0 0 1 5.3164,5.31445 5.3149605,5.3149605 0 0 1 -5.3164,5.31446 5.3149605,5.3149605 0 0 1 -5.31446,-5.31446 5.3149605,5.3149605 0 0 1 5.31446,-5.31445 z M 49.58593,74.4082 l 8.19141,0 c 0.96981,0 1.75,0.78214 1.75,1.75196 l 0,31.93164 c 0,0.96981 -0.78019,1.75 -1.75,1.75 l -8.19141,0 c -0.96981,0 -1.75195,-0.78019 -1.75195,-1.75 l 0,-31.93164 c 0,-0.96982 0.78214,-1.75196 1.75195,-1.75196 z m 83.97657,0 8.1914,0 c 0.96981,0 1.75,0.78214 1.75,1.75196 l 0,31.93164 c 0,0.96981 -0.78019,1.75 -1.75,1.75 l -8.1914,0 c -0.96981,0 -1.75196,-0.78019 -1.75196,-1.75 l 0,-31.93164 c 0,-0.96982 0.78215,-1.75196 1.75196,-1.75196 z M 23.91601,166.53711 a 5.3149605,5.3149605 0 0 1 5.31641,5.31445 5.3149605,5.3149605 0 0 1 -5.31641,5.31446 5.3149605,5.3149605 0 0 1 -5.31445,-5.31446 5.3149605,5.3149605 0 0 1 5.31445,-5.31445 z m 143.50391,0 a 5.3149605,5.3149605 0 0 1 5.3164,5.31445 5.3149605,5.3149605 0 0 1 -5.3164,5.31446 5.3149605,5.3149605 0 0 1 -5.31446,-5.31446 5.3149605,5.3149605 0 0 1 5.31446,-5.31445 z"
     style="display:inline;opacity:1;fill:#608c60;fill-opacity:1;stroke:none;stroke-width:0.88582677;stroke-linecap:round;stroke-linejoin:round;stroke-miterlimit:4;stroke-dasharray:none;stroke-dashoffset:0;stroke-opacity:1" />
  </g>
  <g id="silkscreen">
  <path
     style="display:inline;opacity:1;fill:none;fill-opacity:1;stroke:#ffffff;stroke-width:0.72000003;stroke-linecap:round;stroke-linejoin:round;stroke-miterlimit:4;stroke-dasharray:none;stroke-dashoffset:0;stroke-opacity:1"
     d="m 5.31445,0 0,15.96484 c 0,0.96984 -0.78019,1.75196 -1.75,1.75196 l -3.56445,0 0,56.6914 7.10742,0 c 0.96979,0 1.74998,0.78214 1.75,1.75196 l 0,31.93164 c 0,0.96981 -0.78022,1.75 -1.75,1.75 l -7.10742,0 0,56.69336 3.56445,0 c 0.96981,0 1.75,0.78018 1.75,1.75 l 0,15.96679 180.70898,0 0,-15.96679 c 0,-0.96982 0.78018,-1.75 1.75,-1.75 l 3.56446,0 0,-56.69336 -7.10743,0 c -0.96981,0 -1.75,-0.78019 -1.75,-1.75 l 0,-31.93164 c 0,-0.96982 0.78019,-1.75196 1.75,-1.75196 l 7.10743,0 0,-56.6914 -3.56446,0 c -0.96982,0 -1.75,-0.78211 -1.75,-1.75196 L 186.02343,0 5.31445,0 Z m 18.60156,7.08789 a 5.3149605,5.3149605 0 0 1 5.31641,5.31445 5.3149605,5.3149605 0 0 1 -5.31641,5.31446 5.3149605,5.3149605 0 0 1 -5.31445,-5.31446 5.3149605,5.3149605 0 0 1 5.31445,-5.31445 z m 143.50391,0 a 5.3149605,5.3149605 0 0 1 5.3164,5.31445 5.3149605,5.3149605 0 0 1 -5.3164,5.31446 5.3149605,5.3149605 0 0 1 -5.31446,-5.31446 5.3149605,5.3149605 0 0 1 5.31446,-5.31445 z M 49.58593,74.4082 l 8.19141,0 c 0.96981,0 1.75,0.78214 1.75,1.75196 l 0,31.93164 c 0,0.96981 -0.78019,1.75 -1.75,1.75 l -8.19141,0 c -0.96981,0 -1.75195,-0.78019 -1.75195,-1.75 l 0,-31.93164 c 0,-0.96982 0.78214,-1.75196 1.75195,-1.75196 z m 83.97657,0 8.1914,0 c 0.96981,0 1.75,0.78214 1.75,1.75196 l 0,31.93164 c 0,0.96981 -0.78019,1.75 -1.75,1.75 l -8.1914,0 c -0.96981,0 -1.75196,-0.78019 -1.75196,-1.75 l 0,-31.93164 c 0,-0.96982 0.78215,-1.75196 1.75196,-1.75196 z M 23.91601,166.53711 a 5.3149605,5.3149605 0 0 1 5.31641,5.31445 5.3149605,5.3149605 0 0 1 -5.31641,5.31446 5.3149605,5.3149605 0 0 1 -5.31445,-5.31446 5.3149605,5.3149605 0 0 1 5.31445,-5.31445 z m 143.50391,0 a 5.3149605,5.3149605 0 0 1 5.3164,5.31445 5.3149605,5.3149605 0 0 1 -5.3164,5.31446 5.3149605,5.3149605 0 0 1 -5.31446,-5.31446 5.3149605,5.3149605 0 0 1 5.31446,-5.31445 z" />
  </g>
  <g id="silkscreen0">
  <path
     d="m 31.88867,31.89063 0,21.25976 21.25976,0 0,-21.25976 -21.25976,0 z m 106.29883,0 0,21.25976 21.25976,0 0,-21.25976 -21.25976,0 z m -60.23438,23.91797 0,35.43164 35.43164,0 0,-35.43164 -35.43164,0 z m -40.75,7.97265 0,10.62891 10.63086,0 0,-10.62891 -10.63086,0 z m 106.30078,0 0,10.62891 10.62891,0 0,-10.62891 -10.62891,0 z m -69.98047,42.51953 0,17.7168 44.29102,0 0,-17.7168 -44.29102,0 z m -41.63476,24.80274 0,21.25976 21.25976,0 0,-21.25976 -21.25976,0 z m 106.29883,0 0,21.25976 21.25976,0 0,-21.25976 -21.25976,0 z"
     style="display:inline;opacity:1;fill:none;fill-opacity:1;stroke:#ffffff;stroke-width:0.72000003;stroke-linecap:round;stroke-linejoin:round;stroke-miterlimit:4;stroke-dasharray:none;stroke-dashoffset:0;stroke-opacity:1" />
  </g>
</svg>
